<?xml version="1.0" encoding="utf-8"?>
<!-- Generator: Adobe Illustrator 26.2.1, SVG Export Plug-In . SVG Version: 6.00 Build 0)  -->
<svg version="1.1" id="Layer_1" xmlns="http://www.w3.org/2000/svg" xmlns:xlink="http://www.w3.org/1999/xlink" x="0px" y="0px"
	 viewBox="0 0 595.3 140" style="enable-background:new 0 0 595.3 140;" xml:space="preserve">
<style type="text/css">
	.st0{fill:#FFFFFF;}
	.st1{fill:none;stroke:#FFFFFF;stroke-miterlimit:10;}
	.st2{fill:#00FF00;}
	.st3{fill:none;stroke:#FEFEFF;stroke-width:1.5;stroke-miterlimit:10;}
	.st4{fill:none;stroke:#FEFEFF;stroke-width:1.5;stroke-miterlimit:10;stroke-dasharray:1.9843,1.9843;}
	.st5{fill:none;stroke:#FEFEFF;stroke-width:1.5;stroke-miterlimit:10;stroke-dasharray:2.1167,2.1167;}
	.st6{fill:none;stroke:#FEFEFF;stroke-width:1.5;stroke-miterlimit:10;stroke-dasharray:1.893,1.893;}
	.st7{fill:none;stroke:#FEFEFF;stroke-width:1.5;stroke-miterlimit:10;stroke-dasharray:1.9761,1.9761;}
	.st8{fill:none;stroke:#FEFEFF;stroke-width:1.5;stroke-miterlimit:10;stroke-dasharray:2.1878,2.1878;}
	.st9{fill:none;stroke:#FEFEFF;stroke-width:1.5;stroke-miterlimit:10;stroke-dasharray:1.9537,1.9537;}
	.st10{fill:none;stroke:#FEFEFF;stroke-width:1.5;stroke-miterlimit:10;stroke-dasharray:2.1166,2.1166;}
	.st11{fill:none;stroke:#FEFEFF;stroke-width:1.5;stroke-miterlimit:10;stroke-dasharray:2.0141,2.0141;}
	.st12{fill:none;stroke:#FEFEFF;stroke-width:1.5;stroke-miterlimit:10;stroke-dasharray:2.2361,2.2361;}
	.st13{fill:none;stroke:#FEFEFF;stroke-width:1.5;stroke-miterlimit:10;stroke-dasharray:1.9627,1.9627;}
	.st14{fill:none;stroke:#FEFEFF;stroke-width:1.5;stroke-miterlimit:10;stroke-dasharray:2.1704,2.1704;}
	.st15{fill:none;stroke:#FEFEFF;stroke-width:1.5;stroke-miterlimit:10;stroke-dasharray:2.0574,2.0574;}
	.st16{fill:none;stroke:#FEFEFF;stroke-width:1.5;stroke-miterlimit:10;stroke-dasharray:2.0873,2.0873;}
	.st17{fill:none;stroke:#FEFEFF;stroke-width:1.5;stroke-miterlimit:10;stroke-dasharray:1.9394,1.9394;}
	.st18{fill:none;stroke:#FEFEFF;stroke-width:1.5;stroke-miterlimit:10;stroke-dasharray:2.1714,2.1714;}
	.st19{fill:none;stroke:#FFFFFF;stroke-width:2;}
</style>
<a id="Layer_1_00000014620816966157636390000009598436940014256572_" xlink:href="https://app.modelo.io/share-token/1532935283094151168?source=copylink" target="_blank" >
	<g>
		<g>
			<g id="XMLID_00000035500509948913477030000011620569379327037364_">
				<g>
					<path class="st0" d="M541.5,68.4v-6.6h0.1L541.5,68.4l-23.6,11v-0.1L541.5,68.4z"/>
					<polygon class="st0" points="516.4,15.7 539.5,26.3 539.4,26.3 					"/>
					<path class="st0" d="M526.9,60.7c1.8-0.1,3.7-0.2,5.5-0.5C530.6,60.5,528.8,60.6,526.9,60.7c-0.8,0.2-1.4,0.8-1.4,1.6l0,0
						C525.5,61.4,526.1,60.8,526.9,60.7z"/>
					<path class="st0" d="M517.9,60.3L517.9,60.3l1.5,0.9c0.1,0,0.2,0.1,0.2,0.2l-0.1-0.1L517.9,60.3z"/>
					<polygon class="st0" points="514.9,66.8 514.9,79.4 514.8,79.4 514.8,66.8 					"/>
					<polygon class="st0" points="514.8,66.8 514.8,66.8 514.9,66.8 					"/>
					<polygon class="st0" points="506.6,56.4 515.8,62.4 515.7,62.5 					"/>
					<path class="st0" d="M504.4,72.7L504.4,72.7c0.2,0.1,0.3,0.1,0.5,0.1C504.7,72.8,504.6,72.8,504.4,72.7L504.4,72.7z"/>
					<path class="st0" d="M503.5,60.6L503.5,60.6c-0.1,0-0.2,0-0.3,0C503.3,60.6,503.4,60.6,503.5,60.6z"/>
					<path class="st0" d="M493.3,26.3l23.1-10.6L493.3,26.3z"/>
					<path class="st0" d="M503.5,71.3v-7.7c-4.1-0.3-8.3-1-12.3-1.8l0,0c4.1,0.8,8.2,1.5,12.4,1.8L503.5,71.3
						c0.1,0.6,0.4,1.1,0.9,1.3l0,0c0,0,0,0-0.1,0C503.9,72.4,503.5,71.9,503.5,71.3z"/>
					<path class="st0" d="M491.1,58.8V28.7h0.1L491.1,58.8c0.4,0.1,0.7,0.1,1.1,0.2C491.8,58.9,491.5,58.8,491.1,58.8z"/>
					<path class="st0" d="M544.6,37.2V58c2.5-0.7,5-1.4,7.3-2.4c5.8-2.3,9.2-5.3,9.2-8C561.1,43.7,554.9,39.8,544.6,37.2z
						 M471.6,47.6c0,3.5,5.7,7.7,16.5,10.4V37.2c-5,1.2-9,2.8-11.9,4.7C474.1,43.1,471.6,45.2,471.6,47.6z M514.8,66.8l-8.8,5.8
						c-0.3,0.2-0.7,0.3-1,0.2c-0.2,0-0.3-0.1-0.5-0.2c-0.5-0.2-0.8-0.7-0.8-1.3v-7.7c-4.2-0.3-8.3-1-12.4-1.8l0,0h-0.1v6.7l12.5,5.7
						l11.2,5.2l0,0h0.1L514.8,66.8L514.8,66.8L514.8,66.8z M539.5,26.3l-23.2-10.6l-23.1,10.6l0,0l-0.1,0.1l23.2,10.7L539.5,26.3
						L539.5,26.3L539.5,26.3z M541.5,61.8c-4.7,1-9.6,1.7-14.4,2H527c-0.8,0-1.5-0.6-1.5-1.5c0-0.8,0.6-1.4,1.4-1.5
						c1.8-0.1,3.7-0.3,5.5-0.5c3-0.3,6.1-0.9,9.1-1.5h0.1v-30l-23.7,11v20.5h0.1l0,0l1.6,1l0.1,0.1c0,0,0,0,0.1,0.1
						c0.2,0.3,0.4,0.6,0.4,1c0,0.5-0.2,1-0.7,1.2l-1.6,1v14.7h0.1v0.1l23.6-10.9L541.5,61.8C541.6,61.9,541.5,61.9,541.5,61.8
						L541.5,61.8z M488.1,61.1c-3-0.7-5.8-1.7-8.7-2.7c-7.2-2.9-10.9-6.7-10.9-10.7c0-3.1,2.1-5.8,6.1-8.3c3.3-2,8-3.8,13.5-5.2
						v-7.7c0-0.6,0.3-1.2,0.8-1.4l26.7-12.3c0.4-0.2,0.8-0.2,1.2,0L543.7,25c0.6,0.2,0.9,0.8,0.8,1.4v7.7c5.7,1.3,10.3,3.2,13.6,5.2
						c2.7,1.7,6,4.5,6,8.3c0,6.2-8.5,10.7-19.6,13.5v8.3c0,0.6-0.3,1.2-0.8,1.4L517,83.1c-0.4,0.2-0.8,0.2-1.2,0L489,70.8
						c-0.5-0.2-0.8-0.8-0.8-1.4v-8.3H488.1z M514.9,58.2V39.7l-23.6-11l0,0h-0.1v30.1c0.4,0.1,0.7,0.1,1.1,0.2
						c3.6,0.8,7.3,1.3,11,1.6c0.1,0,0.2,0,0.3,0l0,0h0.1v-7c0-0.6,0.3-1.1,0.8-1.3c0.1-0.1,0.3-0.1,0.5-0.2c0.3,0,0.7,0,1,0.2
						L514.9,58.2z M515.8,62.4l-9.2-6v12.1L515.8,62.4L515.8,62.4L515.8,62.4z"/>
				</g>
				<g>
					<path class="st1" d="M541.5,58.7c-3,0.6-6,1.1-9.1,1.5c-1.8,0.2-3.7,0.4-5.5,0.5c-0.8,0.1-1.4,0.7-1.4,1.5l0,0
						c0,0.8,0.7,1.5,1.5,1.5c0.1,0,0.1,0,0.1,0c4.9-0.4,9.7-1.1,14.4-2h0.1v6.7L518,79.3v-0.1V64.8l1.6-1c0.4-0.2,0.7-0.7,0.7-1.2
						c0-0.4-0.2-0.8-0.4-1.1"/>
					<path class="st1" d="M519.7,61.4L519.7,61.4l-1.7-1.1l0,0V39.7l23.6-11"/>
					<polygon class="st1" points="493.3,26.3 493.3,26.3 516.4,15.7 539.5,26.3 539.4,26.3 516.4,37 					"/>
					<polyline class="st1" points="506.6,56.4 515.8,62.4 515.7,62.5 506.6,68.5 					"/>
					<path class="st1" d="M504.4,72.7c0.1,0.1,0.3,0.1,0.5,0.2"/>
					<polyline class="st1" points="514.9,66.8 514.9,79.4 514.8,79.4 503.7,74.3 					"/>
					<path class="st1" d="M504.4,72.7l-0.7,1.5l-12.5-5.7v-6.6l0,0c4.1,0.8,8.2,1.5,12.4,1.8v7.7C503.6,71.9,503.9,72.4,504.4,72.7
						L504.4,72.7"/>
					<path class="st1" d="M504.9,52.1c-0.2,0-0.4,0.1-0.5,0.2c-0.5,0.2-0.8,0.7-0.8,1.3v7l0,0c-0.1,0-0.2,0-0.3,0
						c-3.7-0.4-7.4-0.9-11-1.6c-0.4-0.1-0.7-0.1-1.1-0.2V28.7h0.1l23.6,11"/>
					<path class="st1" d="M551.9,55.6c5.8-2.3,9.2-5.3,9.2-8c0-3.9-6.2-7.8-16.5-10.4V58C547.1,57.3,549.6,56.6,551.9,55.6z"/>
					<path class="st1" d="M541.5,58.7C541.5,58.7,541.6,58.7,541.5,58.7l0.1-30l-23.7,11v20.5h0.1l1.5,0.9c0.1,0,0.2,0.1,0.2,0.2
						c0,0,0,0,0.1,0.1c0.2,0.3,0.4,0.6,0.4,1c0,0.5-0.2,1-0.7,1.2l-1.6,1v14.7h0.1l23.6-10.9v-6.6v-0.1c-4.7,1-9.6,1.7-14.4,2H527
						c-0.8,0-1.5-0.6-1.5-1.5l0,0c0-0.8,0.6-1.5,1.4-1.6c1.8-0.1,3.7-0.2,5.5-0.5C535.5,59.9,538.5,59.4,541.5,58.7z"/>
					<polygon class="st1" points="516.4,15.7 493.3,26.3 493.2,26.4 516.4,37.1 539.5,26.4 539.4,26.3 					"/>
					<path class="st1" d="M504.9,52.1c0.3,0,0.7,0,1,0.2l8.9,5.8V39.7l-23.6-11l0,0v30c0.3,0.1,0.7,0.1,1,0.2
						c3.6,0.8,7.3,1.3,11,1.6c0.1,0,0.2,0,0.3,0h0.1v-7c0-0.6,0.3-1.1,0.8-1.3C504.6,52.2,504.7,52.1,504.9,52.1z"/>
					<polygon class="st1" points="506.6,56.4 506.6,68.5 515.8,62.5 515.7,62.5 					"/>
					<path class="st1" d="M514.9,66.8L514.9,66.8l-8.9,5.8c-0.3,0.2-0.7,0.3-1,0.2c-0.2,0-0.3-0.1-0.5-0.1l0,0c0,0,0,0-0.1,0
						c-0.5-0.2-0.8-0.7-0.8-1.3v-7.7c-4.1-0.3-8.3-1-12.3-1.8h-0.1v6.7l12.5,5.7l11.2,5.2l0,0V66.8L514.9,66.8L514.9,66.8z"/>
					<path class="st1" d="M471.6,47.6c0,3.5,5.7,7.7,16.5,10.4V37.2c-5,1.2-9,2.8-11.9,4.7C474.1,43.1,471.6,45.2,471.6,47.6z"/>
					<path class="st1" d="M468.6,47.6c0-3.1,2.1-5.8,6.1-8.3c3.3-2,8-3.8,13.5-5.2v-7.7c0-0.6,0.3-1.2,0.8-1.4l26.7-12.3
						c0.4-0.2,0.8-0.2,1.2,0L543.7,25c0.6,0.2,0.9,0.8,0.8,1.4v7.7c5.7,1.3,10.3,3.2,13.6,5.2c2.7,1.7,6,4.5,6,8.3
						c0,6.2-8.5,10.7-19.6,13.5v8.3c0,0.6-0.3,1.2-0.8,1.4L517,83.1c-0.4,0.2-0.8,0.2-1.2,0L489,70.8c-0.5-0.2-0.8-0.8-0.8-1.4v-8.3
						c-3-0.7-5.8-1.7-8.7-2.7C472.3,55.4,468.6,51.7,468.6,47.6z"/>
				</g>
			</g>
		</g>
		<g>
			<g>
				<path class="st2" d="M315.2,91.2h1.3c1.1,0,2.3-0.1,3.4-0.2c1.1-0.2,2-0.4,2.9-0.9c0.8-0.4,1.5-1.1,2-1.9
					c0.6-0.8,0.7-1.9,0.7-3.3c0-1.8-0.6-3.2-1.7-4c-1.1-0.9-2.5-1.3-4.2-1.3c-2.3,0-4.1,0.7-5.4,2.1s-2.2,3.2-2.6,5.4h-6.1
					c0.3-1.9,0.9-3.6,1.6-5.2s1.7-3,3-4c1.2-1.1,2.7-2,4.3-2.6c1.6-0.6,3.6-0.9,5.7-0.9c1.5,0,3,0.2,4.3,0.6c1.4,0.4,2.6,1,3.7,1.7
					c1.1,0.8,2,1.8,2.6,3c0.7,1.2,1,2.7,1,4.3c0,2.5-0.7,4.5-2,6.1c-1.4,1.6-3.1,2.8-5.2,3.3v0.1c1.8,0.7,3,1.7,3.8,3.2
					c0.7,1.5,1.1,3.1,1.1,4.9c0,2.1-0.4,4.1-1.2,5.7c-0.8,1.6-2,3-3.4,4.2c-1.5,1.1-3.1,2-5,2.5c-1.9,0.6-3.9,0.9-6.1,0.9
					c-3.7,0-6.6-1-8.9-3c-2.2-2-3.3-4.7-3.3-8.1c0-0.6,0-1.1,0-1.4s0.1-0.7,0.1-1.1h6.1c0,0.3-0.1,0.6-0.1,0.9c0,0.2,0,0.6,0,0.8
					c0,2,0.7,3.7,2,4.8c1.3,1.2,3,1.8,5.2,1.8c2.5,0,4.5-0.7,6-2.2s2.3-3.4,2.3-6c0-1.1-0.2-2-0.7-2.8c-0.4-0.7-1-1.3-1.6-1.6
					c-0.7-0.4-1.5-0.7-2.4-0.8c-0.9-0.2-1.8-0.2-2.6-0.2h-1.6L315.2,91.2z"/>
				<path class="st2" d="M341.3,74.2H356c5.1,0,9,1.4,11.6,4.2c2.7,2.8,4,7,4,12.5c0,1.2-0.2,2.5-0.4,4s-0.7,3-1.1,4.4
					c-0.5,1.5-1.1,3-2,4.3c-0.8,1.4-1.7,2.6-2.8,3.7c-1.2,1.1-2.4,2.1-3.4,3c-1.1,0.8-2.4,1.6-3.8,2.1c-1.4,0.6-3,1-4.8,1.2
					s-3.9,0.4-6.4,0.4h-14L341.3,74.2z M341.1,108.5h8.7c2,0,3.8-0.3,5.2-1.1c1.5-0.7,2.8-1.6,3.9-2.6c1.1-1.1,2-2.3,2.7-3.6
					c0.7-1.3,1.3-2.6,1.7-3.9c0.4-1.3,0.7-2.5,0.9-3.6c0.2-1.1,0.2-2,0.2-2.7c0-3.5-0.7-6.2-2.3-8.1c-1.6-1.9-3.7-2.9-6.5-2.9H347
					L341.1,108.5z"/>
				<path class="st2" d="M397.3,74.2h9.7l4.3,30.4h0.1l17.3-30.4h9.9l-8.2,39.9h-6.7l7-32h-0.1l-18,32H407l-5-32h-0.1l-6.1,32h-6.7
					L397.3,74.2z"/>
				<path class="st2" d="M440.2,97.6c0-4.2,0.7-7.8,1.9-10.9c1.2-3.1,2.9-5.6,4.9-7.6s4.3-3.4,6.9-4.4c2.5-1,5.2-1.5,7.7-1.5
					c2.6,0,5,0.4,7.1,1.3s4,2,5.5,3.6s2.7,3.4,3.5,5.5s1.2,4.5,1.2,7c0,4.2-0.6,7.9-1.8,10.9c-1.2,3-2.8,5.6-4.8,7.5
					s-4.3,3.4-6.8,4.4s-5.2,1.5-7.9,1.5c-2.9,0-5.4-0.4-7.6-1.3s-4-2.1-5.6-3.7c-1.5-1.6-2.6-3.4-3.4-5.6
					C440.6,102.4,440.2,100.1,440.2,97.6z M447.2,97.4c0,3.7,1,6.6,2.9,8.8c1.9,2.1,4.6,3.2,8.1,3.2c2.3,0,4.3-0.6,6.1-1.6
					s3.2-2.5,4.3-4.3c1.1-1.7,2-3.7,2.6-5.9c0.6-2.2,0.9-4.4,0.9-6.6c0-3.7-0.9-6.6-2.7-8.8s-4.4-3.2-8-3.2c-2.4,0-4.4,0.6-6.2,1.6
					c-1.8,1.1-3.3,2.5-4.4,4.3c-1.1,1.7-2,3.7-2.6,5.9C447.5,93,447.2,95.2,447.2,97.4z"/>
				<path class="st2" d="M489.4,74.2H504c5.1,0,9,1.4,11.6,4.2c2.7,2.8,4,7,4,12.5c0,1.2-0.2,2.5-0.4,4s-0.7,3-1.1,4.4
					c-0.5,1.5-1.1,3-2,4.3c-0.8,1.4-1.7,2.6-2.8,3.7c-1.2,1.1-2.4,2.1-3.4,3c-1.1,0.8-2.4,1.6-3.8,2.1c-1.4,0.6-3,1-4.8,1.2
					s-3.9,0.4-6.4,0.4h-14L489.4,74.2z M489.2,108.5h8.7c2,0,3.8-0.3,5.2-1.1c1.5-0.7,2.8-1.6,3.9-2.6c1.1-1.1,2-2.3,2.7-3.6
					c0.7-1.3,1.3-2.6,1.7-3.9s0.7-2.5,0.9-3.6s0.2-2,0.2-2.7c0-3.5-0.7-6.2-2.3-8.1c-1.6-1.9-3.7-2.9-6.5-2.9H495L489.2,108.5z"/>
				<path class="st2" d="M529.6,74.2h29.1l-1.2,6.1h-22.2l-2.2,10.5h20.6l-1.1,5.7h-20.7l-2.4,11.7h22.4l-1.2,6.1h-29.3L529.6,74.2z
					"/>
				<path class="st2" d="M565,74.2h7l-7,33.8h20.2l-1.2,6.1h-27.1L565,74.2z"/>
			</g>
			<g>
				<g>
					<g>
						<path class="st0" d="M311,88.4h1.3c1.1,0,2.3-0.1,3.4-0.2c1.1-0.2,2-0.4,2.9-0.9c0.8-0.4,1.5-1.1,2-1.9
							c0.6-0.8,0.7-1.9,0.7-3.3c0-1.8-0.6-3.2-1.7-4c-1.1-0.9-2.5-1.3-4.2-1.3c-2.3,0-4.1,0.7-5.4,2.1s-2.2,3.2-2.6,5.4h-6.1
							c0.3-1.9,0.9-3.6,1.6-5.2s1.7-3,3-4c1.2-1.1,2.7-2,4.3-2.6c1.6-0.6,3.6-0.9,5.7-0.9c1.5,0,3,0.2,4.3,0.6
							c1.4,0.4,2.6,1,3.7,1.7c1.1,0.8,2,1.8,2.6,3s1,2.7,1,4.3c0,2.5-0.7,4.5-2,6.1c-1.4,1.6-3.1,2.8-5.2,3.3v0.1
							c1.8,0.7,3,1.7,3.8,3.2s1.1,3.1,1.1,4.9c0,2.1-0.4,4.1-1.2,5.7c-0.8,1.6-2,3-3.4,4.2c-1.5,1.1-3.1,2-5,2.5
							c-1.9,0.6-3.9,0.9-6.1,0.9c-3.7,0-6.6-1-8.9-3s-3.3-4.7-3.3-8.1c0-0.6,0-1.1,0-1.4s0.1-0.7,0.1-1.1h6.1c0,0.3-0.1,0.6-0.1,0.9
							c0,0.2,0,0.6,0,0.8c0,2,0.7,3.7,2,4.8c1.3,1.2,3,1.8,5.2,1.8c2.5,0,4.5-0.7,6-2.2s2.3-3.4,2.3-6c0-1.1-0.2-2-0.7-2.8
							c-0.4-0.7-1-1.3-1.6-1.6c-0.7-0.4-1.5-0.7-2.4-0.8c-0.9-0.2-1.8-0.2-2.6-0.2H310L311,88.4z"/>
						<path class="st0" d="M337,71.4h14.7c5.1,0,9,1.4,11.6,4.2c2.7,2.8,4,7,4,12.5c0,1.2-0.2,2.5-0.4,4c-0.2,1.5-0.7,3-1.1,4.4
							s-1.1,3-2,4.3c-0.8,1.4-1.7,2.6-2.8,3.7c-1.2,1.1-2.4,2.1-3.4,3c-1.1,0.8-2.4,1.6-3.8,2.1s-3,1-4.8,1.2s-3.9,0.4-6.4,0.4h-14
							L337,71.4z M336.9,105.6h8.7c2,0,3.8-0.3,5.2-1.1c1.5-0.7,2.8-1.6,3.9-2.6s2-2.3,2.7-3.6c0.7-1.3,1.3-2.6,1.7-3.9
							c0.4-1.3,0.7-2.5,0.9-3.6s0.2-2,0.2-2.7c0-3.5-0.7-6.2-2.3-8.1c-1.6-1.9-3.7-2.9-6.5-2.9h-8.6L336.9,105.6z"/>
						<path class="st0" d="M393,71.4h9.7l4.3,30.4h0.1l17.3-30.4h9.9l-8.2,39.9h-6.7l7-32h-0.1l-18,32h-5.6l-5-32h-0.1l-6.1,32h-6.7
							L393,71.4z"/>
						<path class="st0" d="M436,94.8c0-4.2,0.7-7.8,1.9-10.9c1.2-3.1,2.9-5.6,4.9-7.6s4.3-3.4,6.9-4.4c2.5-1,5.2-1.5,7.7-1.5
							c2.6,0,5,0.4,7.1,1.3s4,2,5.5,3.6s2.7,3.4,3.5,5.5s1.2,4.5,1.2,7c0,4.2-0.6,7.9-1.8,10.9c-1.2,3-2.8,5.6-4.8,7.5
							s-4.3,3.4-6.8,4.4s-5.2,1.5-7.9,1.5c-2.9,0-5.4-0.4-7.6-1.3s-4-2.1-5.6-3.7c-1.5-1.6-2.6-3.4-3.4-5.6
							C436.4,99.6,436,97.3,436,94.8z M442.9,94.6c0,3.7,1,6.6,2.9,8.8c1.9,2.1,4.6,3.2,8.1,3.2c2.3,0,4.3-0.6,6.1-1.6
							c1.7-1.1,3.2-2.5,4.3-4.3c1.1-1.7,2-3.7,2.6-5.9c0.6-2.2,0.9-4.4,0.9-6.6c0-3.7-0.9-6.6-2.7-8.8c-1.8-2.1-4.4-3.2-7.9-3.2
							c-2.4,0-4.4,0.6-6.2,1.6c-1.8,1.1-3.3,2.5-4.4,4.3c-1.1,1.7-2,3.7-2.6,5.9C443.2,90.1,442.9,92.3,442.9,94.6z"/>
						<path class="st0" d="M485.1,71.4h14.7c5.1,0,9,1.4,11.6,4.2c2.7,2.8,4,7,4,12.5c0,1.2-0.2,2.5-0.4,4s-0.7,3-1.1,4.4
							c-0.5,1.5-1.1,3-2,4.3c-0.8,1.4-1.7,2.6-2.8,3.7c-1.2,1.1-2.4,2.1-3.4,3c-1.1,0.8-2.4,1.6-3.8,2.1s-3,1-4.8,1.2
							s-3.9,0.4-6.4,0.4h-14L485.1,71.4z M485,105.6h8.7c2,0,3.8-0.3,5.2-1.1c1.5-0.7,2.8-1.6,3.9-2.6c1.1-1.1,2-2.3,2.7-3.6
							c0.7-1.3,1.3-2.6,1.7-3.9c0.4-1.3,0.7-2.5,0.9-3.6s0.2-2,0.2-2.7c0-3.5-0.7-6.2-2.3-8.1c-1.6-1.9-3.7-2.9-6.5-2.9h-8.7
							L485,105.6z"/>
						<path class="st0" d="M525.4,71.4h29.1l-1.2,6.1H531L528.8,88h20.6l-1.1,5.7h-20.7l-2.4,11.7h22.4l-1.2,6.1h-29.3L525.4,71.4z"
							/>
						<path class="st0" d="M560.8,71.4h7l-7,33.8H581l-1.2,6.1h-27.1L560.8,71.4z"/>
					</g>
				</g>
			</g>
		</g>
	</g>
</a>
<a id="AWOL" xlink:href="https://app.modelo.io/share-token/1532935283094151168?source=copylink" target="_blank" >
	<g>
		<g id="AWOL::DASHED">
			<g>
				<g>
					<path class="st3" d="M173.6,45.9c0.1-0.3,0.3-0.6,0.4-0.9"/>
					<path class="st4" d="M175,43.3c13-21.1,53.9-20.7,53.9,6.1c0,10.5,0,21,0,31.5"/>
					<path class="st3" d="M228.9,81.9c0,0.3,0,0.7,0,1"/>
				</g>
			</g>
			<g>
				<g>
					<line class="st3" x1="62.8" y1="30.1" x2="62.8" y2="31.1"/>
					<line class="st5" x1="62.8" y1="33.3" x2="62.8" y2="61.8"/>
					<line class="st3" x1="62.8" y1="62.9" x2="62.8" y2="63.9"/>
				</g>
			</g>
			<g>
				<g>
					<line class="st3" x1="76" y1="63.9" x2="76" y2="62.9"/>
					<line class="st5" x1="76" y1="60.8" x2="76" y2="32.2"/>
					<line class="st3" x1="76" y1="31.1" x2="76" y2="30.1"/>
				</g>
			</g>
			<g>
				<g>
					<line class="st3" x1="129" y1="63.9" x2="129" y2="62.9"/>
					<line class="st5" x1="129" y1="60.8" x2="129" y2="32.2"/>
					<line class="st3" x1="129" y1="31.1" x2="129" y2="30.1"/>
				</g>
			</g>
			<g>
				<g>
					<line class="st3" x1="160.8" y1="63.9" x2="160.8" y2="62.9"/>
					<line class="st5" x1="160.8" y1="60.8" x2="160.8" y2="32.2"/>
					<line class="st3" x1="160.8" y1="31.1" x2="160.8" y2="30.1"/>
				</g>
			</g>
			<g>
				<g>
					<line class="st3" x1="171" y1="68.5" x2="171" y2="69.5"/>
					<line class="st6" x1="171" y1="71.4" x2="171" y2="89.3"/>
					<line class="st3" x1="171" y1="90.3" x2="171" y2="91.3"/>
				</g>
			</g>
			<g>
				<g>
					<line class="st3" x1="231.4" y1="111.6" x2="231.4" y2="110.6"/>
					<polyline class="st7" points="231.4,108.7 231.4,77.9 243.1,32.1 					"/>
					<polyline class="st3" points="243.4,31.1 243.6,30.1 244.6,30.1 					"/>
					<line class="st8" x1="246.8" y1="30.1" x2="254.5" y2="30.1"/>
					<polyline class="st3" points="255.6,30.1 256.6,30.1 256.6,31.1 					"/>
					<line class="st5" x1="256.6" y1="33.3" x2="256.6" y2="61.8"/>
					<line class="st3" x1="256.6" y1="62.9" x2="256.6" y2="63.9"/>
				</g>
			</g>
			<g>
				<g>
					<line class="st3" x1="255.2" y1="69.1" x2="256.2" y2="69.1"/>
					<line class="st9" x1="258.2" y1="69.1" x2="272.8" y2="69.1"/>
					<polyline class="st3" points="273.8,69.1 274.8,69.1 274.8,70.1 					"/>
					<line class="st10" x1="274.8" y1="72.2" x2="274.8" y2="100.7"/>
					<line class="st3" x1="274.8" y1="101.8" x2="274.8" y2="102.8"/>
				</g>
			</g>
			<g>
				<g>
					<line class="st3" x1="28.4" y1="111.6" x2="28.4" y2="110.6"/>
					<polyline class="st11" points="28.4,108.6 28.4,77.9 61.7,31.8 					"/>
					<polyline class="st3" points="62.3,31 62.8,30.1 63.8,30.1 					"/>
					<line class="st12" x1="66.1" y1="30.1" x2="73.9" y2="30.1"/>
					<polyline class="st3" points="75,30.1 76,30.1 76.2,31.1 					"/>
					<polyline class="st13" points="76.6,33.1 85.8,77.9 85.8,109.7 					"/>
					<line class="st3" x1="85.8" y1="110.6" x2="85.8" y2="111.6"/>
				</g>
			</g>
			<g>
				<g>
					<line class="st3" x1="96.7" y1="63.9" x2="96.7" y2="62.9"/>
					<line class="st5" x1="96.7" y1="60.8" x2="96.7" y2="32.2"/>
					<polyline class="st3" points="96.7,31.1 96.7,30.1 97.7,30.1 					"/>
					<line class="st14" x1="99.8" y1="30.1" x2="107.4" y2="30.1"/>
					<polyline class="st3" points="108.5,30.1 109.5,30.1 109.5,31.1 					"/>
					<line class="st5" x1="109.5" y1="33.3" x2="109.5" y2="61.8"/>
					<line class="st3" x1="109.5" y1="62.9" x2="109.5" y2="63.9"/>
				</g>
			</g>
			<g>
				<g>
					<line class="st3" x1="141.3" y1="63.9" x2="141.3" y2="62.9"/>
					<line class="st5" x1="141.3" y1="60.8" x2="141.3" y2="32.2"/>
					<polyline class="st3" points="141.3,31.1 141.3,30.1 140.3,30.1 					"/>
					<line class="st15" x1="138.2" y1="30.1" x2="131" y2="30.1"/>
					<polyline class="st3" points="130,30.1 129,30.1 128.5,31 					"/>
					<line class="st16" x1="127.5" y1="32.9" x2="110.5" y2="65.2"/>
					<line class="st3" x1="110" y1="66.1" x2="109.5" y2="67"/>
				</g>
			</g>
			<g>
				<g>
					<line class="st3" x1="141.3" y1="68.2" x2="141.7" y2="67.3"/>
					<line class="st17" x1="142.6" y1="65.6" x2="159.9" y2="31.9"/>
					<polyline class="st3" points="160.3,31 160.8,30.1 161.8,30.1 					"/>
					<line class="st18" x1="163.9" y1="30.1" x2="171.5" y2="30.1"/>
					<polyline class="st3" points="172.6,30.1 173.6,30.1 173.6,31.1 					"/>
					<line class="st5" x1="173.6" y1="33.3" x2="173.6" y2="61.8"/>
					<line class="st3" x1="173.6" y1="62.9" x2="173.6" y2="63.9"/>
				</g>
			</g>
			<g>
				<g>
					<line class="st3" x1="243.6" y1="30.1" x2="243.6" y2="31.1"/>
					<line class="st5" x1="243.6" y1="33.3" x2="243.6" y2="61.8"/>
					<line class="st3" x1="243.6" y1="62.9" x2="243.6" y2="63.9"/>
				</g>
			</g>
		</g>
		<g id="AWOL::SOLID">
			<g id="XMLID_00000098903244530383900770000010964931408859202187_">
				<g>
					<g>
						<polygon class="st0" points="274.8,102.8 272.5,111.6 231.4,111.6 243.6,63.9 256.6,63.9 246.6,102.8 						"/>
						<path class="st0" d="M171,91.6c0-33.5,58.5-41.6,57.9-7.8C228.3,117.4,171,125.6,171,91.6z M202.3,103.3
							c10.9-2.9,13.9-8.8,13.8-19.5c-0.1-12.3-7.6-14.3-18.4-11.6c-10.9,2.8-13.8,8.8-13.8,19.4
							C183.9,102.1,193.2,105.7,202.3,103.3z"/>
						<polygon class="st0" points="173.6,63.9 146.2,111.6 133.4,111.6 131.9,77.3 113.6,111.6 100.7,111.6 96.7,63.9 109.5,63.9 
							109.5,100.7 129,63.9 141.3,63.9 141.3,101.9 160.8,63.9 						"/>
						<path class="st0" d="M76,63.9l9.7,47.7H73L71.1,101H49.2l-7.4,10.6H28.4l34.5-47.7C62.9,63.9,76,63.9,76,63.9z M70,93.2
							L67.1,74L54.3,93.2H70z"/>
					</g>
					<g>
						<polygon class="st19" points="243.6,63.9 256.6,63.9 246.6,102.8 274.8,102.8 272.5,111.6 231.4,111.6 						"/>
						<polygon class="st19" points="133.4,111.6 131.9,77.3 113.6,111.6 100.7,111.6 96.7,63.9 109.5,63.9 109.5,100.7 129,63.9 
							141.3,63.9 141.3,101.9 160.8,63.9 173.6,63.9 146.2,111.6 						"/>
						<polygon class="st19" points="70,93.2 67.1,74 54.3,93.2 						"/>
						<polygon class="st19" points="62.8,63.9 76,63.9 85.8,111.6 73,111.6 71.1,101 49.2,101 41.9,111.6 28.4,111.6 						"/>
						<path class="st19" d="M183.9,91.6c0,10.4,9.3,14.1,18.4,11.7c10.9-2.9,13.9-8.8,13.8-19.5c-0.1-12.3-7.6-14.3-18.4-11.6
							C186.8,75,183.9,81,183.9,91.6z"/>
						<path class="st19" d="M171,91.6c0-33.5,58.5-41.6,57.9-7.8C228.3,117.4,171,125.6,171,91.6z"/>
					</g>
				</g>
			</g>
		</g>
	</g>
</a>
</svg>
