<?xml version="1.0" encoding="utf-8"?>
<!-- Generator: Adobe Illustrator 26.2.1, SVG Export Plug-In . SVG Version: 6.00 Build 0)  -->
<svg version="1.1" xmlns="http://www.w3.org/2000/svg" xmlns:xlink="http://www.w3.org/1999/xlink" x="0px" y="0px"
	 viewBox="0 0 595.3 375" style="enable-background:new 0 0 595.3 375;" xml:space="preserve">
<style type="text/css">
	.st0{display:none;}
	.st1{display:inline;fill:#0000FF;stroke:#FFFFFF;stroke-miterlimit:10;}
	.st2{fill:none;stroke:#FFFFFF;stroke-width:0.35;stroke-miterlimit:10;}
	.st3{fill:none;stroke:#FFFFFF;stroke-miterlimit:10;}
	.st4{fill:none;stroke:#FFFFFF;stroke-miterlimit:10;stroke-dasharray:1.9641,1.9641;}
	.st5{fill:none;stroke:#FFFFFF;stroke-miterlimit:10;stroke-dasharray:2.0299,2.0299;}
	.st6{fill:none;stroke:#FFFFFF;stroke-miterlimit:10;stroke-dasharray:1.9645,1.9645;}
	.st7{fill:none;stroke:#FFFFFF;stroke-miterlimit:10;stroke-dasharray:2.0305,2.0305;}
	.st8{fill:#00FF00;}
	.st9{fill:#FFFFFF;}
</style>
<g id="back" class="st0">
	<rect x="-49.1" y="-35" class="st1" width="686.1" height="436.6"/>
</g>
<g id="HG">
	<polyline class="st2" points="293.2,104.6 284.9,104.6 284.9,119 282.5,119 282.5,132.7 293.2,132.7 293.2,104.6 	"/>
	<polyline class="st2" points="157,205.3 149.7,205.3 149.7,219.9 157,219.9 157,205.3 	"/>
	<polyline class="st2" points="148.3,205.3 142.4,205.3 142.4,219.9 148.3,219.9 148.3,205.3 	"/>
	<polyline class="st2" points="140.8,205.3 129.6,205.3 129.6,219.9 140.8,219.9 140.8,205.3 	"/>
	<polyline class="st2" points="127.8,205.3 97.9,205.3 97.9,233.4 157,233.4 157,222.1 129.6,222.1 129.6,226.1 127.8,226.1 
		127.8,205.3 	"/>
	<polyline class="st2" points="89,49.6 77.8,49.6 77.8,63.2 89,63.2 89,49.6 	"/>
	<polyline class="st2" points="89,67.6 83.9,67.6 83.9,78.7 82.8,78.7 82.8,74.2 76.7,74.2 76.7,95.7 89,95.7 89,67.6 	"/>
	<polyline class="st2" points="82.8,67.6 76.7,67.6 76.7,73.1 82.8,73.1 82.8,67.6 	"/>
	<polyline class="st2" points="75.8,67.6 68.1,67.6 68.1,79.9 70.9,79.9 70.9,81.3 68.1,81.3 68.1,95.7 75.8,95.7 75.8,67.6 	"/>
	<polyline class="st2" points="67.1,67.6 29.8,67.6 29.8,95.7 67.1,95.7 67.1,67.6 	"/>
	<polyline class="st2" points="89,135.7 81.7,135.7 81.7,163.8 89,163.8 89,135.7 	"/>
	<polyline class="st2" points="80.4,135.7 29.8,135.7 29.8,163.8 80.4,163.8 80.4,135.7 	"/>
	<polyline class="st2" points="89,104.6 29.8,104.6 29.8,132.7 59.1,132.7 59.1,124.4 60.6,124.4 60.6,132.7 67.5,132.7 67.5,118.4 
		68.8,118.4 68.8,132.7 73.4,132.7 73.4,111.4 74.8,111.4 74.8,132.7 81.8,132.7 81.8,109.2 83.1,109.2 83.1,132.7 89,132.7 
		89,104.6 	"/>
	<polyline class="st2" points="38.4,172.7 29.8,172.7 29.8,200.8 38.4,200.8 38.4,172.7 	"/>
	<polyline class="st2" points="89,172.7 41.4,172.7 41.4,200.8 89,200.8 89,172.7 	"/>
	<polyline class="st2" points="89,221.6 29.8,221.6 29.8,233.4 89,233.4 89,221.6 	"/>
	<polyline class="st2" points="89,205.3 29.8,205.3 29.8,218.6 89,218.6 89,205.3 	"/>
	<polyline class="st2" points="89,242.3 29.8,242.3 29.8,270.4 89,270.4 89,242.3 	"/>
	<polyline class="st2" points="89,294.3 73.9,294.3 73.9,302.9 89,302.9 89,294.3 	"/>
	<polyline class="st2" points="89,277.2 82.3,277.2 82.3,288.6 80.9,288.6 80.9,277.2 51.9,277.2 51.9,302.9 70.1,302.9 70.1,292.9 
		89,292.9 89,277.2 	"/>
	<polyline class="st2" points="49.6,277.2 29.8,277.2 29.8,302.9 49.6,302.9 49.6,277.2 	"/>
	<polyline class="st2" points="102.5,35.1 97.9,35.1 97.9,63.2 109.2,63.2 109.2,43.7 102.5,43.7 102.5,35.1 	"/>
	<polyline class="st2" points="120.5,35.1 103.5,35.1 103.5,42.6 110.5,42.6 110.5,63.2 120.5,63.2 120.5,35.1 	"/>
	<polyline class="st2" points="157,35.1 122.3,35.1 122.3,63.2 129.7,63.2 129.7,43.8 131.2,43.8 131.2,63.2 145.5,63.2 145.5,49.9 
		146.7,49.9 146.7,63.2 157,63.2 157,35.1 	"/>
	<polyline class="st2" points="157,67.6 148.4,67.6 148.4,81.7 145.4,81.7 145.4,78.9 147.3,78.9 147.3,67.6 140.4,67.6 140.4,84.5 
		138.6,84.5 138.6,67.6 128.3,67.6 128.3,95.7 157,95.7 157,67.6 	"/>
	<polyline class="st2" points="126.6,67.6 110.7,67.6 110.7,87.5 109.6,87.5 109.6,67.6 97.9,67.6 97.9,89.4 105.6,89.4 105.6,83.7 
		106.7,83.7 106.7,91 97.9,91 97.9,95.7 126.6,95.7 126.6,67.6 	"/>
	<polyline class="st2" points="157,104.6 134.9,104.6 134.9,119.1 146.7,119.1 146.7,132.7 157,132.7 157,104.6 	"/>
	<polyline class="st2" points="133.5,104.6 121.8,104.6 121.8,132.7 145.3,132.7 145.3,120.3 133.5,120.3 133.5,104.6 	"/>
	<polyline class="st2" points="120.3,104.6 104.9,104.6 104.9,132.7 120.3,132.7 120.3,104.6 	"/>
	<polyline class="st2" points="103.3,104.6 97.9,104.6 97.9,132.7 103.3,132.7 103.3,104.6 	"/>
	<polyline class="st2" points="157,135.7 147.5,135.7 147.5,163.8 157,163.8 157,135.7 	"/>
	<polyline class="st2" points="144.7,135.7 134.9,135.7 134.9,163.8 144.7,163.8 144.7,135.7 	"/>
	<polyline class="st2" points="133.7,135.7 123.5,135.7 123.5,163.8 133.7,163.8 133.7,135.7 	"/>
	<polyline class="st2" points="120.5,135.7 97.9,135.7 97.9,163.8 120.5,163.8 120.5,135.7 	"/>
	<polyline class="st2" points="157,172.7 132,172.7 132,200.8 157,200.8 157,172.7 	"/>
	<polyline class="st2" points="127.9,172.7 109.9,172.7 109.9,200.8 127.9,200.8 127.9,172.7 	"/>
	<polyline class="st2" points="108.1,172.7 97.9,172.7 97.9,200.8 108.1,200.8 108.1,172.7 	"/>
	<polyline class="st2" points="157,242.3 97.9,242.3 97.9,270.4 104.4,270.4 104.4,255.8 106.2,255.8 106.2,270.4 157,270.4 
		157,242.3 	"/>
	<polyline class="st2" points="112.5,277.2 97.9,277.2 97.9,302.9 112.5,302.9 112.5,295.8 103.1,295.8 103.1,294.4 112.5,294.4 
		112.5,277.2 	"/>
	<polyline class="st2" points="136.4,277.2 114.4,277.2 114.4,302.9 136.4,302.9 136.4,277.2 	"/>
	<polyline class="st2" points="157,277.2 137.8,277.2 137.8,302.9 157,302.9 157,277.2 	"/>
	<polyline class="st2" points="225.1,35.1 165.9,35.1 165.9,63.2 225.1,63.2 225.1,35.1 	"/>
	<polyline class="st2" points="225.1,67.6 165.9,67.6 165.9,95.7 209.6,95.7 209.6,82 190.8,82 190.8,81 210.7,81 210.7,95.7 
		225.1,95.7 225.1,67.6 	"/>
	<polyline class="st2" points="225.1,104.6 220.4,104.6 220.4,132.7 225.1,132.7 225.1,104.6 	"/>
	<polyline class="st2" points="219.1,104.6 194.8,104.6 194.8,132.7 219.1,132.7 219.1,104.6 	"/>
	<polyline class="st2" points="193.3,104.6 165.9,104.6 165.9,132.7 193.3,132.7 193.3,104.6 	"/>
	<polyline class="st2" points="225.1,135.7 211.8,135.7 211.8,150.7 210.3,150.7 210.3,135.7 202.3,135.7 202.3,163.8 225.1,163.8 
		225.1,135.7 	"/>
	<polyline class="st2" points="200.8,135.7 190.5,135.7 190.5,148.5 196.2,148.5 196.2,149.9 189,149.9 189,135.7 177.1,135.7 
		177.1,163.8 200.8,163.8 200.8,135.7 	"/>
	<polyline class="st2" points="175.3,151 165.9,151 165.9,163.8 175.3,163.8 175.3,151 	"/>
	<polyline class="st2" points="175.3,135.7 165.9,135.7 165.9,148.5 175.3,148.5 175.3,135.7 	"/>
	<polyline class="st2" points="225.1,172.7 165.9,172.7 165.9,200.8 225.1,200.8 225.1,172.7 	"/>
	<polyline class="st2" points="225.1,205.3 217.6,205.3 217.6,219.4 216.6,219.4 216.6,205.3 206.6,205.3 206.6,210.2 214.1,210.2 
		214.1,211.3 206.6,211.3 206.6,233.4 225.1,233.4 225.1,205.3 	"/>
	<polyline class="st2" points="205,205.3 190.7,205.3 190.7,216 180.4,216 180.4,233.4 205,233.4 205,220.7 196.7,220.7 
		196.7,218.9 205,218.9 205,211.3 198.5,211.3 198.5,210.2 205,210.2 205,205.3 	"/>
	<polyline class="st2" points="189.6,205.3 180.4,205.3 180.4,214.2 189.6,214.2 189.6,205.3 	"/>
	<polyline class="st2" points="178.6,205.3 165.9,205.3 165.9,233.4 178.6,233.4 178.6,205.3 	"/>
	<polyline class="st2" points="225.1,242.3 196.7,242.3 196.7,270.4 202.6,270.4 202.6,261 203.6,261 203.6,270.4 210,270.4 
		210,250.3 211.1,250.3 211.1,270.4 216.4,270.4 216.4,252.9 217.9,252.9 217.9,245 219.4,245 219.4,254 217.3,254 217.3,270.4 
		225.1,270.4 225.1,242.3 	"/>
	<polyline class="st2" points="225.1,273.3 215.4,273.3 215.4,302.9 225.1,302.9 225.1,273.3 	"/>
	<polyline class="st2" points="214.1,273.3 196.7,273.3 196.7,302.9 202.1,302.9 202.1,289.1 203.4,289.1 203.4,302.9 214.1,302.9 
		214.1,273.3 	"/>
	<polyline class="st2" points="187.8,273.3 165.9,273.3 165.9,302.9 187.8,302.9 187.8,273.3 	"/>
	<polyline class="st2" points="187.8,242.3 165.9,242.3 165.9,270.4 187.8,270.4 187.8,242.3 	"/>
	<polyline class="st2" points="243,273.3 234,273.3 234,302.9 243,302.9 243,273.3 	"/>
	<polyline class="st2" points="286,273.3 278.8,273.3 278.8,293.2 281.1,293.2 281.1,295.7 277.4,295.7 277.4,273.3 246,273.3 
		246,302.9 286,302.9 286,273.3 	"/>
	<polyline class="st2" points="293.2,273.3 287.1,273.3 287.1,302.9 293.2,302.9 293.2,273.3 	"/>
	<polyline class="st2" points="239.1,256.3 234,256.3 234,270.4 239.1,270.4 239.1,256.3 	"/>
	<polyline class="st2" points="293.2,242.3 234,242.3 234,254.9 238.1,254.9 238.1,252 241.3,252 241.3,270.4 260.5,270.4 
		260.5,249.3 261.4,249.3 261.4,270.4 277.5,270.4 277.5,259.6 278.6,259.6 278.6,270.4 287.2,270.4 287.2,264.4 281.1,264.4 
		281.1,263.5 287.2,263.5 287.2,259.1 288.4,259.1 288.4,270.4 293.2,270.4 293.2,242.3 	"/>
	<polyline class="st2" points="293.2,205.3 280.9,205.3 280.9,226.1 288.9,226.1 288.9,227 279.2,227 279.2,205.3 261.1,205.3 
		261.1,219.2 260.1,219.2 260.1,205.3 234,205.3 234,233.4 293.2,233.4 293.2,205.3 	"/>
	<polyline class="st2" points="293.2,172.7 252.3,172.7 252.3,200.8 275.4,200.8 275.4,188.2 276.5,188.2 276.5,200.8 293.2,200.8 
		293.2,172.7 	"/>
	<polyline class="st2" points="250.5,172.7 234,172.7 234,200.8 239.4,200.8 239.4,177.9 241.2,177.9 241.2,200.8 250.5,200.8 
		250.5,172.7 	"/>
	<polyline class="st2" points="293.2,135.7 287.7,135.7 287.7,157.6 285.9,157.6 285.9,135.7 279,135.7 279,154.8 278,154.8 
		278,135.7 273.1,135.7 273.1,155.5 271.7,155.5 271.7,135.7 258.8,135.7 258.8,163.8 293.2,163.8 293.2,135.7 	"/>
	<polyline class="st2" points="256.7,135.7 252.3,135.7 252.3,159.7 251,159.7 251,151.4 240.9,151.4 240.9,157.7 239.6,157.7 
		239.6,149.9 251,149.9 251,135.7 234,135.7 234,163.8 256.7,163.8 256.7,135.7 	"/>
	<polyline class="st2" points="284.4,104.6 269.5,104.6 269.5,132.7 271.9,132.7 271.9,117.2 275.6,117.2 275.6,119.1 273.1,119.1 
		273.1,132.7 281.5,132.7 281.5,109.4 284.4,109.4 284.4,104.6 	"/>
	<polyline class="st2" points="268.4,111.5 263.6,111.5 263.6,132.7 268.4,132.7 268.4,111.5 	"/>
	<polyline class="st2" points="263,110.9 258.5,110.9 258.5,128.2 262,128.2 262,129 258.5,129 258.5,132.7 263,132.7 263,110.9 	
		"/>
	<polyline class="st2" points="268.4,104.6 258.5,104.6 258.5,110.1 268.4,110.1 268.4,104.6 	"/>
	<polyline class="st2" points="256.6,104.6 240.4,104.6 240.4,114.8 238.7,114.8 238.7,104.6 234,104.6 234,132.7 245.7,132.7 
		245.7,112 246.8,112 246.8,132.7 256.6,132.7 256.6,104.6 	"/>
	<polyline class="st2" points="293.2,67.6 285.7,67.6 285.7,80.5 280.6,80.5 280.6,86 279.5,86 279.5,75.2 280.7,75.2 280.7,79 
		284.4,79 284.4,67.6 268.9,67.6 268.9,85.7 267.8,85.7 267.8,67.6 258.4,67.6 258.4,95.7 293.2,95.7 293.2,67.6 	"/>
	<polyline class="st2" points="256.7,67.6 234,67.6 234,86.9 244.2,86.9 244.2,82.4 245.7,82.4 245.7,88 234,88 234,95.7 
		256.7,95.7 256.7,67.6 	"/>
	<polyline class="st2" points="284.9,35.1 275.6,35.1 275.6,43 284.9,43 284.9,35.1 	"/>
	<polyline class="st2" points="293.2,35.1 286.1,35.1 286.1,45.9 284.9,45.9 284.9,44 275.6,44 275.6,63.2 285,63.2 285,50.2 
		286.4,50.2 286.4,63.2 293.2,63.2 293.2,35.1 	"/>
	<polyline class="st2" points="274.1,49.5 246.7,49.5 246.7,55.2 274.1,55.2 274.1,49.5 	"/>
	<polyline class="st2" points="245.8,49.5 234,49.5 234,63.2 274.1,63.2 274.1,56.4 245.8,56.4 245.8,49.5 	"/>
	<polyline class="st2" points="241.1,35.1 234,35.1 234,48.4 245.8,48.4 245.8,43.7 241.1,43.7 241.1,35.1 	"/>
	<polyline class="st2" points="274.1,42.8 246.7,42.8 246.7,48.4 274.1,48.4 274.1,42.8 	"/>
	<polyline class="st2" points="274.1,35.1 242.1,35.1 242.1,42.7 245.8,42.7 245.8,41.8 274.1,41.8 274.1,35.1 	"/>
	<polyline class="st2" points="361.3,67.6 355.2,67.6 355.2,95.7 361.3,95.7 361.3,67.6 	"/>
	<polyline class="st2" points="353.5,67.6 302.1,67.6 302.1,95.7 353.5,95.7 353.5,88 345.3,88 345.3,86.6 353.5,86.6 353.5,81.5 
		343.4,81.5 343.4,78.8 353.5,78.8 353.5,73.9 343.4,73.9 343.4,72.4 353.5,72.4 353.5,67.6 	"/>
	<polyline class="st2" points="361.3,35.1 302.1,35.1 302.1,63.2 348.1,63.2 348.1,47.1 355,47.1 355,48.9 349.4,48.9 349.4,63.2 
		361.3,63.2 361.3,35.1 	"/>
	<polyline class="st2" points="361.3,104.6 354.5,104.6 354.5,132.7 361.3,132.7 361.3,104.6 	"/>
	<polyline class="st2" points="353.3,104.6 310.3,104.6 310.3,110 313.9,113.6 320.2,113.6 320.2,115.3 313.9,115.3 307.4,121.9 
		302.1,121.9 302.1,132.7 308.1,132.7 308.1,124 309.6,124 309.6,132.7 334.6,132.7 334.6,117.8 335.8,117.8 335.8,132.7 
		342.4,132.7 342.4,117.3 347.7,117.3 347.7,118.2 343.6,118.2 343.6,132.7 353.3,132.7 353.3,104.6 	"/>
	<polyline class="st2" points="308.6,104.6 302.1,104.6 302.1,120.5 306.5,120.5 310.3,116.6 310.3,112.2 308.6,110.6 308.6,104.6 	
		"/>
	<polyline class="st2" points="361.3,135.7 355.7,135.7 355.7,144.2 354.3,144.2 354.3,135.7 345.1,135.7 345.1,156.2 344,156.2 
		344,135.7 332.7,135.7 332.7,157.8 331.7,157.8 331.7,135.7 302.1,135.7 302.1,163.8 361.3,163.8 361.3,135.7 	"/>
	<polyline class="st2" points="361.3,172.7 302.1,172.7 302.1,200.8 342.5,200.8 342.5,183.2 344,183.2 344,200.8 354.7,200.8 
		354.7,178.3 355.7,178.3 355.7,200.8 361.3,200.8 361.3,172.7 	"/>
	<polyline class="st2" points="361.3,205.3 341.7,205.3 341.7,212.8 351.9,212.8 351.9,207.8 353.8,207.8 353.8,214.1 341.7,214.1 
		341.7,220.4 339.9,220.4 339.9,205.3 315.4,205.3 315.4,223.3 314.4,223.3 314.4,205.3 310.4,205.3 310.4,216.1 308.9,216.1 
		308.9,205.3 302.1,205.3 302.1,233.4 361.3,233.4 361.3,205.3 	"/>
	<polyline class="st2" points="361.3,242.3 302.1,242.3 302.1,270.4 329.1,270.4 329.1,256 330.2,256 330.2,270.4 344.3,270.4 
		344.3,255.9 338.5,255.9 338.5,254.3 345.6,254.3 345.6,270.4 355.3,270.4 355.3,251 356.5,251 356.5,270.4 361.3,270.4 
		361.3,242.3 	"/>
	<polyline class="st2" points="361.3,273.3 328.8,273.3 328.8,287 338.5,287 338.5,288.5 328.8,288.5 328.8,302.9 361.3,302.9 
		361.3,273.3 	"/>
	<polyline class="st2" points="326.7,273.3 314.8,273.3 314.8,287.1 313.7,287.1 313.7,273.3 302.1,273.3 302.1,302.9 326.7,302.9 
		326.7,273.3 	"/>
	<polyline class="st2" points="429.4,67.6 370.2,67.6 370.2,95.7 429.4,95.7 429.4,67.6 	"/>
	<polyline class="st2" points="429.4,35.1 370.2,35.1 370.2,63.2 429.4,63.2 429.4,35.1 	"/>
	<polyline class="st2" points="429.4,104.6 423.6,104.6 423.6,132.7 429.4,132.7 429.4,104.6 	"/>
	<polyline class="st2" points="422.1,104.6 412.3,104.6 412.3,126.1 415.1,126.1 415.1,126.7 412.3,126.7 412.3,132.7 422.1,132.7 
		422.1,127.5 418.8,127.5 418.8,126.7 422.1,126.7 422.1,104.6 	"/>
	<polyline class="st2" points="410.9,104.6 382.6,104.6 382.6,120.6 387.8,120.6 387.8,121.9 382.6,121.9 382.6,132.7 398.9,132.7 
		398.9,112.9 402.8,112.9 402.8,114.8 399.9,114.8 399.9,132.7 410.9,132.7 410.9,104.6 	"/>
	<polyline class="st2" points="381.5,109.7 376.8,109.7 376.8,117.1 381.5,117.1 381.5,109.7 	"/>
	<polyline class="st2" points="381.5,104.6 370.2,104.6 370.2,132.7 377.6,132.7 377.6,119.5 379,119.5 379,132.7 381.5,132.7 
		381.5,118.2 375.8,118.2 375.8,107.1 376.8,107.1 376.8,108.6 381.5,108.6 381.5,104.6 	"/>
	<polyline class="st2" points="429.4,135.7 422,135.7 423,155.4 429.4,155.4 429.4,135.7 	"/>
	<polyline class="st2" points="420.8,135.7 414.7,135.7 414.7,149 413.7,149 413.7,135.7 401.5,135.7 401.5,163.8 429.4,163.8 
		429.4,156.8 419.6,156.8 419.6,155.4 421.8,155.4 420.8,135.7 	"/>
	<polyline class="st2" points="400.1,135.7 377.4,135.7 377.4,148 376.5,148 376.5,135.7 370.2,135.7 370.2,163.8 400.1,163.8 
		400.1,135.7 	"/>
	<polyline class="st2" points="429.4,180.5 412.1,180.5 412.1,188 429.4,188 429.4,180.5 	"/>
	<polyline class="st2" points="429.4,189.5 423.8,189.5 423.8,200.8 429.4,200.8 429.4,189.5 	"/>
	<polyline class="st2" points="429.4,172.7 406.7,172.7 406.7,200.8 423,200.8 423,189.5 411.3,189.5 411.3,179.2 429.4,179.2 
		429.4,172.7 	"/>
	<polyline class="st2" points="404.7,172.7 395,172.7 395,200.8 404.7,200.8 404.7,172.7 	"/>
	<polyline class="st2" points="393.2,172.7 370.2,172.7 370.2,200.8 376.5,200.8 376.5,175.5 377.9,175.5 377.9,200.8 393.2,200.8 
		393.2,172.7 	"/>
	<polyline class="st2" points="429.4,205.3 420.2,205.3 420.2,218.2 411,218.2 411,215.2 418.7,215.2 418.7,205.3 399.7,205.3 
		399.7,233.4 429.4,233.4 429.4,205.3 	"/>
	<polyline class="st2" points="398.9,205.3 370.2,205.3 370.2,233.4 398.9,233.4 398.9,225.3 395.8,225.3 395.8,224.4 398.9,224.4 
		398.9,205.3 	"/>
	<polyline class="st2" points="429.4,242.3 370.2,242.3 370.2,270.4 399,270.4 399,249.5 401.1,249.5 401.1,270.4 429.4,270.4 
		429.4,242.3 	"/>
	<polyline class="st2" points="429.4,273.3 419,273.3 419,302.9 429.4,302.9 429.4,273.3 	"/>
	<polyline class="st2" points="417.3,283.6 412.9,283.6 412.9,292.5 417.3,292.5 417.3,283.6 	"/>
	<polyline class="st2" points="417.3,273.3 370.2,273.3 370.2,302.9 417.3,302.9 417.3,293.5 411.8,293.5 411.8,282.3 417.3,282.3 
		417.3,273.3 	"/>
	<polyline class="st2" points="497.4,35.1 480.2,35.1 480.2,63.2 490.1,63.2 490.1,45 491.6,45 491.6,63.2 497.4,63.2 497.4,35.1 	
		"/>
	<polyline class="st2" points="478.3,35.1 445.5,35.1 445.5,63.2 454.5,63.2 454.5,40.2 456.1,40.2 456.1,63.2 466.2,63.2 
		466.2,39.2 473.2,39.2 473.2,40.2 468.4,40.2 468.4,63.2 478.3,63.2 478.3,35.1 	"/>
	<polyline class="st2" points="443.8,35.1 438.3,35.1 438.3,63.2 443.8,63.2 443.8,35.1 	"/>
	<polyline class="st2" points="443.1,67.6 438.3,67.6 438.3,95.7 443.1,95.7 443.1,67.6 	"/>
	<polyline class="st2" points="478.2,67.6 444.6,67.6 444.6,95.7 478.2,95.7 478.2,67.6 	"/>
	<polyline class="st2" points="497.4,67.6 480.2,67.6 480.2,85.6 479.3,85.6 479.3,95.7 497.4,95.7 497.4,67.6 	"/>
	<polyline class="st2" points="489,104.6 479.8,104.6 479.8,110.4 489,110.4 489,104.6 	"/>
	<polyline class="st2" points="497.4,104.6 489.9,104.6 489.9,112.9 489,112.9 489,111.6 480.5,111.6 480.5,132.7 497.4,132.7 
		497.4,104.6 	"/>
	<polyline class="st2" points="479.2,104.6 455.9,104.6 455.9,110.6 459.7,110.6 459.7,111.6 455.9,111.6 455.9,132.7 467.4,132.7 
		467.4,110.7 468.6,110.7 468.6,125 471.8,125 471.8,126.2 468.6,126.2 468.6,132.7 479.2,132.7 479.2,104.6 	"/>
	<polyline class="st2" points="455.5,104.6 438.3,104.6 438.3,111.7 447.3,111.7 447.3,112.8 438.3,112.8 438.3,132.7 454.8,132.7 
		454.8,118.3 455.5,118.3 455.5,113.7 449.6,113.7 449.6,112.6 455.5,112.6 455.5,104.6 	"/>
	<polyline class="st2" points="497.4,135.7 491.5,135.7 491.5,154.6 497.4,154.6 497.4,135.7 	"/>
	<polyline class="st2" points="490.7,135.7 474.3,135.7 474.3,151.9 479.4,151.9 479.4,152.9 474.3,152.9 474.3,163.8 497.4,163.8 
		497.4,155.7 490.7,155.7 490.7,135.7 	"/>
	<polyline class="st2" points="472.6,135.7 462.4,135.7 462.4,139.3 467.5,139.3 467.5,156.5 466.8,156.5 466.8,140.2 460.8,140.2 
		460.8,135.7 456.3,135.7 456.3,163.8 472.6,163.8 472.6,135.7 	"/>
	<polyline class="st2" points="455.6,135.7 450.4,135.7 450.4,155.7 455.6,155.7 455.6,135.7 	"/>
	<polyline class="st2" points="449,135.7 446.3,135.7 446.3,155.7 449,155.7 449,135.7 	"/>
	<polyline class="st2" points="445.1,135.7 438.3,135.7 438.3,163.8 455.6,163.8 455.6,156.7 443.1,156.7 443.1,155.7 445.1,155.7 
		445.1,135.7 	"/>
	<polyline class="st2" points="445,181.2 438.3,181.2 438.3,193.5 445,193.5 445,181.2 	"/>
	<polyline class="st2" points="497.4,172.7 438.3,172.7 438.3,179.8 446.6,179.8 446.6,195.3 438.3,195.3 438.3,200.8 454.9,200.8 
		454.9,178.5 456.7,178.5 456.7,200.8 497.4,200.8 497.4,172.7 	"/>
	<polyline class="st2" points="497.4,205.3 477.2,205.3 477.2,216.5 483.5,216.5 483.5,218.3 475.9,218.3 475.9,205.3 468.5,205.3 
		468.5,233.4 497.4,233.4 497.4,205.3 	"/>
	<polyline class="st2" points="467.2,205.3 438.3,205.3 438.3,233.4 467.2,233.4 467.2,205.3 	"/>
	<polyline class="st2" points="460.8,242.3 438.3,242.3 438.3,248.5 444.7,248.5 444.7,249.6 438.3,249.6 438.3,270.4 460.8,270.4 
		460.8,242.3 	"/>
	<polyline class="st2" points="497.4,242.3 462.6,242.3 462.6,270.4 487.8,270.4 487.8,257.7 481.3,257.7 481.3,254.9 489.4,254.9 
		489.4,270.4 497.4,270.4 497.4,242.3 	"/>
	<polyline class="st2" points="497.4,273.3 487.2,273.3 487.2,292.1 497.4,292.1 497.4,273.3 	"/>
	<polyline class="st2" points="485.8,273.3 483.6,273.3 483.6,286.4 482.1,286.4 482.1,273.3 471.6,273.3 471.6,285.4 473.9,285.4 
		473.9,286.9 468,286.9 468,285.4 470.2,285.4 470.2,273.3 456,273.3 456,293 452.7,293 452.7,292 454.2,292 454.2,280.9 
		450.2,280.9 450.2,280 454.2,280 454.2,273.3 446.6,273.3 446.6,302.9 497.4,302.9 497.4,293.4 485.8,293.4 485.8,273.3 	"/>
	<polyline class="st2" points="445.2,273.3 438.3,273.3 438.3,302.9 445.2,302.9 445.2,273.3 	"/>
	<polyline class="st2" points="565.5,67.6 506.3,67.6 506.3,95.7 565.5,95.7 565.5,67.6 	"/>
	<polyline class="st2" points="552.3,35.1 506.3,35.1 506.3,63.2 565.5,63.2 565.5,45.3 552.3,35.1 	"/>
	<polyline class="st2" points="565.5,104.6 526.4,104.6 526.4,109.3 531,109.3 531,132.7 548.2,132.7 548.2,109.2 552.1,109.2 
		552.1,110.1 549.1,110.1 549.1,124.9 552.1,124.9 552.1,125.8 549.1,125.8 549.1,132.7 554.2,132.7 554.2,120.2 555.3,120.2 
		555.3,132.7 565.5,132.7 565.5,104.6 	"/>
	<polyline class="st2" points="524.5,104.6 506.3,104.6 506.3,132.7 529.3,132.7 529.3,124.5 527.4,124.5 527.4,114.4 524.5,114.4 
		524.5,104.6 	"/>
	<polyline class="st2" points="565.5,135.7 549.4,135.7 549.4,145 548.3,145 548.3,135.7 543.1,135.7 543.1,151.6 548.3,151.6 
		548.3,152.4 541.6,152.4 541.6,135.7 532.7,135.7 532.7,163.8 565.5,163.8 565.5,155 553.6,155 553.6,149.5 554.6,149.5 554.6,154 
		565.5,154 565.5,135.7 	"/>
	<polyline class="st2" points="531,135.7 523.8,135.7 523.8,163.8 531,163.8 531,135.7 	"/>
	<polyline class="st2" points="522.2,135.7 506.3,135.7 506.3,163.8 522.2,163.8 522.2,135.7 	"/>
	<polyline class="st2" points="565.5,172.7 555.1,172.7 555.1,200.8 565.5,200.8 565.5,172.7 	"/>
	<polyline class="st2" points="553.3,172.7 543.4,172.7 543.4,200.8 553.3,200.8 553.3,172.7 	"/>
	<polyline class="st2" points="541.7,172.7 531,172.7 531,179.9 529.5,179.9 529.5,172.7 518.8,172.7 518.8,200.8 541.7,200.8 
		541.7,172.7 	"/>
	<polyline class="st2" points="518.3,172.7 506.3,172.7 506.3,200.8 516.9,200.8 516.9,177.9 510.7,177.9 510.7,177 518.3,177 
		518.3,172.7 	"/>
	<polyline class="st2" points="565.5,205.3 549.1,205.3 549.1,223.8 544.3,223.8 544.3,220.8 545.8,220.8 545.8,222.9 548.2,222.9 
		548.2,205.3 537,205.3 537,224.2 540.3,224.2 540.3,225.1 535.4,225.1 535.4,223.1 531.9,223.1 531.9,222.2 535.4,222.2 
		535.4,205.3 524.2,205.3 524.2,224.5 522.9,224.5 522.9,205.3 514.7,205.3 514.7,217.4 513.4,217.4 513.4,205.3 506.3,205.3 
		506.3,233.4 565.5,233.4 565.5,211.5 553.7,211.5 553.7,210.3 565.5,210.3 565.5,205.3 	"/>
	<polyline class="st2" points="565.5,242.3 506.3,242.3 506.3,270.4 554,270.4 554,252.6 550.3,252.6 550.3,251.9 561.4,251.9 
		561.4,252.6 555.4,252.6 555.4,270.4 565.5,270.4 565.5,242.3 	"/>
	<polyline class="st2" points="565.5,273.3 555,273.3 555,285.8 553.9,285.8 553.9,273.3 506.3,273.3 506.3,302.9 536.6,302.9 
		536.6,286.8 530.6,286.8 530.6,285.4 534.8,285.4 534.8,275.1 535.9,275.1 535.9,285.4 542.5,285.4 542.5,286.8 537.9,286.8 
		537.9,302.9 565.5,302.9 565.5,273.3 	"/>
	<polyline class="st2" points="89,35.1 29.8,35.1 29.8,63.2 68.7,63.2 68.7,54.3 69.7,54.3 69.7,46.7 70.8,46.7 70.8,63.2 
		75.7,63.2 75.7,48.6 89,48.6 89,35.1 	"/>
</g>
<g id="INDIVIDUAL_MAPS">
	<g id="Layer_3_00000145774777135879802660000000191666727507135634_">
		<g>
			<g>
				<line class="st3" x1="158.5" y1="29.3" x2="157.5" y2="29.3"/>
				<line class="st4" x1="155.5" y1="29.3" x2="85.8" y2="29.3"/>
				<polyline class="st3" points="84.8,29.3 83.8,29.3 83.8,30.3 				"/>
				<line class="st5" x1="83.8" y1="32.3" x2="83.8" y2="80"/>
				<polyline class="st3" points="83.8,81 83.8,82 84.8,82 				"/>
				<line class="st4" x1="86.8" y1="82" x2="156.5" y2="82"/>
				<polyline class="st3" points="157.5,82 158.5,82 158.5,81 				"/>
				<line class="st5" x1="158.5" y1="79" x2="158.5" y2="31.3"/>
				<line class="st3" x1="158.5" y1="30.3" x2="158.5" y2="29.3"/>
			</g>
		</g>
		<g>
			<g>
				<line class="st3" x1="158.5" y1="82" x2="157.5" y2="82"/>
				<line class="st4" x1="155.5" y1="82" x2="85.8" y2="82"/>
				<polyline class="st3" points="84.8,82 83.8,82 83.8,83 				"/>
				<line class="st5" x1="83.8" y1="85" x2="83.8" y2="132.7"/>
				<polyline class="st3" points="83.8,133.7 83.8,134.7 84.8,134.7 				"/>
				<line class="st4" x1="86.8" y1="134.7" x2="156.5" y2="134.7"/>
				<polyline class="st3" points="157.5,134.7 158.5,134.7 158.5,133.7 				"/>
				<line class="st5" x1="158.5" y1="131.7" x2="158.5" y2="84"/>
				<line class="st3" x1="158.5" y1="83" x2="158.5" y2="82"/>
			</g>
		</g>
		<g>
			<g>
				<line class="st3" x1="158.5" y1="134.7" x2="157.5" y2="134.7"/>
				<line class="st4" x1="155.5" y1="134.7" x2="85.8" y2="134.7"/>
				<polyline class="st3" points="84.8,134.7 83.8,134.7 83.8,135.7 				"/>
				<line class="st5" x1="83.8" y1="137.8" x2="83.8" y2="185.5"/>
				<polyline class="st3" points="83.8,186.5 83.8,187.5 84.8,187.5 				"/>
				<line class="st4" x1="86.8" y1="187.5" x2="156.5" y2="187.5"/>
				<polyline class="st3" points="157.5,187.5 158.5,187.5 158.5,186.5 				"/>
				<line class="st5" x1="158.5" y1="184.5" x2="158.5" y2="136.8"/>
				<line class="st3" x1="158.5" y1="135.7" x2="158.5" y2="134.7"/>
			</g>
		</g>
		<g>
			<g>
				<line class="st3" x1="233.2" y1="82" x2="232.2" y2="82"/>
				<line class="st6" x1="230.2" y1="82" x2="160.4" y2="82"/>
				<polyline class="st3" points="159.5,82 158.5,82 158.5,83 				"/>
				<line class="st5" x1="158.5" y1="85" x2="158.5" y2="132.7"/>
				<polyline class="st3" points="158.5,133.7 158.5,134.7 159.5,134.7 				"/>
				<line class="st6" x1="161.4" y1="134.7" x2="231.2" y2="134.7"/>
				<polyline class="st3" points="232.2,134.7 233.2,134.7 233.2,133.7 				"/>
				<line class="st5" x1="233.2" y1="131.7" x2="233.2" y2="84"/>
				<line class="st3" x1="233.2" y1="83" x2="233.2" y2="82"/>
			</g>
		</g>
		<g>
			<g>
				<line class="st3" x1="233.2" y1="134.7" x2="232.2" y2="134.7"/>
				<line class="st6" x1="230.2" y1="134.7" x2="160.4" y2="134.7"/>
				<polyline class="st3" points="159.5,134.7 158.5,134.7 158.5,135.7 				"/>
				<line class="st5" x1="158.5" y1="137.8" x2="158.5" y2="185.5"/>
				<polyline class="st3" points="158.5,186.5 158.5,187.5 159.5,187.5 				"/>
				<line class="st6" x1="161.4" y1="187.5" x2="231.2" y2="187.5"/>
				<polyline class="st3" points="232.2,187.5 233.2,187.5 233.2,186.5 				"/>
				<line class="st5" x1="233.2" y1="184.5" x2="233.2" y2="136.8"/>
				<line class="st3" x1="233.2" y1="135.7" x2="233.2" y2="134.7"/>
			</g>
		</g>
		<g>
			<g>
				<line class="st3" x1="233.2" y1="187.5" x2="232.2" y2="187.5"/>
				<line class="st6" x1="230.2" y1="187.5" x2="160.4" y2="187.5"/>
				<polyline class="st3" points="159.5,187.5 158.5,187.5 158.5,188.5 				"/>
				<line class="st7" x1="158.5" y1="190.5" x2="158.5" y2="238.2"/>
				<polyline class="st3" points="158.5,239.3 158.5,240.3 159.5,240.3 				"/>
				<line class="st6" x1="161.4" y1="240.3" x2="231.2" y2="240.3"/>
				<polyline class="st3" points="232.2,240.3 233.2,240.3 233.2,239.3 				"/>
				<line class="st7" x1="233.2" y1="237.2" x2="233.2" y2="189.5"/>
				<line class="st3" x1="233.2" y1="188.5" x2="233.2" y2="187.5"/>
			</g>
		</g>
		<g>
			<g>
				<line class="st3" x1="233.2" y1="240.3" x2="232.2" y2="240.3"/>
				<line class="st6" x1="230.2" y1="240.3" x2="160.4" y2="240.3"/>
				<polyline class="st3" points="159.5,240.3 158.5,240.3 158.5,241.3 				"/>
				<line class="st5" x1="158.5" y1="243.3" x2="158.5" y2="291"/>
				<polyline class="st3" points="158.5,292 158.5,293 159.5,293 				"/>
				<line class="st6" x1="161.4" y1="293" x2="231.2" y2="293"/>
				<polyline class="st3" points="232.2,293 233.2,293 233.2,292 				"/>
				<line class="st5" x1="233.2" y1="290" x2="233.2" y2="242.3"/>
				<line class="st3" x1="233.2" y1="241.3" x2="233.2" y2="240.3"/>
			</g>
		</g>
		<g>
			<g>
				<line class="st3" x1="233.2" y1="293" x2="232.2" y2="293"/>
				<line class="st6" x1="230.2" y1="293" x2="160.4" y2="293"/>
				<polyline class="st3" points="159.5,293 158.5,293 158.5,294 				"/>
				<line class="st5" x1="158.5" y1="296" x2="158.5" y2="343.7"/>
				<polyline class="st3" points="158.5,344.7 158.5,345.7 159.5,345.7 				"/>
				<line class="st6" x1="161.4" y1="345.7" x2="231.2" y2="345.7"/>
				<polyline class="st3" points="232.2,345.7 233.2,345.7 233.2,344.7 				"/>
				<line class="st5" x1="233.2" y1="342.7" x2="233.2" y2="295"/>
				<line class="st3" x1="233.2" y1="294" x2="233.2" y2="293"/>
			</g>
		</g>
		<g>
			<g>
				<line class="st3" x1="307.8" y1="82" x2="306.8" y2="82"/>
				<line class="st6" x1="304.9" y1="82" x2="235.1" y2="82"/>
				<polyline class="st3" points="234.2,82 233.2,82 233.2,83 				"/>
				<line class="st5" x1="233.2" y1="85" x2="233.2" y2="132.7"/>
				<polyline class="st3" points="233.2,133.7 233.2,134.7 234.2,134.7 				"/>
				<line class="st6" x1="236.1" y1="134.7" x2="305.9" y2="134.7"/>
				<polyline class="st3" points="306.8,134.7 307.8,134.7 307.8,133.7 				"/>
				<line class="st5" x1="307.8" y1="131.7" x2="307.8" y2="84"/>
				<line class="st3" x1="307.8" y1="83" x2="307.8" y2="82"/>
			</g>
		</g>
		<g>
			<g>
				<line class="st3" x1="307.8" y1="134.7" x2="306.8" y2="134.7"/>
				<line class="st6" x1="304.9" y1="134.7" x2="235.1" y2="134.7"/>
				<polyline class="st3" points="234.2,134.7 233.2,134.7 233.2,135.7 				"/>
				<line class="st5" x1="233.2" y1="137.8" x2="233.2" y2="185.5"/>
				<polyline class="st3" points="233.2,186.5 233.2,187.5 234.2,187.5 				"/>
				<line class="st6" x1="236.1" y1="187.5" x2="305.9" y2="187.5"/>
				<polyline class="st3" points="306.8,187.5 307.8,187.5 307.8,186.5 				"/>
				<line class="st5" x1="307.8" y1="184.5" x2="307.8" y2="136.8"/>
				<line class="st3" x1="307.8" y1="135.7" x2="307.8" y2="134.7"/>
			</g>
		</g>
		<g>
			<g>
				<line class="st3" x1="382.5" y1="29.3" x2="381.5" y2="29.3"/>
				<line class="st4" x1="379.5" y1="29.3" x2="309.8" y2="29.3"/>
				<polyline class="st3" points="308.8,29.3 307.8,29.3 307.8,30.3 				"/>
				<line class="st5" x1="307.8" y1="32.3" x2="307.8" y2="80"/>
				<polyline class="st3" points="307.8,81 307.8,82 308.8,82 				"/>
				<line class="st4" x1="310.8" y1="82" x2="380.5" y2="82"/>
				<polyline class="st3" points="381.5,82 382.5,82 382.5,81 				"/>
				<line class="st5" x1="382.5" y1="79" x2="382.5" y2="31.3"/>
				<line class="st3" x1="382.5" y1="30.3" x2="382.5" y2="29.3"/>
			</g>
		</g>
		<g>
			<g>
				<line class="st3" x1="382.5" y1="82" x2="381.5" y2="82"/>
				<line class="st4" x1="379.5" y1="82" x2="309.8" y2="82"/>
				<polyline class="st3" points="308.8,82 307.8,82 307.8,83 				"/>
				<line class="st5" x1="307.8" y1="85" x2="307.8" y2="132.7"/>
				<polyline class="st3" points="307.8,133.7 307.8,134.7 308.8,134.7 				"/>
				<line class="st4" x1="310.8" y1="134.7" x2="380.5" y2="134.7"/>
				<polyline class="st3" points="381.5,134.7 382.5,134.7 382.5,133.7 				"/>
				<line class="st5" x1="382.5" y1="131.7" x2="382.5" y2="84"/>
				<line class="st3" x1="382.5" y1="83" x2="382.5" y2="82"/>
			</g>
		</g>
		<g>
			<g>
				<line class="st3" x1="382.5" y1="134.7" x2="381.5" y2="134.7"/>
				<line class="st4" x1="379.5" y1="134.7" x2="309.8" y2="134.7"/>
				<polyline class="st3" points="308.8,134.7 307.8,134.7 307.8,135.7 				"/>
				<line class="st7" x1="307.8" y1="137.8" x2="307.8" y2="185.5"/>
				<polyline class="st3" points="307.8,186.5 307.8,187.5 308.8,187.5 				"/>
				<line class="st4" x1="310.8" y1="187.5" x2="380.5" y2="187.5"/>
				<polyline class="st3" points="381.5,187.5 382.5,187.5 382.5,186.5 				"/>
				<line class="st7" x1="382.5" y1="184.5" x2="382.5" y2="136.8"/>
				<line class="st3" x1="382.5" y1="135.7" x2="382.5" y2="134.7"/>
			</g>
		</g>
		<g>
			<g>
				<line class="st3" x1="382.5" y1="187.5" x2="381.5" y2="187.5"/>
				<line class="st4" x1="379.5" y1="187.5" x2="309.8" y2="187.5"/>
				<polyline class="st3" points="308.8,187.5 307.8,187.5 307.8,188.5 				"/>
				<line class="st5" x1="307.8" y1="190.5" x2="307.8" y2="238.2"/>
				<polyline class="st3" points="307.8,239.3 307.8,240.3 308.8,240.3 				"/>
				<line class="st4" x1="310.8" y1="240.3" x2="380.5" y2="240.3"/>
				<polyline class="st3" points="381.5,240.3 382.5,240.3 382.5,239.3 				"/>
				<line class="st5" x1="382.5" y1="237.2" x2="382.5" y2="189.5"/>
				<line class="st3" x1="382.5" y1="188.5" x2="382.5" y2="187.5"/>
			</g>
		</g>
		<g>
			<g>
				<line class="st3" x1="457.2" y1="82" x2="456.2" y2="82"/>
				<line class="st6" x1="454.2" y1="82" x2="384.5" y2="82"/>
				<polyline class="st3" points="383.5,82 382.5,82 382.5,83 				"/>
				<line class="st5" x1="382.5" y1="85" x2="382.5" y2="132.7"/>
				<polyline class="st3" points="382.5,133.7 382.5,134.7 383.5,134.7 				"/>
				<line class="st6" x1="385.5" y1="134.7" x2="455.2" y2="134.7"/>
				<polyline class="st3" points="456.2,134.7 457.2,134.7 457.2,133.7 				"/>
				<line class="st5" x1="457.2" y1="131.7" x2="457.2" y2="84"/>
				<line class="st3" x1="457.2" y1="83" x2="457.2" y2="82"/>
			</g>
		</g>
		<g>
			<g>
				<line class="st3" x1="457.2" y1="187.5" x2="456.2" y2="187.5"/>
				<line class="st6" x1="454.2" y1="187.5" x2="384.5" y2="187.5"/>
				<polyline class="st3" points="383.5,187.5 382.5,187.5 382.5,188.5 				"/>
				<line class="st5" x1="382.5" y1="190.5" x2="382.5" y2="238.2"/>
				<polyline class="st3" points="382.5,239.3 382.5,240.3 383.5,240.3 				"/>
				<line class="st6" x1="385.5" y1="240.3" x2="455.2" y2="240.3"/>
				<polyline class="st3" points="456.2,240.3 457.2,240.3 457.2,239.3 				"/>
				<line class="st5" x1="457.2" y1="237.2" x2="457.2" y2="189.5"/>
				<line class="st3" x1="457.2" y1="188.5" x2="457.2" y2="187.5"/>
			</g>
		</g>
		<g>
			<g>
				<line class="st3" x1="531.9" y1="187.5" x2="530.9" y2="187.5"/>
				<line class="st4" x1="528.9" y1="187.5" x2="459.2" y2="187.5"/>
				<polyline class="st3" points="458.2,187.5 457.2,187.5 457.2,188.5 				"/>
				<line class="st5" x1="457.2" y1="190.5" x2="457.2" y2="238.2"/>
				<polyline class="st3" points="457.2,239.3 457.2,240.3 458.2,240.3 				"/>
				<line class="st4" x1="460.2" y1="240.3" x2="529.9" y2="240.3"/>
				<polyline class="st3" points="530.9,240.3 531.9,240.3 531.9,239.3 				"/>
				<line class="st5" x1="531.9" y1="237.2" x2="531.9" y2="189.5"/>
				<line class="st3" x1="531.9" y1="188.5" x2="531.9" y2="187.5"/>
			</g>
		</g>
		<g>
			<g>
				<line class="st3" x1="307.8" y1="29.3" x2="306.8" y2="29.3"/>
				<line class="st6" x1="304.9" y1="29.3" x2="235.1" y2="29.3"/>
				<polyline class="st3" points="234.2,29.3 233.2,29.3 233.2,30.3 				"/>
				<line class="st5" x1="233.2" y1="32.3" x2="233.2" y2="80"/>
				<polyline class="st3" points="233.2,81 233.2,82 234.2,82 				"/>
				<line class="st6" x1="236.1" y1="82" x2="305.9" y2="82"/>
				<polyline class="st3" points="306.8,82 307.8,82 307.8,81 				"/>
				<line class="st5" x1="307.8" y1="79" x2="307.8" y2="31.3"/>
				<line class="st3" x1="307.8" y1="30.3" x2="307.8" y2="29.3"/>
			</g>
		</g>
	</g>
</g>
<g id="SITE">
	<polyline class="st8" points="213.2,120.9 219.1,120.9 219.1,116.5 213.2,116.5 213.2,104.6 207.3,104.6 207.3,123.9 213.2,123.9 
		213.2,120.9 	"/>
</g>
<g id="CATALOG_ENTRIES">
	<path class="st8" d="M158.5,182.3c0-0.8-0.7-1.5-1.5-1.5c-0.8,0-1.5,0.7-1.5,1.5c0,0.8,0.7,1.5,1.5,1.5
		C157.9,183.8,158.5,183.1,158.5,182.3"/>
	<path class="st8" d="M153.3,132.7c0-0.8-0.7-1.5-1.5-1.5c-0.8,0-1.5,0.7-1.5,1.5c0,0.8,0.7,1.5,1.5,1.5
		C152.7,134.2,153.3,133.5,153.3,132.7"/>
	<path class="st8" d="M371.6,178.6c0-0.8-0.7-1.5-1.5-1.5s-1.5,0.7-1.5,1.5c0,0.8,0.7,1.5,1.5,1.5S371.6,179.4,371.6,178.6"/>
	<path class="st8" d="M178.3,242.3c0-0.8-0.7-1.5-1.5-1.5c-0.8,0-1.5,0.7-1.5,1.5c0,0.8,0.7,1.5,1.5,1.5
		C177.7,243.7,178.3,243.1,178.3,242.3"/>
	<path class="st8" d="M129.1,104.6c0-0.8-0.7-1.5-1.5-1.5c-0.8,0-1.5,0.7-1.5,1.5c0,0.8,0.7,1.5,1.5,1.5
		C128.4,106.1,129.1,105.4,129.1,104.6"/>
	<path class="st8" d="M262.2,132.7c0-0.8-0.7-1.5-1.5-1.5c-0.8,0-1.5,0.7-1.5,1.5c0,0.8,0.7,1.5,1.5,1.5
		C261.6,134.2,262.2,133.5,262.2,132.7"/>
	<path class="st8" d="M158.5,104.6c0-0.8-0.7-1.5-1.5-1.5c-0.8,0-1.5,0.7-1.5,1.5c0,0.8,0.7,1.5,1.5,1.5
		C157.9,106.1,158.5,105.4,158.5,104.6"/>
	<path class="st8" d="M148.2,56.5c0-0.8-0.7-1.5-1.5-1.5c-0.8,0-1.5,0.7-1.5,1.5c0,0.8,0.7,1.5,1.5,1.5
		C147.6,58,148.2,57.4,148.2,56.5"/>
	<path class="st8" d="M99.3,77c0-0.8-0.7-1.5-1.5-1.5c-0.8,0-1.5,0.7-1.5,1.5c0,0.8,0.7,1.5,1.5,1.5C98.7,78.5,99.3,77.8,99.3,77"/>
	<path class="st8" d="M173,95.7c0-0.8-0.7-1.5-1.5-1.5c-0.8,0-1.5,0.7-1.5,1.5c0,0.8,0.7,1.5,1.5,1.5C172.3,97.2,173,96.5,173,95.7"
		/>
	<path class="st8" d="M362.8,163.8c0-0.8-0.7-1.5-1.5-1.5c-0.8,0-1.5,0.7-1.5,1.5c0,0.8,0.7,1.5,1.5,1.5
		C362.1,165.3,362.8,164.6,362.8,163.8"/>
	<path class="st8" d="M413.7,115.3c0-0.8-0.7-1.5-1.5-1.5s-1.5,0.7-1.5,1.5c0,0.8,0.7,1.5,1.5,1.5S413.7,116.1,413.7,115.3"/>
	<path class="st8" d="M478.7,210.8c0-0.8-0.7-1.5-1.5-1.5c-0.8,0-1.5,0.7-1.5,1.5c0,0.8,0.7,1.5,1.5,1.5
		C478,212.3,478.7,211.7,478.7,210.8"/>
	<path class="st8" d="M205.2,104.6c0-0.8-0.7-1.5-1.5-1.5c-0.8,0-1.5,0.7-1.5,1.5c0,0.8,0.7,1.5,1.5,1.5
		C204.6,106.1,205.2,105.4,205.2,104.6"/>
	<path class="st8" d="M273.2,145.6c0-0.8-0.7-1.5-1.5-1.5c-0.8,0-1.5,0.7-1.5,1.5c0,0.8,0.7,1.5,1.5,1.5
		C272.5,147.1,273.2,146.4,273.2,145.6"/>
	<path class="st8" d="M154.2,67.6c0-0.8-0.7-1.5-1.5-1.5c-0.8,0-1.5,0.7-1.5,1.5c0,0.8,0.7,1.5,1.5,1.5
		C153.5,69.1,154.2,68.4,154.2,67.6"/>
	<path class="st8" d="M226.6,89c0-0.8-0.7-1.5-1.5-1.5c-0.8,0-1.5,0.7-1.5,1.5c0,0.8,0.7,1.5,1.5,1.5
		C225.9,90.5,226.6,89.9,226.6,89"/>
	<path class="st8" d="M241.4,67.6c0-0.8-0.7-1.5-1.5-1.5c-0.8,0-1.5,0.7-1.5,1.5c0,0.8,0.7,1.5,1.5,1.5
		C240.7,69.1,241.4,68.4,241.4,67.6"/>
	<path class="st8" d="M334.7,100.2c0-0.8-0.7-1.5-1.5-1.5c-0.8,0-1.5,0.7-1.5,1.5c0,0.8,0.7,1.5,1.5,1.5
		C334,101.6,334.7,101,334.7,100.2"/>
	<path class="st8" d="M246.5,149.8c0-0.8-0.7-1.5-1.5-1.5c-0.8,0-1.5,0.7-1.5,1.5c0,0.8,0.7,1.5,1.5,1.5
		C245.9,151.3,246.5,150.6,246.5,149.8"/>
	<path class="st8" d="M286.3,172.7c0-0.8-0.7-1.5-1.5-1.5s-1.5,0.7-1.5,1.5c0,0.8,0.7,1.5,1.5,1.5S286.3,173.5,286.3,172.7"/>
	<path class="st8" d="M325,233.4c0-0.8-0.7-1.5-1.5-1.5c-0.8,0-1.5,0.7-1.5,1.5c0,0.8,0.7,1.5,1.5,1.5
		C324.3,234.9,325,234.2,325,233.4"/>
	<path class="st8" d="M178.3,302.9c0-0.8-0.7-1.5-1.5-1.5c-0.8,0-1.5,0.7-1.5,1.5c0,0.8,0.7,1.5,1.5,1.5
		C177.7,304.4,178.3,303.7,178.3,302.9"/>
	<path class="st8" d="M173,104.6c0-0.8-0.7-1.5-1.5-1.5c-0.8,0-1.5,0.7-1.5,1.5c0,0.8,0.7,1.5,1.5,1.5
		C172.3,106.1,173,105.4,173,104.6"/>
	<path class="st8" d="M190.9,104.6c0-0.8-0.7-1.5-1.5-1.5s-1.5,0.7-1.5,1.5c0,0.8,0.7,1.5,1.5,1.5S190.9,105.4,190.9,104.6"/>
	<path class="st8" d="M362.8,35c0-0.8-0.7-1.5-1.5-1.5c-0.8,0-1.5,0.7-1.5,1.5c0,0.8,0.7,1.5,1.5,1.5
		C362.1,36.5,362.8,35.9,362.8,35"/>
</g>
<g id="UNDERLAY">
	<g id="XMLID_00000150806146345959280300000014439660324477021335_">
		<g>
			<path class="st9" d="M547.2,75.9c1.1,6.5,0.4,11.8-2.2,15.7c-2.6,3.9-6.7,7-12.4,9.3l-10.8,4.3l3.4,19.9l-10.6,4.2l-9.5-55.4
				l22.2-8.9c5.1-2,9.5-2.2,13-0.6C543.8,66.1,546.1,69.9,547.2,75.9z M535.6,87.3c1.2-1.9,1.5-4.3,1-7.1c-0.5-2.9-1.5-4.7-3.1-5.3
				c-1.6-0.7-3.7-0.5-6.2,0.5l-9.9,4l2.8,16.3l9.9-4C532.6,90.7,534.4,89.2,535.6,87.3z"/>
			<path class="st9" d="M480.3,83.8l27.6,48.2l-11.6,4.6l-5.3-10.1l-18.8,7.5l-1.6,12.8l-11.1,4.4l8.7-62.6L480.3,83.8z
				 M486.4,118.2l-10.1-19.2l-2.8,24.4L486.4,118.2z"/>
			<path class="st9" d="M443.7,98.4l9.5,55.4l-9.9,4l-6.5-37.4c-0.2-1.1-0.4-2.6-0.7-4.5c-0.3-2-0.6-3.4-0.8-4.5l-1.7,50.3
				l-10.4,4.1L405.7,123c0.2,1,0.5,2.5,0.8,4.5c0.4,1.9,0.6,3.4,0.8,4.5l6.5,37.4l-9.9,4l-9.5-55.3l15.5-6.2l16.7,39.8l1.8-47.2
				L443.7,98.4z"/>
			<path class="st9" d="M375.7,183.2l0.3,1.4l-11.7,4.7c-0.6-1.1-1-2-1.2-2.7c-0.5-1.4-1-3-1.3-4.6l-1-5.1c-0.6-3.5-1.6-5.6-3-6.3
				c-1.4-0.7-3.6-0.5-6.7,0.8l-11,4.4l3.8,21.7l-10.4,4.2l-9.5-55.4l25-10c3.6-1.3,6.4-2,8.5-1.8c2.1,0.1,3.9,0.7,5.6,1.9
				c1.4,1,2.5,2.2,3.4,3.6c0.9,1.4,1.6,3.2,2,5.4c0.4,2.6,0.3,5.5-0.5,8.5c-0.8,3-2.5,5.6-5.1,7.8c2.5,0.1,4.4,0.9,5.8,2.4
				s2.3,4.2,3,8.1l0.6,3.7c0.4,2.5,0.8,4.2,1.2,5C373.7,182.1,374.6,182.9,375.7,183.2z M355.8,158.6c2-1.9,2.7-4.4,2.1-7.5
				c-0.6-3.3-2-5.2-4.2-5.5c-1.3-0.2-3.1,0.2-5.4,1.1l-12.4,4.9l2.5,14.9l12.1-4.8C353,160.7,354.7,159.7,355.8,158.6z"/>
			<polygon class="st9" points="323.1,195 324.8,204.9 286.1,220.4 276.6,165 314,150.1 315.7,159.9 288.7,170.7 290.7,182.4 
				315.5,172.5 317.1,182.2 292.4,192 294.8,206.3 			"/>
			<polygon class="st9" points="276.7,213.5 278.4,223.4 242.5,237.8 233,182.4 243.6,178.1 251.4,223.6 			"/>
			<path class="st9" d="M231.8,224.7c0.9,5.1-0.2,10-3.2,14.7s-7.8,8.4-14.3,11c-6.7,2.7-12.2,3.1-16.5,1.3c-4.4-1.8-7-5.5-8-11.3
				l10.2-4.1c0.8,2.4,1.7,4,2.9,4.9c2.1,1.6,5.3,1.5,9.5-0.1c2.5-1,4.5-2.1,6-3.3c2.8-2.3,3.9-5.1,3.4-8.2c-0.3-1.8-1.3-2.9-2.9-3.4
				c-1.6-0.4-4.1-0.3-7.4,0.2l-5.7,0.9c-5.5,0.8-9.4,0.9-11.7,0.1c-3.9-1.2-6.3-4.5-7.2-9.9c-0.9-5,0.1-9.7,2.9-14.4
				c2.8-4.6,7.4-8.2,13.8-10.8c5.4-2.1,10.2-2.4,14.5-0.8c4.3,1.6,7.1,5.3,8.3,11.1l-10.2,4.1c-0.7-3.3-2.5-5.1-5.2-5.5
				c-1.8-0.3-4,0.1-6.4,1.1c-2.8,1.1-4.8,2.6-6.3,4.4c-1.4,1.9-2,3.9-1.6,6c0.3,2,1.4,3.1,3.2,3.5c1.1,0.2,3.5,0.1,7-0.4l9.2-1.2
				c4-0.5,7.1-0.4,9.4,0.5C228.8,216.6,230.9,219.8,231.8,224.7z"/>
			<path class="st9" d="M184.5,243.6c0.9,5.1-0.2,10-3.2,14.7c-3,4.8-7.8,8.4-14.3,11c-6.6,2.6-12.2,3.1-16.5,1.3
				c-4.4-1.8-7.1-5.5-8-11.3l10.2-4.1c0.8,2.4,1.7,4,2.9,4.9c2.1,1.6,5.3,1.5,9.5-0.1c2.5-1,4.5-2.1,6-3.4c2.8-2.3,3.9-5.1,3.4-8.2
				c-0.3-1.8-1.3-3-2.9-3.4c-1.6-0.4-4.1-0.3-7.4,0.2l-5.7,0.8c-5.5,0.8-9.4,0.9-11.7,0.1c-3.9-1.2-6.3-4.5-7.2-9.9
				c-0.9-5,0.1-9.7,2.9-14.4c2.8-4.6,7.4-8.2,13.8-10.8c5.4-2.1,10.2-2.4,14.5-0.8c4.3,1.6,7.1,5.3,8.3,11.1l-10.2,4.1
				c-0.7-3.3-2.5-5.1-5.2-5.5c-1.8-0.3-4,0.1-6.4,1.1c-2.8,1.1-4.8,2.6-6.3,4.4s-2,3.9-1.6,6c0.3,2,1.4,3.1,3.2,3.5
				c1.1,0.2,3.5,0.1,7-0.4l9.2-1.2c4-0.5,7.1-0.3,9.4,0.6C181.4,235.5,183.6,238.7,184.5,243.6z"/>
			<path class="st9" d="M113.8,229.9l27.6,48.1l-11.6,4.6l-5.2-10.1l-18.8,7.5l-1.6,12.8l-11.2,4.4l8.7-62.6L113.8,229.9z
				 M120,264.2L109.8,245l-2.8,24.4L120,264.2z"/>
			<polygon class="st9" points="84.5,265.7 86.2,275.3 63.8,284.2 67.8,307.4 57.2,311.6 47.7,256.4 83.8,241.9 85.5,251.7 
				59.9,261.9 62.1,274.6 			"/>
		</g>
		<g>
		</g>
	</g>
</g>
<g id="MIDSEMLINK">
	<g id="Layer_1">
		<g id="XMLID_00000181045681078408098790000001589334438658604701_">
			<g>
				<path class="st8" d="M535.9,254.6c16-1.2-22.4,33.2-21.8,36c55.5,37.2,43.7,32.5-12.6,29.4c7.5,43.1,12.5,54.8-22.7,13.9
					c-2.9,0.1-29.9,50.4-32.8,34.4l2.9-45l-26.1-2.4c-2.7-0.1-3.9-3.8-1.8-5.5l18.2-16.1c-1.1-2-50-21.9-46.4-26.3
					c-1.3-5.4,55.7-0.3,57.4-1.7c-6.5-44.5-3.5-40.3,24.3-10.4c2.8-0.5,23.5-46.4,27.3-31.2C500.7,276.2,490.9,272.2,535.9,254.6z"
					/>
			</g>
			<g>
			</g>
		</g>
		<g>
			<path class="st9" d="M472.7,346.2h4.2l1.9,13.4h0l7.6-13.4h4.4l-3.6,17.6h-3l3.1-14.1h0l-8,14.1h-2.4l-2.2-14.1h-0.1l-2.7,14.1
				h-3L472.7,346.2z"/>
			<path class="st9" d="M494.6,346.2h3.1l-3.7,17.6h-3.1L494.6,346.2z"/>
			<path class="st9" d="M501.4,346.2h6.5c2.3,0,4,0.6,5.1,1.9c1.2,1.2,1.8,3.1,1.8,5.5c0,0.5-0.1,1.1-0.2,1.8
				c-0.1,0.7-0.3,1.3-0.5,2c-0.2,0.7-0.5,1.3-0.9,1.9c-0.3,0.6-0.8,1.2-1.2,1.6c-0.5,0.5-1,1-1.5,1.3c-0.5,0.4-1,0.7-1.7,0.9
				c-0.6,0.2-1.3,0.4-2.1,0.5c-0.8,0.1-1.7,0.2-2.8,0.2h-6.2L501.4,346.2z M501.3,361.3h3.8c0.9,0,1.7-0.2,2.3-0.5
				c0.7-0.3,1.2-0.7,1.7-1.2c0.5-0.5,0.9-1,1.2-1.6c0.3-0.6,0.6-1.2,0.8-1.7c0.2-0.6,0.3-1.1,0.4-1.6c0.1-0.5,0.1-0.9,0.1-1.2
				c0-1.5-0.3-2.7-1-3.6c-0.7-0.8-1.6-1.3-2.9-1.3H504L501.3,361.3z"/>
			<path class="st9" d="M518.8,358c-0.1,1.4,0.3,2.3,1,2.9c0.7,0.6,1.8,0.8,3,0.8c0.4,0,0.8-0.1,1.3-0.1c0.5-0.1,0.9-0.3,1.3-0.5
				c0.4-0.2,0.7-0.5,0.9-0.9c0.3-0.4,0.4-0.8,0.4-1.3c0-0.5-0.1-0.9-0.4-1.2c-0.2-0.3-0.6-0.6-0.9-0.8c-0.4-0.2-0.8-0.4-1.3-0.6
				c-0.5-0.2-1-0.3-1.6-0.5c-0.4-0.1-0.9-0.2-1.4-0.4c-0.5-0.2-1.1-0.4-1.6-0.8c-0.5-0.3-0.9-0.8-1.3-1.3c-0.4-0.5-0.5-1.2-0.5-2.1
				c0-0.8,0.1-1.5,0.4-2.2c0.3-0.7,0.7-1.3,1.3-1.7c0.6-0.5,1.2-0.9,2.1-1.1c0.8-0.3,1.7-0.4,2.8-0.4c0.9,0,1.8,0.1,2.6,0.3
				c0.8,0.2,1.5,0.5,2.1,1s1.1,1,1.4,1.7c0.3,0.7,0.5,1.6,0.4,2.6h-3c0-1.1-0.3-1.9-0.9-2.4c-0.6-0.5-1.5-0.7-2.7-0.7
				c-0.2,0-0.5,0-0.9,0.1c-0.4,0-0.8,0.2-1.1,0.3c-0.4,0.2-0.7,0.4-1,0.8c-0.3,0.3-0.4,0.8-0.4,1.4c0,0.4,0.1,0.8,0.3,1.1
				c0.2,0.3,0.5,0.5,0.8,0.7c0.3,0.2,0.7,0.3,1.2,0.5c0.4,0.1,0.9,0.3,1.4,0.4c0.6,0.2,1.3,0.3,1.9,0.5c0.6,0.2,1.2,0.5,1.7,0.8
				c0.5,0.4,0.9,0.8,1.3,1.4c0.3,0.6,0.5,1.3,0.5,2.2c0,0.7-0.1,1.4-0.4,2c-0.3,0.7-0.7,1.3-1.3,1.8c-0.6,0.5-1.3,1-2.3,1.3
				s-2.1,0.5-3.4,0.5c-1,0-2-0.1-2.8-0.4c-0.8-0.2-1.5-0.6-2.1-1.1c-0.6-0.5-1-1.1-1.3-1.9c-0.3-0.8-0.4-1.7-0.4-2.8H518.8z"/>
			<path class="st9" d="M535.2,346.2H548l-0.5,2.7h-9.8l-1,4.6h9.1l-0.5,2.5h-9.1l-1.1,5.2h9.9l-0.5,2.7h-12.9L535.2,346.2z"/>
			<path class="st9" d="M550.8,346.2h4.2l1.9,13.4h0l7.6-13.4h4.4l-3.6,17.6h-3l3.1-14.1h0l-8,14.1H555l-2.2-14.1h-0.1l-2.7,14.1h-3
				L550.8,346.2z"/>
		</g>
	</g>
	<g id="MIDSEM">
	</g>
	<g id="MID">
		<path class="st9" d="M435,276.7c-0.7-1-0.5-2.4,0.5-3.1l18-13.5c0.7-0.5,1.6-0.6,2.4-0.2c0.8,0.4,1.2,1.2,1.2,2v31.5
			c0,1.2-1,2.2-2.2,2.2c-1.2,0-2.2-1-2.2-2.2v-27l-14.4,10.8C437.2,277.9,435.8,277.7,435,276.7L435,276.7z M514.7,255.7
			c-0.4-0.4-1-0.7-1.6-0.7c-0.6,0-1.2,0.2-1.6,0.7l-76.4,85.4l0,0c-0.4,0.4-0.7,1-0.7,1.6s0.2,1.2,0.7,1.6c0.4,0.5,1,0.8,1.7,0.8
			c0.6,0,1.2-0.3,1.7-0.8l76.4-85.4h0c0.4-0.4,0.6-1,0.6-1.6C515.5,256.6,515.2,256.1,514.7,255.7L514.7,255.7z M513.3,336h-13.1
			l11.8-13.8v0c1.8-2.1,2.7-4.8,2.6-7.5c-0.1-2.7-1.3-5.3-3.3-7.2c-2-1.9-4.6-2.9-7.4-2.9c-2.8,0-5.6,1.1-7.6,3.1
			c-2,2-3.1,4.7-3.1,7.6v0.5c0,1.2,1,2.2,2.2,2.2s2.2-1,2.2-2.2v-0.5c0-1.7,0.7-3.2,1.8-4.4c1.2-1.2,2.8-1.8,4.4-1.8
			c1.6,0,3.1,0.6,4.3,1.7c1.2,1.1,1.9,2.6,1.9,4.2c0.1,1.6-0.4,3.2-1.5,4.4l-15,17.4v0c-0.5,0.7-0.7,1.6-0.3,2.4
			c0.4,0.8,1.1,1.3,2,1.3h18c1.2,0,2.2-1,2.2-2.2C515.5,337,514.5,336,513.3,336L513.3,336z"/>
	</g>
</g>
</svg>
