<?xml version="1.0" encoding="utf-8"?>
<!-- Generator: Adobe Illustrator 26.2.1, SVG Export Plug-In . SVG Version: 6.00 Build 0)  -->
<svg version="1.1" id="CATALOG_ENTRIES" xmlns="http://www.w3.org/2000/svg" xmlns:xlink="http://www.w3.org/1999/xlink" x="0px"
	 y="0px" viewBox="0 0 595.3 375" style="enable-background:new 0 0 595.3 375;" xml:space="preserve">
<style type="text/css">
	.st0{fill:none;stroke:#FFFFFF;stroke-miterlimit:10;}
	.st1{fill:#00FF00;}
	.st2{fill:none;stroke:#FFFFFF;stroke-miterlimit:10;stroke-dasharray:1.9653,1.9653;}
	.st3{fill:none;stroke:#FFFFFF;stroke-miterlimit:10;stroke-dasharray:1.9424,1.9424;}
	.st4{fill:none;}
	.st5{fill:none;stroke:#FFFFFF;stroke-miterlimit:10;stroke-dasharray:1.9657,1.9657;}
	.st6{fill:none;stroke:#FFFFFF;stroke-miterlimit:10;stroke-dasharray:1.943,1.943;}
	.st7{fill:#FFFFFF;}
</style>
<a xlink:href="fassler.html" target="_blank" >
	<g>
		<g>
			<path class="st0" d="M47.7,256.4l36.2-14.4l1.7,9.7l-25.6,10.2l2.2,12.7l22.4-8.9l1.7,9.6l-22.4,8.9l4,23.2l-10.6,4.2L47.7,256.4
				z"/>
			<path class="st0" d="M101.8,234.7l12.1-4.8l27.6,48.2l-11.6,4.6l-5.3-10.1l-18.8,7.5l-1.6,12.8l-11.1,4.4L101.8,234.7z
				 M107,269.4l13-5.2L109.8,245L107,269.4z"/>
			<path class="st0" d="M152.6,255.3c0.8,2.4,1.7,4,2.9,4.9c2.1,1.6,5.3,1.5,9.5-0.1c2.5-1,4.5-2.1,6-3.3c2.8-2.3,3.9-5.1,3.4-8.2
				c-0.3-1.8-1.3-3-2.9-3.4c-1.6-0.4-4.1-0.3-7.4,0.2l-5.6,0.8c-5.5,0.8-9.4,0.9-11.7,0.1c-3.9-1.2-6.3-4.5-7.2-9.9
				c-0.9-5,0.1-9.7,2.9-14.3c2.8-4.6,7.4-8.2,13.8-10.8c5.4-2.1,10.2-2.4,14.6-0.8c4.3,1.6,7.1,5.3,8.3,11.1l-10.2,4.1
				c-0.7-3.3-2.5-5.1-5.2-5.5c-1.8-0.3-4,0.1-6.4,1.1c-2.7,1.1-4.8,2.6-6.3,4.4c-1.4,1.9-2,3.9-1.6,6c0.3,2,1.4,3.1,3.2,3.5
				c1.1,0.2,3.5,0.1,7-0.4l9.2-1.2c4-0.5,7.2-0.3,9.4,0.5c3.5,1.4,5.7,4.6,6.5,9.5c0.9,5.1-0.2,10-3.2,14.7c-3,4.8-7.7,8.4-14.3,11
				c-6.6,2.6-12.2,3.1-16.5,1.3c-4.4-1.8-7.1-5.5-8-11.3L152.6,255.3z"/>
			<path class="st0" d="M199.9,236.5c0.8,2.4,1.7,4,2.9,4.9c2.1,1.6,5.3,1.5,9.5-0.1c2.5-1,4.5-2.1,6-3.3c2.8-2.3,3.9-5.1,3.4-8.2
				c-0.3-1.8-1.3-3-2.9-3.4c-1.6-0.4-4.1-0.3-7.4,0.2l-5.6,0.8c-5.5,0.8-9.4,0.9-11.7,0.1c-3.9-1.2-6.3-4.5-7.2-9.9
				c-0.9-5,0.1-9.7,2.9-14.3c2.8-4.6,7.4-8.2,13.8-10.8c5.4-2.1,10.2-2.4,14.6-0.8c4.3,1.6,7.1,5.3,8.3,11.1l-10.2,4.1
				c-0.7-3.3-2.5-5.1-5.2-5.5c-1.8-0.3-4,0.1-6.4,1.1c-2.7,1.1-4.8,2.6-6.3,4.4c-1.4,1.9-2,3.9-1.6,6c0.3,2,1.4,3.1,3.2,3.5
				c1.1,0.2,3.5,0.1,7-0.4l9.2-1.2c4-0.5,7.1-0.3,9.4,0.5c3.5,1.4,5.7,4.5,6.5,9.5c0.9,5.1-0.2,10-3.2,14.7c-3,4.8-7.7,8.4-14.3,11
				c-6.6,2.6-12.2,3.1-16.5,1.3c-4.4-1.8-7.1-5.5-8-11.3L199.9,236.5z"/>
			<path class="st0" d="M233,182.4l10.7-4.3l7.8,45.4l25.3-10.1l1.7,9.9l-35.9,14.3L233,182.4z"/>
			<path class="st0" d="M315.7,159.9l-27,10.8l2,11.7l24.8-9.9l1.6,9.6l-24.8,9.9l2.5,14.2l28.3-11.3l1.7,9.9l-38.7,15.4l-9.5-55.4
				l37.4-14.9L315.7,159.9z"/>
			<path class="st0" d="M363,136.2c1.3,1,2.5,2.2,3.4,3.6s1.6,3.3,2,5.4c0.4,2.6,0.3,5.5-0.5,8.5c-0.8,3-2.5,5.6-5.1,7.8
				c2.5,0.1,4.4,0.9,5.7,2.4c1.3,1.5,2.3,4.2,3,8.1l0.6,3.7c0.4,2.5,0.8,4.2,1.2,5c0.5,1.3,1.4,2.1,2.5,2.4l0.3,1.4l-11.7,4.7
				c-0.5-1.1-1-2-1.2-2.7c-0.5-1.4-1-3-1.3-4.6l-1-5.1c-0.7-3.5-1.6-5.6-3-6.4c-1.3-0.7-3.6-0.5-6.7,0.8l-11,4.4l3.8,21.7l-10.4,4.2
				l-9.5-55.4l25-10c3.6-1.3,6.4-2,8.5-1.9C359.5,134.4,361.3,135.1,363,136.2z M335.9,151.6l2.6,14.9l12.1-4.8c2.4-1,4.1-2,5.2-3.1
				c1.9-1.9,2.7-4.4,2.1-7.5c-0.6-3.4-2-5.2-4.3-5.5c-1.3-0.2-3.1,0.2-5.4,1.1L335.9,151.6z"/>
			<path class="st0" d="M428.4,104.5l15.3-6.1l9.5,55.4l-9.9,4l-6.5-37.4c-0.2-1.1-0.4-2.6-0.7-4.6c-0.3-1.9-0.6-3.4-0.8-4.5
				l-1.7,50.3l-10.4,4.1L405.7,123c0.2,1,0.5,2.5,0.8,4.5c0.4,1.9,0.6,3.4,0.8,4.5l6.5,37.4l-9.9,4l-9.5-55.4l15.5-6.2l16.7,39.8
				L428.4,104.5z"/>
			<path class="st0" d="M468.2,88.6l12-4.8l27.6,48.2l-11.6,4.6l-5.3-10.1l-18.8,7.5l-1.6,12.8l-11.1,4.4L468.2,88.6z M473.5,123.3
				l13-5.2l-10.1-19.2L473.5,123.3z"/>
			<path class="st0" d="M532.6,100.8l-10.8,4.3l3.4,19.9l-10.6,4.2l-9.5-55.4l22.2-8.9c5.1-2,9.5-2.2,13-0.6
				c3.5,1.6,5.8,5.5,6.9,11.4c1.1,6.5,0.4,11.8-2.2,15.7C542.4,95.5,538.2,98.6,532.6,100.8z M527.2,75.4l-9.9,4l2.8,16.3l9.9-4
				c2.5-1,4.4-2.4,5.5-4.3c1.2-1.9,1.5-4.3,1-7.1c-0.5-2.9-1.5-4.7-3.1-5.3C531.8,74.2,529.8,74.4,527.2,75.4z"/>
		</g>
		<polyline class="st1" points="193,113.9 199.6,113.9 199.6,108.9 193,108.9 193,95.9 186.5,95.9 186.5,117.1 193,117.1 193,113.9 
					"/>
		<g>
			<g>
				<line class="st0" x1="132.5" y1="12.5" x2="131.5" y2="12.5"/>
				<line class="st2" x1="129.5" y1="12.5" x2="51.9" y2="12.5"/>
				<polyline class="st0" points="50.9,12.5 49.9,12.5 49.9,13.5 				"/>
				<line class="st3" x1="49.9" y1="15.4" x2="49.9" y2="68.9"/>
				<polyline class="st0" points="49.9,69.8 49.9,70.8 50.9,70.8 				"/>
				<line class="st2" x1="52.9" y1="70.8" x2="130.5" y2="70.8"/>
				<polyline class="st0" points="131.5,70.8 132.5,70.8 132.5,69.8 				"/>
				<line class="st3" x1="132.5" y1="67.9" x2="132.5" y2="14.5"/>
				<line class="st0" x1="132.5" y1="13.5" x2="132.5" y2="12.5"/>
			</g>
		</g>
		<g>
			<g>
				<line class="st0" x1="49.9" y1="70.8" x2="49.9" y2="71.8"/>
				<line class="st3" x1="49.9" y1="73.8" x2="49.9" y2="127.2"/>
				<polyline class="st0" points="49.9,128.2 49.9,129.2 50.9,129.2 				"/>
				<line class="st2" x1="52.9" y1="129.2" x2="130.5" y2="129.2"/>
				<polyline class="st0" points="131.5,129.2 132.5,129.2 132.5,128.2 				"/>
				<line class="st3" x1="132.5" y1="126.2" x2="132.5" y2="72.8"/>
				<line class="st0" x1="132.5" y1="71.8" x2="132.5" y2="70.8"/>
			</g>
		</g>
		<g>
			<path class="st4" d="M132.5,70.8"/>
		</g>
		<g>
			<g>
				<line class="st0" x1="49.9" y1="129.2" x2="49.9" y2="130.2"/>
				<line class="st3" x1="49.9" y1="132.1" x2="49.9" y2="185.5"/>
				<polyline class="st0" points="49.9,186.5 49.9,187.5 50.9,187.5 				"/>
				<line class="st2" x1="52.9" y1="187.5" x2="130.5" y2="187.5"/>
				<polyline class="st0" points="131.5,187.5 132.5,187.5 132.5,186.5 				"/>
				<line class="st3" x1="132.5" y1="184.5" x2="132.5" y2="131.1"/>
				<line class="st0" x1="132.5" y1="130.2" x2="132.5" y2="129.2"/>
			</g>
		</g>
		<g>
			<path class="st4" d="M132.5,129.2"/>
		</g>
		<g>
			<g>
				<line class="st0" x1="132.5" y1="129.2" x2="133.5" y2="129.2"/>
				<line class="st5" x1="135.4" y1="129.2" x2="213.1" y2="129.2"/>
				<polyline class="st0" points="214.1,129.2 215.1,129.2 215.1,128.2 				"/>
				<line class="st3" x1="215.1" y1="126.2" x2="215.1" y2="72.8"/>
				<line class="st0" x1="215.1" y1="71.8" x2="215.1" y2="70.8"/>
			</g>
		</g>
		<g>
			<g>
				<line class="st0" x1="215.1" y1="70.8" x2="214.1" y2="70.8"/>
				<line class="st5" x1="212.1" y1="70.8" x2="134.5" y2="70.8"/>
				<line class="st0" x1="133.5" y1="70.8" x2="132.5" y2="70.8"/>
			</g>
		</g>
		<g>
			<path class="st4" d="M215.1,129.2"/>
		</g>
		<g>
			<path class="st4" d="M215.1,129.2"/>
		</g>
		<g>
			<g>
				<line class="st0" x1="215.1" y1="187.5" x2="214.1" y2="187.5"/>
				<line class="st5" x1="212.1" y1="187.5" x2="134.5" y2="187.5"/>
				<polyline class="st0" points="133.5,187.5 132.5,187.5 132.5,188.5 				"/>
				<line class="st6" x1="132.5" y1="190.4" x2="132.5" y2="243.9"/>
				<polyline class="st0" points="132.5,244.8 132.5,245.8 133.5,245.8 				"/>
				<line class="st5" x1="135.4" y1="245.8" x2="213.1" y2="245.8"/>
				<polyline class="st0" points="214.1,245.8 215.1,245.8 215.1,244.8 				"/>
				<line class="st6" x1="215.1" y1="242.9" x2="215.1" y2="189.5"/>
				<line class="st0" x1="215.1" y1="188.5" x2="215.1" y2="187.5"/>
			</g>
		</g>
		<g>
			<g>
				<line class="st0" x1="132.5" y1="245.8" x2="132.5" y2="246.8"/>
				<line class="st3" x1="132.5" y1="248.8" x2="132.5" y2="302.2"/>
				<polyline class="st0" points="132.5,303.2 132.5,304.2 133.5,304.2 				"/>
				<line class="st5" x1="135.4" y1="304.2" x2="213.1" y2="304.2"/>
				<polyline class="st0" points="214.1,304.2 215.1,304.2 215.1,303.2 				"/>
				<line class="st3" x1="215.1" y1="301.2" x2="215.1" y2="247.8"/>
				<line class="st0" x1="215.1" y1="246.8" x2="215.1" y2="245.8"/>
			</g>
		</g>
		<g>
			<path class="st4" d="M215.1,245.8"/>
		</g>
		<g>
			<g>
				<line class="st0" x1="132.5" y1="304.2" x2="132.5" y2="305.2"/>
				<line class="st3" x1="132.5" y1="307.1" x2="132.5" y2="360.5"/>
				<polyline class="st0" points="132.5,361.5 132.5,362.5 133.5,362.5 				"/>
				<line class="st5" x1="135.4" y1="362.5" x2="213.1" y2="362.5"/>
				<polyline class="st0" points="214.1,362.5 215.1,362.5 215.1,361.5 				"/>
				<line class="st3" x1="215.1" y1="359.6" x2="215.1" y2="306.1"/>
				<line class="st0" x1="215.1" y1="305.2" x2="215.1" y2="304.2"/>
			</g>
		</g>
		<g>
			<path class="st4" d="M215.1,304.2"/>
		</g>
		<g>
			<g>
				<line class="st0" x1="215.1" y1="129.2" x2="216.1" y2="129.2"/>
				<line class="st5" x1="218" y1="129.2" x2="295.7" y2="129.2"/>
				<polyline class="st0" points="296.7,129.2 297.7,129.2 297.7,128.2 				"/>
				<line class="st3" x1="297.7" y1="126.2" x2="297.7" y2="72.8"/>
				<line class="st0" x1="297.7" y1="71.8" x2="297.7" y2="70.8"/>
			</g>
		</g>
		<g>
			<g>
				<line class="st0" x1="297.7" y1="70.8" x2="296.7" y2="70.8"/>
				<line class="st5" x1="294.7" y1="70.8" x2="217" y2="70.8"/>
				<line class="st0" x1="216.1" y1="70.8" x2="215.1" y2="70.8"/>
			</g>
		</g>
		<g>
			<g>
				<line class="st0" x1="215.1" y1="129.2" x2="215.1" y2="130.2"/>
				<line class="st3" x1="215.1" y1="132.1" x2="215.1" y2="185.5"/>
				<polyline class="st0" points="215.1,186.5 215.1,187.5 216.1,187.5 				"/>
				<line class="st5" x1="218" y1="187.5" x2="295.7" y2="187.5"/>
				<polyline class="st0" points="296.7,187.5 297.7,187.5 297.7,186.5 				"/>
				<line class="st3" x1="297.7" y1="184.5" x2="297.7" y2="131.1"/>
				<line class="st0" x1="297.7" y1="130.2" x2="297.7" y2="129.2"/>
			</g>
		</g>
		<g>
			<path class="st4" d="M297.7,129.2"/>
		</g>
		<g>
			<g>
				<line class="st0" x1="380.2" y1="12.5" x2="379.2" y2="12.5"/>
				<line class="st2" x1="377.3" y1="12.5" x2="299.6" y2="12.5"/>
				<polyline class="st0" points="298.7,12.5 297.7,12.5 297.7,13.5 				"/>
				<line class="st3" x1="297.7" y1="15.4" x2="297.7" y2="68.9"/>
				<polyline class="st0" points="297.7,69.8 297.7,70.8 298.7,70.8 				"/>
				<line class="st2" x1="300.6" y1="70.8" x2="378.3" y2="70.8"/>
				<polyline class="st0" points="379.2,70.8 380.2,70.8 380.2,69.8 				"/>
				<line class="st3" x1="380.2" y1="67.9" x2="380.2" y2="14.5"/>
				<line class="st0" x1="380.2" y1="13.5" x2="380.2" y2="12.5"/>
			</g>
		</g>
		<g>
			<path class="st4" d="M380.2,70.8"/>
		</g>
		<g>
			<g>
				<line class="st0" x1="380.2" y1="129.2" x2="379.2" y2="129.2"/>
				<line class="st2" x1="377.3" y1="129.2" x2="299.6" y2="129.2"/>
				<polyline class="st0" points="298.7,129.2 297.7,129.2 297.7,130.2 				"/>
				<line class="st6" x1="297.7" y1="132.1" x2="297.7" y2="185.5"/>
				<polyline class="st0" points="297.7,186.5 297.7,187.5 298.7,187.5 				"/>
				<line class="st2" x1="300.6" y1="187.5" x2="378.3" y2="187.5"/>
				<polyline class="st0" points="379.2,187.5 380.2,187.5 380.2,186.5 				"/>
				<line class="st6" x1="380.2" y1="184.6" x2="380.2" y2="131.1"/>
				<line class="st0" x1="380.2" y1="130.2" x2="380.2" y2="129.2"/>
			</g>
		</g>
		<g>
			<g>
				<line class="st0" x1="297.7" y1="187.5" x2="297.7" y2="188.5"/>
				<line class="st3" x1="297.7" y1="190.5" x2="297.7" y2="243.9"/>
				<polyline class="st0" points="297.7,244.8 297.7,245.8 298.7,245.8 				"/>
				<line class="st2" x1="300.6" y1="245.8" x2="378.3" y2="245.8"/>
				<polyline class="st0" points="379.2,245.8 380.2,245.8 380.2,244.8 				"/>
				<line class="st3" x1="380.2" y1="242.9" x2="380.2" y2="189.5"/>
				<line class="st0" x1="380.2" y1="188.5" x2="380.2" y2="187.5"/>
			</g>
		</g>
		<g>
			<path class="st4" d="M380.2,187.5"/>
		</g>
		<g>
			<g>
				<line class="st0" x1="462.8" y1="70.8" x2="461.8" y2="70.8"/>
				<line class="st5" x1="459.9" y1="70.8" x2="382.2" y2="70.8"/>
				<polyline class="st0" points="381.2,70.8 380.2,70.8 380.2,71.8 				"/>
				<line class="st3" x1="380.2" y1="73.8" x2="380.2" y2="127.2"/>
				<polyline class="st0" points="380.2,128.2 380.2,129.2 381.2,129.2 				"/>
				<line class="st5" x1="383.2" y1="129.2" x2="460.8" y2="129.2"/>
				<polyline class="st0" points="461.8,129.2 462.8,129.2 462.8,128.2 				"/>
				<line class="st3" x1="462.8" y1="126.2" x2="462.8" y2="72.8"/>
				<line class="st0" x1="462.8" y1="71.8" x2="462.8" y2="70.8"/>
			</g>
		</g>
		<g>
			<g>
				<line class="st0" x1="462.8" y1="187.5" x2="461.8" y2="187.5"/>
				<line class="st5" x1="459.9" y1="187.5" x2="382.2" y2="187.5"/>
				<polyline class="st0" points="381.2,187.5 380.2,187.5 380.2,188.5 				"/>
				<line class="st3" x1="380.2" y1="190.5" x2="380.2" y2="243.9"/>
				<polyline class="st0" points="380.2,244.8 380.2,245.8 381.2,245.8 				"/>
				<line class="st5" x1="383.2" y1="245.8" x2="460.8" y2="245.8"/>
				<polyline class="st0" points="461.8,245.8 462.8,245.8 462.8,244.8 				"/>
				<line class="st3" x1="462.8" y1="242.9" x2="462.8" y2="189.5"/>
				<line class="st0" x1="462.8" y1="188.5" x2="462.8" y2="187.5"/>
			</g>
		</g>
		<g>
			<g>
				<line class="st0" x1="462.8" y1="245.8" x2="463.8" y2="245.8"/>
				<line class="st2" x1="465.8" y1="245.8" x2="543.4" y2="245.8"/>
				<polyline class="st0" points="544.4,245.8 545.4,245.8 545.4,244.8 				"/>
				<line class="st3" x1="545.4" y1="242.9" x2="545.4" y2="189.5"/>
				<line class="st0" x1="545.4" y1="188.5" x2="545.4" y2="187.5"/>
			</g>
		</g>
		<g>
			<g>
				<line class="st0" x1="545.4" y1="187.5" x2="544.4" y2="187.5"/>
				<line class="st2" x1="542.4" y1="187.5" x2="464.8" y2="187.5"/>
				<line class="st0" x1="463.8" y1="187.5" x2="462.8" y2="187.5"/>
			</g>
		</g>
		<g>
			<path class="st4" d="M297.7,12.5"/>
		</g>
		<g>
			<path class="st4" d="M297.7,70.8"/>
		</g>
		<g>
			<g>
				<line class="st0" x1="297.7" y1="12.5" x2="296.7" y2="12.5"/>
				<line class="st5" x1="294.7" y1="12.5" x2="217" y2="12.5"/>
				<polyline class="st0" points="216.1,12.5 215.1,12.5 215.1,13.5 				"/>
				<line class="st3" x1="215.1" y1="15.4" x2="215.1" y2="68.9"/>
				<line class="st0" x1="215.1" y1="69.8" x2="215.1" y2="70.8"/>
			</g>
		</g>
		<path class="st7" d="M132.5,181.8c0-0.9-0.7-1.6-1.6-1.6c-0.9,0-1.6,0.7-1.6,1.6c0,0.9,0.7,1.6,1.6,1.6
			C131.8,183.4,132.5,182.7,132.5,181.8"/>
		<path class="st7" d="M126.8,126.9c0-0.9-0.7-1.6-1.6-1.6c-0.9,0-1.6,0.7-1.6,1.6c0,0.9,0.7,1.6,1.6,1.6
			C126,128.6,126.8,127.8,126.8,126.9"/>
		<path class="st7" d="M368.2,177.7c0-0.9-0.7-1.6-1.6-1.6c-0.9,0-1.6,0.7-1.6,1.6c0,0.9,0.7,1.6,1.6,1.6
			C367.5,179.3,368.2,178.6,368.2,177.7"/>
		<path class="st7" d="M154.4,248.1c0-0.9-0.7-1.6-1.6-1.6c-0.9,0-1.6,0.7-1.6,1.6c0,0.9,0.7,1.6,1.6,1.6
			C153.7,249.7,154.4,249,154.4,248.1"/>
		<path class="st7" d="M100,95.8c0-0.9-0.7-1.6-1.6-1.6c-0.9,0-1.6,0.7-1.6,1.6c0,0.9,0.7,1.6,1.6,1.6C99.3,97.5,100,96.7,100,95.8"
			/>
		<path class="st7" d="M247.2,126.9c0-0.9-0.7-1.6-1.6-1.6c-0.9,0-1.6,0.7-1.6,1.6c0,0.9,0.7,1.6,1.6,1.6
			C246.5,128.6,247.2,127.8,247.2,126.9"/>
		<path class="st7" d="M132.5,95.8c0-0.9-0.7-1.6-1.6-1.6c-0.9,0-1.6,0.7-1.6,1.6c0,0.9,0.7,1.6,1.6,1.6
			C131.8,97.5,132.5,96.7,132.5,95.8"/>
		<path class="st7" d="M121.1,42.7c0-0.9-0.7-1.6-1.6-1.6c-0.9,0-1.6,0.7-1.6,1.6c0,0.9,0.7,1.6,1.6,1.6
			C120.4,44.3,121.1,43.6,121.1,42.7"/>
		<path class="st7" d="M67.1,65.3c0-0.9-0.7-1.6-1.6-1.6c-0.9,0-1.6,0.7-1.6,1.6c0,0.9,0.7,1.6,1.6,1.6C66.3,67,67.1,66.2,67.1,65.3
			"/>
		<path class="st7" d="M148.5,86c0-0.9-0.7-1.6-1.6-1.6c-0.9,0-1.6,0.7-1.6,1.6c0,0.9,0.7,1.6,1.6,1.6
			C147.8,87.6,148.5,86.9,148.5,86"/>
		<path class="st7" d="M358.4,161.3c0-0.9-0.7-1.6-1.6-1.6s-1.6,0.7-1.6,1.6c0,0.9,0.7,1.6,1.6,1.6S358.4,162.2,358.4,161.3"/>
		<path class="st7" d="M414.8,107.7c0-0.9-0.7-1.6-1.6-1.6c-0.9,0-1.6,0.7-1.6,1.6c0,0.9,0.7,1.6,1.6,1.6
			C414,109.3,414.8,108.6,414.8,107.7"/>
		<path class="st7" d="M486.6,213.3c0-0.9-0.7-1.6-1.6-1.6c-0.9,0-1.6,0.7-1.6,1.6s0.7,1.6,1.6,1.6
			C485.8,214.9,486.6,214.2,486.6,213.3"/>
		<path class="st7" d="M184.2,95.8c0-0.9-0.7-1.6-1.6-1.6c-0.9,0-1.6,0.7-1.6,1.6c0,0.9,0.7,1.6,1.6,1.6
			C183.5,97.5,184.2,96.7,184.2,95.8"/>
		<path class="st7" d="M259.3,141.2c0-0.9-0.7-1.6-1.6-1.6s-1.6,0.7-1.6,1.6c0,0.9,0.7,1.6,1.6,1.6S259.3,142.1,259.3,141.2"/>
		<path class="st7" d="M127.7,54.9c0-0.9-0.7-1.6-1.6-1.6c-0.9,0-1.6,0.7-1.6,1.6c0,0.9,0.7,1.6,1.6,1.6
			C127,56.6,127.7,55.8,127.7,54.9"/>
		<path class="st7" d="M207.8,78.6c0-0.9-0.7-1.6-1.6-1.6c-0.9,0-1.6,0.7-1.6,1.6c0,0.9,0.7,1.6,1.6,1.6
			C207.1,80.3,207.8,79.5,207.8,78.6"/>
		<path class="st7" d="M224.2,54.9c0-0.9-0.7-1.6-1.6-1.6c-0.9,0-1.6,0.7-1.6,1.6c0,0.9,0.7,1.6,1.6,1.6
			C223.4,56.6,224.2,55.8,224.2,54.9"/>
		<path class="st7" d="M327.3,90.9c0-0.9-0.7-1.6-1.6-1.6c-0.9,0-1.6,0.7-1.6,1.6c0,0.9,0.7,1.6,1.6,1.6
			C326.6,92.6,327.3,91.8,327.3,90.9"/>
		<path class="st7" d="M229.9,145.8c0-0.9-0.7-1.6-1.6-1.6c-0.9,0-1.6,0.7-1.6,1.6c0,0.9,0.7,1.6,1.6,1.6
			C229.1,147.4,229.9,146.7,229.9,145.8"/>
		<path class="st7" d="M273.8,171.1c0-0.9-0.7-1.6-1.6-1.6c-0.9,0-1.6,0.7-1.6,1.6s0.7,1.6,1.6,1.6
			C273.1,172.8,273.8,172,273.8,171.1"/>
		<path class="st7" d="M316.6,238.2c0-0.9-0.7-1.6-1.6-1.6c-0.9,0-1.6,0.7-1.6,1.6s0.7,1.6,1.6,1.6
			C315.9,239.9,316.6,239.1,316.6,238.2"/>
		<path class="st7" d="M154.4,315.2c0-0.9-0.7-1.6-1.6-1.6c-0.9,0-1.6,0.7-1.6,1.6c0,0.9,0.7,1.6,1.6,1.6
			C153.7,316.8,154.4,316.1,154.4,315.2"/>
		<path class="st7" d="M148.5,95.8c0-0.9-0.7-1.6-1.6-1.6c-0.9,0-1.6,0.7-1.6,1.6c0,0.9,0.7,1.6,1.6,1.6
			C147.8,97.5,148.5,96.7,148.5,95.8"/>
		<path class="st7" d="M168.3,95.8c0-0.9-0.7-1.6-1.6-1.6c-0.9,0-1.6,0.7-1.6,1.6c0,0.9,0.7,1.6,1.6,1.6
			C167.6,97.5,168.3,96.7,168.3,95.8"/>
		<path class="st7" d="M358.4,18.9c0-0.9-0.7-1.6-1.6-1.6s-1.6,0.7-1.6,1.6c0,0.9,0.7,1.6,1.6,1.6S358.4,19.8,358.4,18.9"/>
	</g>
</a>
</svg>
