<?xml version="1.0" encoding="utf-8"?>
<!-- Generator: Adobe Illustrator 26.5.0, SVG Export Plug-In . SVG Version: 6.00 Build 0)  -->
<svg version="1.1" xmlns="http://www.w3.org/2000/svg" xmlns:xlink="http://www.w3.org/1999/xlink" x="0px" y="0px"
	 viewBox="0 0 595.3 226.8" style="enable-background:new 0 0 595.3 226.8;" xml:space="preserve">
<style type="text/css">
	.st0{display:none;fill:#0000FF;}
	.st1{fill:none;stroke:#FEFEFF;stroke-width:0.5;stroke-dasharray:1.5909,1.5909;}
	.st2{fill:#FFFFFF;}
	.st3{fill:none;stroke:#FEFEFF;stroke-width:0.7955;stroke-miterlimit:10;}
	.st4{fill:#FEFEFF;}
	.st5{fill:#0000FF;}
	.st6{fill:#00FF00;}
</style>
<g id="BANNER">
	<rect x="-44.9" y="59.9" class="st0" width="688" height="536"/>
	<g id="BANNER_DASHED_1_">
		<g id="LINE_97_">
			<line class="st1" x1="418" y1="121.6" x2="418" y2="143.4"/>
		</g>
		<g id="LINE_96_">
			<line class="st1" x1="508.2" y1="192.9" x2="508.2" y2="171"/>
		</g>
		<g id="LINE_95_">
			<line class="st1" x1="545.7" y1="159.1" x2="545.7" y2="181.1"/>
		</g>
		<g id="LINE_94_">
			<line class="st1" x1="505.4" y1="161" x2="505.4" y2="182.8"/>
		</g>
		<g id="LINE_93_">
			<line class="st1" x1="467.6" y1="192.9" x2="467.6" y2="171"/>
		</g>
		<g id="POLYLINE_3_">
			<path class="st1" d="M389.1,111.8h16.4c1.9,0,3.8,0.2,5.7,0.7"/>
		</g>
		<g id="ARC_9_">
			<path class="st1" d="M418,121.6c0.1-4.2-2.7-8-6.8-9.1"/>
		</g>
		<g id="LINE_92_">
			<line class="st1" x1="544.5" y1="186.9" x2="544.5" y2="182.2"/>
		</g>
		<g id="LINE_91_">
			<line class="st1" x1="528.7" y1="186.9" x2="528.7" y2="177.1"/>
		</g>
		<g id="LINE_90_">
			<line class="st1" x1="527.3" y1="192" x2="527.3" y2="177.4"/>
		</g>
		<g id="SPLINE_9_">
			<path class="st1" d="M508.2,171c0-1.4,0.2-2.9,0.6-4.6c1.3-5,4-9,8.2-12.1c4.2-3,9-4.5,14.6-4.5c4.8,0,8.4,1,10.9,3
				c2.1,1.8,3.2,3.9,3.2,6.4"/>
		</g>
		<g id="ARC_8_">
			<path class="st1" d="M505.4,161c0.1-2.9-1-5.7-3.1-7.7"/>
		</g>
		<g id="SPLINE_8_">
			<path class="st1" d="M477.4,153.2c3.5-2.4,7.9-3.6,13.4-3.6c5.4,0,9.3,1.2,11.5,3.6"/>
		</g>
		<g id="SPLINE_7_">
			<path class="st1" d="M467.6,171c0-1.5,0.2-3.2,0.7-5c1.5-5.7,4.5-9.9,9.1-12.8"/>
		</g>
		<g id="LINE_89_">
			<line class="st1" x1="433.4" y1="203.5" x2="433.4" y2="181.6"/>
		</g>
		<g id="LINE_88_">
			<line class="st1" x1="461.6" y1="197.9" x2="461.6" y2="176"/>
		</g>
		<g id="LINE_87_">
			<line class="st1" x1="449.4" y1="172.5" x2="449.4" y2="150.6"/>
		</g>
		<g id="LINE_86_">
			<line class="st1" x1="441.5" y1="150.6" x2="441.5" y2="172.5"/>
		</g>
		<g id="LINE_85_">
			<line class="st1" x1="433.4" y1="181.6" x2="441.5" y2="150.6"/>
		</g>
		<g id="LINE_84_">
			<line class="st1" x1="448.5" y1="176" x2="461.6" y2="176"/>
		</g>
		<g id="LINE_83_">
			<line class="st1" x1="441.5" y1="150.6" x2="449.4" y2="150.6"/>
		</g>
		<g id="LINE_82_">
			<line class="st1" x1="392.6" y1="203.5" x2="392.6" y2="181.6"/>
		</g>
		<g id="LINE_81_">
			<line class="st1" x1="428.6" y1="203.5" x2="428.6" y2="181.6"/>
		</g>
		<g id="LINE_80_">
			<line class="st1" x1="423.2" y1="172.5" x2="423.2" y2="150.6"/>
		</g>
		<g id="LINE_79_">
			<line class="st1" x1="414.2" y1="155.7" x2="414.2" y2="172.5"/>
		</g>
		<g id="LINE_78_">
			<line class="st1" x1="398.6" y1="173" x2="405.4" y2="163.3"/>
		</g>
		<g id="LINE_77_">
			<line class="st1" x1="392.6" y1="181.6" x2="395.1" y2="178"/>
		</g>
		<g id="LINE_76_">
			<line class="st1" x1="423.2" y1="150.6" x2="428.6" y2="181.6"/>
		</g>
		<g id="LINE_75_">
			<line class="st1" x1="416.8" y1="150.6" x2="423.2" y2="150.6"/>
		</g>
		<g id="LINE_74_">
			<line class="st1" x1="368" y1="172.5" x2="368" y2="164.8"/>
		</g>
		<g id="LINE_73_">
			<line class="st1" x1="366.5" y1="178" x2="366.5" y2="164.8"/>
		</g>
		<g id="LINE_72_">
			<line class="st1" x1="371.3" y1="203.5" x2="371.3" y2="181.6"/>
		</g>
		<g id="LINE_71_">
			<line class="st1" x1="398.7" y1="164.8" x2="398.7" y2="172.5"/>
		</g>
		<g id="LINE_70_">
			<line class="st1" x1="371.3" y1="181.6" x2="372.2" y2="178"/>
		</g>
		<g id="LINE_69_">
			<line class="st1" x1="322.3" y1="203.5" x2="322.3" y2="182.8"/>
		</g>
		<g id="LINE_68_">
			<line class="st1" x1="358.2" y1="203.5" x2="358.2" y2="181.6"/>
		</g>
		<g id="LINE_67_">
			<line class="st1" x1="352.9" y1="172.5" x2="352.9" y2="164.8"/>
		</g>
		<g id="LINE_66_">
			<line class="st1" x1="343.9" y1="152.6" x2="343.9" y2="172.5"/>
		</g>
		<g id="LINE_65_">
			<line class="st1" x1="337.5" y1="159.8" x2="342.4" y2="152.6"/>
		</g>
		<g id="LINE_64_">
			<line class="st1" x1="324.5" y1="178.4" x2="334" y2="164.8"/>
		</g>
		<g id="LINE_63_">
			<line class="st1" x1="355.3" y1="164.8" x2="358.2" y2="181.6"/>
		</g>
		<g id="LINE_62_">
			<line class="st1" x1="321.6" y1="193" x2="321.6" y2="182.8"/>
		</g>
		<g id="LINE_61_">
			<line class="st1" x1="313.8" y1="193" x2="313.8" y2="178.3"/>
		</g>
		<g id="LINE_60_">
			<line class="st1" x1="365.6" y1="118.7" x2="365.6" y2="140.6"/>
		</g>
		<g id="SPLINE_6_">
			<path class="st1" d="M355.1,111.8c2.6,0,4.6,0.3,5.9,0.8s2.3,1.2,3.1,2.2"/>
		</g>
		<g id="LINE_59_">
			<line class="st1" x1="336.5" y1="111.8" x2="355.1" y2="111.8"/>
		</g>
		<g id="LINE_58_">
			<line class="st1" x1="381.7" y1="133.8" x2="381.7" y2="111.8"/>
		</g>
		<g id="LINE_57_">
			<line class="st1" x1="373.8" y1="133.8" x2="373.8" y2="111.8"/>
		</g>
		<g id="LINE_56_">
			<line class="st1" x1="365.7" y1="164.8" x2="365.7" y2="142.9"/>
		</g>
		<g id="LINE_55_">
			<line class="st1" x1="373.8" y1="111.8" x2="381.7" y2="111.8"/>
		</g>
		<g id="LINE_54_">
			<line class="st1" x1="365.7" y1="142.9" x2="373.8" y2="111.8"/>
		</g>
		<g id="LINE_53_">
			<line class="st1" x1="389.1" y1="133.8" x2="389.1" y2="111.8"/>
		</g>
		<g id="LINE_52_">
			<line class="st1" x1="381" y1="164.8" x2="381" y2="142.9"/>
		</g>
		<g id="LINE_51_">
			<line class="st1" x1="381" y1="142.9" x2="389.1" y2="111.8"/>
		</g>
		<g id="LINE_50_">
			<line class="st1" x1="377.3" y1="150.6" x2="381" y2="150.6"/>
		</g>
		<g id="LINE_49_">
			<line class="st1" x1="127.5" y1="122.2" x2="127.5" y2="144.1"/>
		</g>
		<g id="LINE_48_">
			<line class="st1" x1="89.7" y1="154.2" x2="89.7" y2="132.3"/>
		</g>
		<g id="LINE_47_">
			<line class="st1" x1="165.8" y1="121.6" x2="165.8" y2="143.4"/>
		</g>
		<g id="LINE_46_">
			<line class="st1" x1="203.9" y1="121.6" x2="203.9" y2="143.4"/>
		</g>
		<g id="LINE_45_">
			<line class="st1" x1="288.7" y1="154.1" x2="288.7" y2="132.3"/>
		</g>
		<g id="LINE_44_">
			<line class="st1" x1="326.1" y1="120.4" x2="326.1" y2="142.4"/>
		</g>
		<g id="LINE_43_">
			<line class="st1" x1="351.3" y1="153.1" x2="351.3" y2="163.1"/>
		</g>
		<g id="LINE_42_">
			<line class="st1" x1="360.9" y1="148.6" x2="360.9" y2="154.1"/>
		</g>
		<g id="LINE_41_">
			<line class="st1" x1="288.4" y1="193.1" x2="288.4" y2="171.3"/>
		</g>
		<g id="LINE_40_">
			<line class="st1" x1="324.5" y1="159.4" x2="324.5" y2="181.3"/>
		</g>
		<g id="LINE_39_">
			<line class="st1" x1="72.3" y1="164.8" x2="72.3" y2="150.9"/>
		</g>
		<g id="LINE_38_">
			<line class="st1" x1="88.3" y1="133.8" x2="88.3" y2="111.8"/>
		</g>
		<g id="LINE_37_">
			<line class="st1" x1="80.4" y1="133.8" x2="80.4" y2="111.8"/>
		</g>
		<g id="LINE_36_">
			<line class="st1" x1="77.3" y1="145.6" x2="77.3" y2="123.7"/>
		</g>
		<g id="LINE_35_">
			<line class="st1" x1="65.5" y1="133.8" x2="65.5" y2="111.8"/>
		</g>
		<g id="LINE_34_">
			<line class="st1" x1="57.7" y1="133.8" x2="57.7" y2="111.8"/>
		</g>
		<g id="LINE_33_">
			<line class="st1" x1="49.6" y1="142.9" x2="49.6" y2="164.8"/>
		</g>
		<g id="LINE_32_">
			<line class="st1" x1="80.4" y1="111.8" x2="88.3" y2="111.8"/>
		</g>
		<g id="LINE_31_">
			<line class="st1" x1="77.3" y1="123.7" x2="80.4" y2="111.8"/>
		</g>
		<g id="LINE_30_">
			<line class="st1" x1="65.5" y1="123.7" x2="77.3" y2="123.7"/>
		</g>
		<g id="LINE_29_">
			<line class="st1" x1="57.7" y1="111.8" x2="65.5" y2="111.8"/>
		</g>
		<g id="LINE_28_">
			<line class="st1" x1="49.6" y1="142.9" x2="57.7" y2="111.8"/>
		</g>
		<g id="ARC_7_">
			<path class="st1" d="M127.5,122.2c0.1-2.9-1-5.7-3.1-7.7"/>
		</g>
		<g id="SPLINE_5_">
			<path class="st1" d="M99.5,114.5c3.5-2.4,7.9-3.6,13.4-3.6s9.3,1.2,11.5,3.6"/>
		</g>
		<g id="SPLINE_4_">
			<path class="st1" d="M89.7,132.3c0-1.5,0.2-3.2,0.7-5c1.5-5.7,4.5-9.9,9.1-12.8"/>
		</g>
		<g id="LINE_27_">
			<line class="st1" x1="136.9" y1="133.8" x2="136.9" y2="111.8"/>
		</g>
		<g id="LINE_26_">
			<line class="st1" x1="128.8" y1="164.8" x2="128.8" y2="142.9"/>
		</g>
		<g id="POLYLINE_2_">
			<path class="st1" d="M136.9,111.8h16.4c1.9,0,3.8,0.2,5.7,0.7"/>
		</g>
		<g id="LINE_25_">
			<line class="st1" x1="128.8" y1="142.9" x2="136.9" y2="111.8"/>
		</g>
		<g id="ARC_6_">
			<path class="st1" d="M165.8,121.6c0.1-4.2-2.7-8-6.8-9.1"/>
		</g>
		<g id="LINE_24_">
			<line class="st1" x1="175" y1="133.8" x2="175" y2="111.8"/>
		</g>
		<g id="LINE_23_">
			<line class="st1" x1="167" y1="164.8" x2="167" y2="142.9"/>
		</g>
		<g id="POLYLINE_1_">
			<path class="st1" d="M175,111.8h16.4c1.9,0,3.8,0.2,5.7,0.7"/>
		</g>
		<g id="LINE_22_">
			<line class="st1" x1="167" y1="142.9" x2="175" y2="111.8"/>
		</g>
		<g id="ARC_5_">
			<path class="st1" d="M203.9,121.6c0.1-4.2-2.7-8-6.8-9.1"/>
		</g>
		<g id="LINE_21_">
			<line class="st1" x1="205.1" y1="164.8" x2="205.1" y2="142.9"/>
		</g>
		<g id="LINE_20_">
			<line class="st1" x1="233.3" y1="159.2" x2="233.3" y2="137.3"/>
		</g>
		<g id="LINE_19_">
			<line class="st1" x1="221.1" y1="133.8" x2="221.1" y2="111.8"/>
		</g>
		<g id="LINE_18_">
			<line class="st1" x1="213.1" y1="111.8" x2="213.1" y2="133.8"/>
		</g>
		<g id="LINE_17_">
			<line class="st1" x1="205.1" y1="142.9" x2="213.1" y2="111.8"/>
		</g>
		<g id="LINE_16_">
			<line class="st1" x1="220.2" y1="137.3" x2="233.3" y2="137.3"/>
		</g>
		<g id="LINE_15_">
			<line class="st1" x1="213.1" y1="111.8" x2="221.1" y2="111.8"/>
		</g>
		<g id="LINE_14_">
			<line class="st1" x1="273.5" y1="133.8" x2="273.5" y2="111.8"/>
		</g>
		<g id="LINE_13_">
			<line class="st1" x1="245.6" y1="133.8" x2="245.6" y2="111.8"/>
		</g>
		<g id="LINE_12_">
			<line class="st1" x1="237.5" y1="164.8" x2="237.5" y2="142.9"/>
		</g>
		<g id="LINE_11_">
			<line class="st1" x1="267.8" y1="159.2" x2="267.8" y2="149.3"/>
		</g>
		<g id="LINE_10_">
			<line class="st1" x1="268.7" y1="145.8" x2="268.7" y2="139.3"/>
		</g>
		<g id="LINE_9_">
			<line class="st1" x1="245.6" y1="111.8" x2="273.5" y2="111.8"/>
		</g>
		<g id="LINE_8_">
			<line class="st1" x1="237.5" y1="142.9" x2="245.6" y2="111.8"/>
		</g>
		<g id="LINE_7_">
			<line class="st1" x1="325" y1="148.1" x2="325" y2="143.4"/>
		</g>
		<g id="LINE_6_">
			<line class="st1" x1="309.2" y1="148.1" x2="309.2" y2="138.4"/>
		</g>
		<g id="LINE_5_">
			<line class="st1" x1="307.8" y1="153.3" x2="307.8" y2="138.6"/>
		</g>
		<g id="SPLINE_3_">
			<path class="st1" d="M288.7,132.3c0-1.4,0.2-2.9,0.6-4.6c1.3-5,4-9,8.2-12.1c4.2-3,9-4.5,14.6-4.5c4.8,0,8.4,1,10.9,3
				c2.1,1.7,3.2,3.9,3.2,6.4"/>
		</g>
		<g id="LINE_4_">
			<line class="st1" x1="336.5" y1="133.8" x2="336.5" y2="111.8"/>
		</g>
		<g id="LINE_3_">
			<line class="st1" x1="328.4" y1="164.8" x2="328.4" y2="142.9"/>
		</g>
		<g id="LINE_2_">
			<line class="st1" x1="360.3" y1="164" x2="360.3" y2="157.7"/>
		</g>
		<g id="LINE_1_">
			<line class="st1" x1="328.4" y1="142.9" x2="336.5" y2="111.8"/>
		</g>
		<g id="ARC_4_">
			<path class="st1" d="M365.6,118.7c0-1.4-0.5-2.8-1.4-3.9"/>
		</g>
		<g id="ARC_2_">
			<path class="st1" d="M291.1,161.2c-1.6,3.1-2.6,6.6-2.7,10.1"/>
		</g>
		<g id="ARC_1_">
			<path class="st1" d="M324.5,159.4c0-1.5-0.5-3-1.3-4.3"/>
		</g>
	</g>
	<g id="BANNER_1_">
		<g id="SPLINE_2_">
			<g id="XMLID_2_">
				<g>
					<path class="st2" d="M542.5,174.7c2.4,2,3.4,4.5,3.1,7.5h-7.8c-0.1-2.1-1.1-3.6-3.2-4.4c-1.2-0.5-2.6-0.7-4.2-0.7
						c-3.1,0-5.8,0.9-8.3,2.8c-2.5,1.9-4.2,4.7-5.2,8.5s-0.6,6.5,1.1,8.1c1.7,1.6,3.9,2.4,6.6,2.4c2.7,0,5-0.6,7-1.9
						s3.5-2.9,4.4-4.9h-8.8l1.4-5.2h15.8l-4.3,16.6h-5.3l0.2-3.9c-0.1,0.1-0.1,0.1-0.2,0.2c-1.8,1.4-3.4,2.4-4.7,3
						c-2.4,1.1-5.1,1.6-8.1,1.6c-5,0-8.8-1.4-11.3-4.3c-2.6-2.9-3.2-6.8-2-11.7c1.3-5,4-9,8.2-12.1c4.2-3,9-4.5,14.6-4.5
						C536.5,171.7,540.1,172.7,542.5,174.7z"/>
					<path class="st2" d="M502.3,175.2c3.1,2.8,3.9,7.1,2.4,12.8c-1.5,5.6-4.5,9.8-9.1,12.8c-3.5,2.4-7.9,3.6-13.4,3.6
						c-5.4,0-9.3-1.2-11.5-3.6c-3.1-3-3.9-7.2-2.4-12.8c1.5-5.7,4.5-9.9,9.1-12.8c3.5-2.4,7.9-3.6,13.4-3.6
						C496.2,171.5,500,172.8,502.3,175.2z M496.8,188c0.9-3.5,0.7-6.2-0.7-8.1c-1.4-1.9-3.6-2.9-6.7-2.9s-5.9,0.9-8.3,2.8
						c-2.4,1.9-4,4.6-4.9,8.1s-0.7,6.2,0.7,8.1c1.4,1.9,3.6,2.8,6.8,2.8s5.9-0.9,8.2-2.8C494.2,194.2,495.9,191.5,496.8,188z"/>
					<polygon class="st2" points="461.6,197.9 460.2,203.5 433.4,203.5 441.5,172.5 449.4,172.5 442.8,197.9 					"/>
					<path class="st2" d="M423.2,172.5l5.4,31H420l-0.8-6.4h-14l-4.3,6.4h-8.3l21.6-31H423.2z M418.4,191.8l-1.6-12.2l-8.1,12.2
						H418.4z"/>
					<path class="st2" d="M418,143v0.3v0.7v0.7v0.7l-0.1,0.6l-0.1,0.6l-0.1,0.6l-0.1,0.6l-0.1,0.6l-0.2,0.8l-0.2,0.8l-0.2,0.7
						l-0.3,0.7l-0.3,0.7l-0.3,0.7l-0.3,0.7l-0.4,0.7l-0.4,0.6l-0.4,0.6l-0.4,0.6l-0.4,0.6l-0.5,0.6l-0.5,0.6l-0.5,0.6l-0.5,0.5
						l-0.4,0.4l-0.4,0.3l-0.4,0.3l-0.4,0.3l-0.4,0.3l-0.4,0.3l-0.4,0.3l-0.4,0.3l-0.4,0.3l-0.4,0.3l-0.4,0.2l-0.4,0.2l-0.4,0.2
						l-0.4,0.2l-0.4,0.2l-0.4,0.2l-0.4,0.2l-0.4,0.2l-0.5,0.2l-0.5,0.1L403,164l-0.5,0.1l-0.5,0.1l-0.5,0.1l-0.5,0.1l-0.5,0.1
						l-0.5,0.1l-0.5,0.1H399h-0.5H398h-0.5H381l8.1-31h16.4c1.9,0,3.8,0.2,5.7,0.7l0.2,0.1l0.2,0.1l0.2,0.1l0.2,0.1l0.2,0.1l0.2,0.1
						l0.2,0.1l0.2,0.1l0.2,0.1l0.2,0.1l0.2,0.1l0.2,0.1l0.2,0.1l0.2,0.1l0.2,0.1l0.2,0.1l0.2,0.1l0.2,0.1l0.2,0.1l0.2,0.1l0.1,0.1
						l0.1,0.1l0.1,0.1l0.1,0.2l0.1,0.2l0.1,0.2l0.1,0.2l0.1,0.2l0.1,0.2l0.1,0.2l0.1,0.2l0.1,0.2l0.2,0.3l0.2,0.3l0.1,0.3l0.1,0.3
						l0.1,0.3l0.1,0.3l0.1,0.3l0.1,0.3l0.1,0.3l0.1,0.3l0.1,0.3l0.1,0.3v0.3v0.3L418,143z M409.8,144.8v-0.2v-0.2v-0.2V144v-0.2
						v-0.2v-0.2v-0.2V143v-0.2v-0.2v-0.2l-0.1-0.2l-0.1-0.2l-0.1-0.2l-0.1-0.2v-0.1v-0.1v-0.1v-0.1v-0.1l-0.4,0.1v-0.1l-0.1-0.1
						l-0.1-0.1l-0.1-0.1l-0.1-0.1l-0.1-0.1l-0.1-0.1l-0.1-0.1l-0.1-0.1l-0.1-0.1l-0.1-0.1l-0.1-0.1l-0.1-0.1l-0.1-0.1h-0.1l0.4,0.4
						l-0.1-0.1h-0.1l-0.1-0.1h-0.1h-0.1h-0.1h-0.1h-0.1h-0.1H407l-0.2-0.1l-0.2-0.1l-0.2-0.1l-0.2-0.1l-0.2-0.1h-0.2h-0.3h-0.3h-0.3
						h-0.3h-0.3H404h-0.6h-0.7h-7.3l-5.3,20.2h7.3h0.4h0.4h0.3h0.3h0.3h0.3l0.3-0.1l0.3-0.1l0.3-0.1l0.3-0.1l0.3-0.1l0.3-0.1
						l0.3-0.1l0.3-0.1l0.3-0.1l0.3-0.1l0.3-0.1l0.3-0.2l0.3-0.2l0.3-0.2l0.3-0.2l0.3-0.2l0.3-0.2l0.2-0.2l0.2-0.2l0.2-0.2l0.2-0.2
						l0.2-0.2l0.2-0.2l0.2-0.3l0.2-0.3l0.2-0.3l0.2-0.3l0.2-0.3l0.2-0.3l0.2-0.3l0.2-0.3l0.2-0.4l0.2-0.4l0.2-0.4l0.2-0.4l0.2-0.4
						l0.2-0.4l0.1-0.4l0.1-0.4l0.1-0.4l0.1-0.4l0.1-0.4l0.1-0.6l0.1-0.6l0.1-0.5l0.1-0.5l0.1-0.5l0.1-0.5V146v-0.2v-0.2L409.8,144.8
						z"/>
					<polygon class="st2" points="398.7,172.5 397.3,178 385.9,178 379.3,203.5 371.3,203.5 377.9,178 366.5,178 368,172.5 					"/>
					<polygon class="st2" points="381.7,133.8 373.6,164.8 365.7,164.8 373.8,133.8 					"/>
					<path class="st2" d="M365.4,139.3c0.2,1,0.2,2-0.1,3.3c-0.4,1.5-1.2,2.9-2.5,4.3s-3,2.4-5.3,3l0.3,0.1l0.3,0.1l0.1,0.1l0.1,0.1
						l0.1,0.1l0.1,0.1l0.1,0.1l0.1,0.1l0.1,0.1l0.1,0.1l0.1,0.1l0.1,0.1l0.1,0.1l0.1,0.1l0.1,0.1l0.1,0.1l0.1,0.1l0.1,0.1l0.1,0.1
						l0.1,0.1l0.1,0.1l0.1,0.1l0.1,0.1l0.1,0.1l0.1,0.1l0.1,0.1l0.1,0.1l0.1,0.1v0.1v0.1l0,0v0.1v0.1v0.1v0.1v0.1v0.1v0.1v0.1v0.1
						v0.1v0.1v0.1v0.1v0.1v0.1v0.1v0.2v0.2v0.2v0.3v0.3l-0.1,0.3l-0.1,0.4l-0.1,0.4l-0.1,0.4l-0.1,0.4l-0.5,2.1l-0.2,1l-0.1,0.4
						l-0.1,0.4l-0.1,0.3v0.2v0.2v0.1v0.1v0.1v-0.3l0,0v0.1v0.1v0.1v0.1v0.1v0.1v0.1v0.1v0.1v0.1v0.1v0.1v0.1l0,0l0,0l0,0l0,0l0,0
						l0,0l0,0l0,0l0,0l0,0l0,0l0,0l0,0l0,0l0,0l0,0l0,0l0,0l0,0l0,0l0,0l0,0l0,0h0.1h0.1h0.1h0.1h0.1h0.1l-0.2,0.8h-8.7l-0.1-1.7
						c0-0.9,0.1-1.8,0.4-2.7l0.7-2.9v-0.4l0.1-0.3l0.1-0.3v-0.2v-0.2v-0.2v-0.1v-0.2V155v-0.1v-0.1v-0.1v-0.1v-0.1v-0.1v-0.1v-0.1
						v-0.1V154v-0.1v-0.1v-0.1l0,0v-0.1l0,0l0,0v-0.1l0,0l0,0l0,0l0,0l0,0l0,0l0,0l0,0l0,0l0,0l0,0l0,0l0,0l0,0l0,0l0,0l0,0l0,0l0,0
						l0,0l0,0l0,0l0,0l0,0l0,0l0,0l0,0l0,0H352l-0.1-0.1h-0.1h-0.1h-0.1h-0.1h-0.1h-0.1h-0.1h-0.1H351h-0.1l-0.3-0.1h-0.3h-0.4h-0.4
						h-0.4h-0.4h-0.4h-8.2l-3.1,12.2h-7.8l8.1-31h18.6c2.6,0,4.6,0.3,5.9,0.8s2.3,1.2,3.1,2.2C364.8,137.5,365.2,138.4,365.4,139.3z
						 M357.3,142.3L357.3,142.3L357.3,142.3v-0.2V142v-0.1v-0.1v-0.1v-0.1v-0.1v-0.1v-0.1v-0.1v-0.1V141v-0.1v-0.1v-0.1v-0.1v-0.1
						v-0.1v-0.1v-0.1l0,0v-0.1l0,0V140l0,0l0,0l0,0l0,0l0,0l0,0l0,0l0,0l0,0l0,0h-0.1l0,0h-0.1l0,0H357h-0.1h-0.1h-0.1h-0.1h-0.1
						h-0.1h-0.1h-0.1h-0.1H356h-0.1h-0.1h-0.1h-0.1h-0.1h-0.1h-0.2H355h-0.2h-0.2h-0.2h-0.2h-0.3h-0.3H353h-0.6h-9.2l-2.2,8.3h9h0.6
						h0.6h0.6h0.3h0.3h0.3h0.2h0.2h0.2l0.2-0.1l0.2-0.1l0.2-0.1l0.2-0.1l0.2-0.1l0.2-0.1l0.1-0.1l0.1-0.1l0.1-0.1l0.1-0.1l0.1-0.1
						l0.1-0.1l0.1-0.1l0.1-0.1l0.1-0.1l0.1-0.1l0.1-0.1l0.1-0.1l0.1-0.1l0.1-0.1l0.1-0.1l0.1-0.1l0.1-0.1l0.1-0.1l0.1-0.1l0.1-0.1
						l0.1-0.1l0.1-0.1l0.1-0.1l0.1-0.1l0.1-0.1l0.1-0.2l0.1-0.2l0.1-0.2l0.1-0.2v-0.2V144v-0.2v-0.2v-0.2v-0.2V143L357.3,142.3
						L357.3,142.3z"/>
					<path class="st2" d="M352.8,172.5l5.4,31h-8.6l-0.8-6.4h-14l-4.3,6.4h-8.3l21.6-31H352.8z M348,191.8l-1.6-12.2l-8.1,12.2H348z
						"/>
					<path class="st2" d="M323,136c2.4,2,3.4,4.5,3.1,7.5h-7.8c-0.1-2.1-1.1-3.6-3.2-4.4c-1.2-0.5-2.6-0.7-4.2-0.7
						c-3.1,0-5.8,0.9-8.3,2.8c-2.5,1.9-4.2,4.7-5.2,8.5c-1,3.8-0.6,6.5,1.1,8.1s3.9,2.4,6.6,2.4s5-0.6,7.1-1.9
						c2-1.3,3.5-2.9,4.4-4.9h-8.8l1.4-5.2H325l-4.3,16.6h-5.3l0.2-3.9c-0.1,0.1-0.1,0.1-0.2,0.2c-1.8,1.4-3.4,2.4-4.7,3
						c-2.4,1.1-5.1,1.6-8.1,1.6c-5,0-8.8-1.4-11.3-4.3c-2.6-2.9-3.3-6.8-2-11.7c1.3-5,4-9,8.2-12.1c4.2-3,9-4.6,14.6-4.6
						C317,133,320.6,134,323,136z"/>
					<path class="st2" d="M323.2,177c1.1,1.9,1.5,3.8,1.1,5.8h-7.9c-0.1-1.5-0.5-2.6-1.1-3.4c-1.1-1.3-3-2-5.9-2s-5.4,0.9-7.6,2.9
						c-2.2,1.9-3.7,4.6-4.6,8.1s-0.7,6.1,0.6,7.8c1.3,1.7,3.3,2.6,6,2.6c2.8,0,5.1-0.8,7-2.2c1-0.8,2-2,2.9-3.6h7.9
						c-1.6,3.4-4,6.1-7.4,8.3c-3.4,2.2-7.3,3.2-11.7,3.2c-5.5,0-9.4-1.4-11.8-4.3c-2.4-2.9-2.9-6.8-1.6-11.8
						c1.4-5.4,4.3-9.6,8.6-12.5c3.8-2.5,8-3.8,12.8-3.8C316.9,171.9,321.1,173.6,323.2,177z"/>
					<polygon class="st2" points="273.5,133.8 272,139.3 251.9,139.3 250.2,145.8 268.7,145.8 267.3,151.2 248.8,151.2 246.7,159.2 
						267.8,159.2 266.3,164.8 237.5,164.8 245.6,133.8 					"/>
					<polygon class="st2" points="233.3,159.2 231.8,164.8 205.1,164.8 213.1,133.8 221.1,133.8 214.4,159.2 					"/>
					<path class="st2" d="M203.9,143v0.3v0.7v0.7l-0.1,0.7l-0.1,0.6l-0.1,0.6l-0.1,0.6l-0.1,0.6l-0.1,0.6l-0.2,0.8l-0.2,0.8
						l-0.2,0.7l-0.3,0.7l-0.3,0.7l-0.3,0.7l-0.3,0.7l-0.4,0.7l-0.4,0.6l-0.4,0.6l-0.4,0.6l-0.4,0.6l-0.4,0.6l-0.5,0.6l-0.5,0.6
						l-0.5,0.5l-0.4,0.4l-0.4,0.3l-0.4,0.3l-0.4,0.3l-0.4,0.3l-0.4,0.3l-0.4,0.3l-0.4,0.3l-0.4,0.3l-0.4,0.3l-0.4,0.2l-0.4,0.2
						l-0.4,0.2l-0.4,0.2l-0.4,0.2l-0.4,0.2l-0.4,0.2l-0.5,0.2l-0.5,0.2l-0.5,0.1l-0.5,0.1l-0.5,0.1l-0.5,0.1l-0.5,0.1l-0.5,0.1
						l-0.5,0.1l-0.5,0.1l-0.5,0.1h-0.5h-0.5h-0.5h-0.5h-16.4l8.1-31h16.4c1.9,0,3.8,0.2,5.7,0.7l0.2,0.1l0.2,0.1l0.2,0.1l0.2,0.1
						l0.2,0.1l0.2,0.1l0.2,0.1l0.2,0.1h0.3l0.2,0.1l0.2,0.1l0.2,0.1l0.2,0.1l0.2,0.1l0.2,0.1l0.2,0.1l0.2,0.1l0.2,0.1l0.2,0.1
						l0.2,0.1l0.1,0.1l0.1,0.1l0.1,0.1l0.1,0.2l0.1,0.2l0.1,0.2l0.1,0.2l0.1,0.2l0.1,0.2l0.1,0.2l0.1,0.2l0.1,0.2l0.2,0.3l0.2,0.3
						l0.1,0.3l0.1,0.3l0.1,0.3l0.1,0.3l0.1,0.3l0.1,0.3l0.1,0.3l0.1,0.3l0.1,0.3l0.1,0.3v0.3v0.3L203.9,143z M195.8,144.8v-0.2v-0.2
						v-0.2V144v-0.2v-0.2v-0.2v-0.2V143v-0.2v-0.2l-0.1-0.2l-0.1-0.2l-0.1-0.2l-0.1-0.2l-0.1-0.2v-0.1v-0.1v-0.1v-0.1v-0.1V141
						l-0.1-0.1l-0.1-0.1l-0.1-0.1l-0.1-0.1l-0.1-0.1l-0.1-0.1l-0.1-0.1l-0.1-0.1l-0.1-0.1l-0.1-0.1l-0.1-0.1l-0.1-0.1l-0.1-0.1
						l-0.1-0.1h-0.1l-0.1-0.1l-0.1-0.1h-0.1l-0.1-0.1h-0.1h-0.1h-0.1H193h-0.1h-0.1h-0.1l-0.2-0.1l-0.2-0.1l-0.2-0.1l-0.2-0.1
						l-0.2-0.1h-0.3h-0.3h-0.3h-0.3h-0.3h-0.3h-0.3H189h-0.7H181l-5,20.6h7.3h0.4h0.3h0.3h0.3h0.3h0.3l0.3-0.1l0.3-0.1l0.3-0.1
						l0.3-0.1l0.3-0.1l0.3-0.1l0.3-0.1l0.3-0.1l0.3-0.1l0.3-0.1l0.3-0.1l0.3-0.2l0.3-0.2l0.3-0.2l0.3-0.2l0.3-0.2l0.3-0.2l0.2-0.2
						l0.2-0.2l0.2-0.2l0.2-0.2l0.2-0.2l0.2-0.2l0.2-0.3l0.2-0.3l0.2-0.3l0.2-0.3l0.2-0.3l0.2-0.3l0.2-0.3l0.2-0.3l0.2-0.4l0.2-0.4
						l0.2-0.4l0.2-0.4l0.2-0.4l0.1-0.4l0.1-0.4l0.1-0.4l0.1-0.4l0.1-0.4l0.1-0.4l0.1-0.6l0.1-0.6l0.1-0.5l0.1-0.5l0.1-0.5l0.1-0.5
						v-0.2v-0.2v-0.2L195.8,144.8z"/>
					<path class="st2" d="M165.8,143v0.3v0.7v0.7v0.7l-0.1,0.6l-0.1,0.6l-0.1,0.6l-0.1,0.6l-0.1,0.6l-0.2,0.8l-0.2,0.8l-0.3,0.7
						l-0.3,0.7l-0.3,0.7l-0.3,0.7l-0.3,0.7l-0.4,0.7l-0.4,0.6l-0.4,0.6l-0.4,0.6l-0.4,0.6l-0.4,0.6l-0.5,0.6l-0.5,0.6l-0.5,0.5
						l-0.4,0.4l-0.4,0.3l-0.4,0.3l-0.4,0.3l-0.4,0.3l-0.4,0.3l-0.4,0.3l-0.4,0.3l-0.4,0.3l-0.4,0.3l-0.4,0.2l-0.4,0.2l-0.4,0.2
						l-0.4,0.2l-0.4,0.2l-0.4,0.2l-0.4,0.2l-0.5,0.2l-0.5,0.2l-0.5,0.1l-0.5,0.1l-0.5,0.1l-0.5,0.1l-0.5,0.1l-0.5,0.1l-0.5,0.1
						l-0.5,0.1l-0.5,0.1h-0.5h-0.5h-0.5h-0.5h-16.4l8.1-31h16.4c1.9,0,3.8,0.2,5.7,0.7l0.2,0.1l0.2,0.1l0.2,0.1l0.2,0.1l0.2,0.1
						l0.2,0.1l0.2,0.1l0.2,0.1l0.2,0.1l0.2,0.1l0.2,0.1l0.2,0.1l0.2,0.1l0.2,0.1l0.2,0.1l0.2,0.1l0.2,0.1l0.2,0.1l0.2,0.1l0.2,0.1
						l0.2,0.1l0.1,0.1l0.1,0.1l0.1,0.2l0.1,0.2l0.1,0.2l0.1,0.2l0.1,0.2l0.1,0.2l0.1,0.2l0.1,0.2l0.1,0.2l0.2,0.3l0.2,0.3l0.1,0.3
						l0.1,0.3l0.1,0.3l0.1,0.3l0.1,0.3l0.1,0.3l0.1,0.3l0.1,0.3l0.1,0.3v0.3v0.3v0.3L165.8,143z M157.6,144.8v-0.2v-0.2v-0.2V144
						v-0.2v-0.2v-0.2v-0.2V143v-0.2l-0.1-0.2l-0.1-0.2l-0.1-0.2l-0.1-0.2l-0.1-0.2l-0.1-0.2v-0.1v-0.1v-0.1v-0.1v-0.1l-0.1-0.1v-0.1
						l-0.1-0.1l-0.1-0.1l-0.1-0.1l-0.1-0.1l-0.1-0.1l-0.1-0.1l-0.1-0.1l-0.1-0.1L156,140l-0.1-0.1l-0.1-0.1l-0.1-0.1l-0.1-0.1h-0.1
						l-0.1-0.1l-0.1-0.1h-0.1l-0.1-0.1H155h-0.1h-0.1h-0.1h-0.1h-0.1h-0.1l-0.2-0.1l-0.2-0.1l-0.2-0.1l-0.2-0.1l-0.2-0.1h-0.2h-0.3
						h-0.3h-0.3H152h-0.3h-0.3h-0.6h-0.7h-7.3l-5.3,20.2h7.3h0.4h0.3h0.3h0.3h0.3h0.3l0.3-0.1l0.3-0.1l0.3-0.1l0.3-0.1l0.3-0.1
						l0.3-0.1l0.3-0.1l0.3-0.1l0.3-0.1l0.3-0.1l0.3-0.1l0.3-0.2l0.3-0.2l0.3-0.2l0.3-0.2l0.3-0.2l0.3-0.2l0.2-0.2l0.2-0.2l0.2-0.2
						l0.2-0.2l0.2-0.2l0.2-0.2l0.2-0.3l0.2-0.3l0.2-0.3l0.2-0.3l0.2-0.3l0.2-0.3l0.2-0.3l0.2-0.3l0.2-0.4l0.2-0.4l0.2-0.4l0.2-0.4
						l0.2-0.4l0.2-0.4l0.1-0.4l0.1-0.4l0.1-0.4l0.1-0.4l0.1-0.4l0.1-0.6l0.1-0.6l0.1-0.5l0.1-0.5l0.1-0.5l0.1-0.5v-0.2v-0.2v-0.2
						L157.6,144.8L157.6,144.8z"/>
					<path class="st2" d="M124.4,136.4c3.1,2.9,3.9,7.1,2.4,12.8c-1.5,5.6-4.5,9.8-9.1,12.8c-3.5,2.4-7.9,3.6-13.4,3.6
						c-5.4,0-9.3-1.2-11.5-3.6c-3.1-3-3.9-7.2-2.4-12.8c1.5-5.7,4.5-9.9,9.1-12.8c3.5-2.4,7.9-3.6,13.4-3.6
						C118.3,132.8,122.1,134,124.4,136.4z M118.9,149.2c0.9-3.5,0.7-6.2-0.7-8.1c-1.4-1.9-3.6-2.9-6.7-2.9s-5.9,1-8.3,2.8
						c-2.4,1.9-4,4.6-4.9,8.1s-0.7,6.2,0.7,8.1c1.4,1.9,3.6,2.8,6.8,2.8s5.9-0.9,8.2-2.8C116.3,155.4,118,152.7,118.9,149.2z"/>
					<polygon class="st2" points="88.3,133.8 80.2,164.8 72.3,164.8 75.9,150.9 61,150.9 57.5,164.8 49.6,164.8 57.7,133.8 
						65.5,133.8 62.4,145.6 77.3,145.6 80.4,133.8 					"/>
				</g>
				<g>
					<line class="st3" x1="57.5" y1="164.8" x2="49.6" y2="164.8"/>
					<line class="st3" x1="61" y1="150.9" x2="57.5" y2="164.8"/>
					<line class="st3" x1="75.9" y1="150.9" x2="61" y2="150.9"/>
					<line class="st3" x1="72.3" y1="164.8" x2="75.9" y2="150.9"/>
					<line class="st3" x1="80.2" y1="164.8" x2="72.3" y2="164.8"/>
					<line class="st3" x1="88.3" y1="133.8" x2="80.2" y2="164.8"/>
					<line class="st3" x1="80.4" y1="133.8" x2="88.3" y2="133.8"/>
					<line class="st3" x1="77.3" y1="145.6" x2="80.4" y2="133.8"/>
					<line class="st3" x1="62.4" y1="145.6" x2="77.3" y2="145.6"/>
					<line class="st3" x1="65.5" y1="133.8" x2="62.4" y2="145.6"/>
					<line class="st3" x1="57.7" y1="133.8" x2="65.5" y2="133.8"/>
					<line class="st3" x1="49.6" y1="164.8" x2="57.7" y2="133.8"/>
					<path class="st3" d="M118.9,149.2c0.9-3.5,0.7-6.2-0.7-8.1c-1.4-1.9-3.6-2.9-6.7-2.9s-5.9,1-8.3,2.8c-2.4,1.9-4,4.6-4.9,8.1
						s-0.7,6.2,0.7,8.1c1.4,1.9,3.6,2.8,6.8,2.8s5.9-0.9,8.2-2.8C116.3,155.4,118,152.7,118.9,149.2z"/>
					<path class="st3" d="M124.4,136.4c3.1,2.9,3.9,7.1,2.4,12.8c-1.5,5.6-4.5,9.8-9.1,12.8"/>
					<path class="st3" d="M99.5,136.4c3.5-2.4,7.9-3.6,13.4-3.6c5.4,0,9.3,1.2,11.5,3.6"/>
					<path class="st3" d="M92.8,162c-3.1-3-3.9-7.2-2.4-12.8c1.5-5.7,4.5-9.9,9.1-12.8"/>
					<path class="st3" d="M117.7,162c-3.5,2.4-7.9,3.6-13.4,3.6c-5.4,0-9.3-1.2-11.5-3.6"/>
					<polyline class="st3" points="137.9,159.4 145.2,159.4 145.6,159.4 145.9,159.4 146.3,159.4 146.6,159.3 146.9,159.3 
						147.3,159.2 147.6,159.2 147.9,159.1 148.2,159 148.5,159 148.8,158.9 149.2,158.8 149.4,158.7 149.7,158.5 150,158.4 
						150.3,158.3 150.6,158.1 150.9,158 151.1,157.8 151.4,157.6 151.7,157.4 151.9,157.3 152.2,157.1 152.4,156.9 152.7,156.6 
						152.9,156.4 153.1,156.2 153.4,155.9 153.6,155.7 153.8,155.4 154.1,155.2 154.3,154.9 154.5,154.6 154.7,154.2 154.9,153.9 
						155.1,153.6 155.3,153.2 155.5,152.9 155.7,152.5 155.9,152.1 156,151.8 156.2,151.4 156.4,151 156.5,150.6 156.6,150.2 
						156.8,149.8 156.9,149.4 157,149 157.1,148.4 157.3,147.8 157.4,147.3 157.5,146.7 157.5,146.2 157.6,145.7 157.6,145.5 
						157.6,145.2 157.6,145 157.6,144.8 157.6,144.5 157.6,144.3 157.6,144.1 157.6,143.9 157.6,143.7 157.6,143.5 157.5,143.3 
						157.5,143.1 157.5,142.9 157.4,142.7 157.4,142.5 157.3,142.4 157.3,142.2 157.2,142 157.1,141.9 157.1,141.7 157,141.6 
						157,141.5 157,141.5 156.9,141.4 156.9,141.3 156.8,141.2 156.8,141.2 156.7,141.1 156.7,141 156.6,141 156.6,140.9 
						156.5,140.8 156.4,140.8 156.4,140.7 156.3,140.6 156.2,140.6 156.2,140.5 156.1,140.5 156,140.4 155.9,140.4 155.9,140.3 
						155.8,140.2 155.7,140.2 155.6,140.1 155.5,140.1 155.4,140 155.3,140 155.2,140 155.2,139.9 155.1,139.9 155,139.8 
						154.9,139.8 154.6,139.7 154.4,139.6 154.2,139.6 154,139.5 153.7,139.5 153.5,139.4 153.2,139.4 152.9,139.3 152.7,139.3 
						152.4,139.2 152.1,139.2 151.8,139.2 151.2,139.2 150.5,139.2 143.2,139.2 					"/>
					<line class="st3" x1="143.2" y1="139.2" x2="137.9" y2="159.4"/>
					<path class="st3" d="M136.9,133.8h16.4c1.9,0,3.8,0.2,5.7,0.7"/>
					<line class="st3" x1="128.8" y1="164.8" x2="136.9" y2="133.8"/>
					<polyline class="st3" points="159,134.4 159.2,134.5 159.4,134.6 159.6,134.7 159.9,134.7 160.1,134.8 160.3,134.9 160.5,135 
						160.7,135.1 160.9,135.2 161.1,135.3 161.3,135.4 161.5,135.5 161.6,135.6 161.8,135.7 162,135.8 162.2,136 162.3,136.1 
						162.5,136.2 162.7,136.3 162.8,136.5 163,136.6 163.1,136.8 163.3,136.9 163.4,137.1 163.5,137.2 163.7,137.4 163.8,137.5 
						163.9,137.7 164.1,137.9 164.2,138 164.3,138.2 164.4,138.4 164.6,138.7 164.7,139 164.9,139.3 165,139.6 165.1,139.9 
						165.2,140.2 165.4,140.5 165.4,140.8 165.5,141.1 165.6,141.4 165.7,141.7 165.7,142.1 165.8,142.4 165.8,142.7 165.8,143 
						165.8,143.4 165.8,144.1 165.8,144.7 165.7,145.4 165.7,146 165.6,146.7 165.5,147.3 165.3,147.9 165.2,148.5 165,149.3 
						164.8,150 164.5,150.8 164.2,151.5 163.9,152.2 163.6,152.9 163.3,153.6 162.9,154.2 162.6,154.9 162.2,155.5 161.8,156.1 
						161.3,156.7 160.9,157.3 160.4,157.9 159.9,158.5 159.4,159 159.1,159.4 158.7,159.7 158.3,160 158,160.4 157.6,160.7 
						157.2,161 156.8,161.3 156.4,161.5 156,161.8 155.6,162 155.2,162.3 154.8,162.5 154.4,162.7 153.9,163 153.5,163.1 
						153.1,163.3 152.6,163.5 152.2,163.7 151.7,163.8 151.2,164 150.8,164.1 150.3,164.2 149.8,164.3 149.3,164.4 148.8,164.5 
						148.3,164.6 147.8,164.6 147.3,164.7 146.8,164.7 146.3,164.8 145.7,164.8 145.2,164.8 128.8,164.8 					"/>
					<polyline class="st3" points="176,159.4 183.4,159.4 183.7,159.4 184.1,159.4 184.4,159.4 184.7,159.3 185.1,159.3 
						185.4,159.2 185.7,159.2 186,159.1 186.4,159 186.7,159 187,158.9 187.3,158.8 187.6,158.7 187.9,158.5 188.1,158.4 
						188.4,158.3 188.7,158.1 189,158 189.3,157.8 189.5,157.6 189.8,157.4 190,157.3 190.3,157.1 190.5,156.9 190.8,156.6 
						191,156.4 191.3,156.2 191.5,155.9 191.7,155.7 192,155.4 192.2,155.2 192.4,154.9 192.6,154.6 192.8,154.2 193,153.9 
						193.3,153.6 193.5,153.2 193.6,152.9 193.8,152.5 194,152.1 194.2,151.8 194.3,151.4 194.5,151 194.6,150.6 194.8,150.2 
						194.9,149.8 195,149.4 195.1,149 195.3,148.4 195.4,147.8 195.5,147.3 195.6,146.7 195.7,146.2 195.7,145.7 195.7,145.5 
						195.7,145.2 195.8,145 195.8,144.8 195.8,144.5 195.8,144.3 195.7,144.1 195.7,143.9 195.7,143.7 195.7,143.5 195.7,143.3 
						195.6,143.1 195.6,142.9 195.5,142.7 195.5,142.5 195.4,142.4 195.4,142.2 195.3,142 195.3,141.9 195.2,141.7 195.2,141.6 
						195.1,141.5 195.1,141.5 195,141.4 195,141.3 194.9,141.2 194.9,141.2 194.8,141.1 194.8,141 194.7,141 194.7,140.9 
						194.6,140.8 194.5,140.8 194.5,140.7 194.4,140.6 194.4,140.6 194.3,140.5 194.2,140.5 194.1,140.4 194.1,140.4 194,140.3 
						193.9,140.2 193.8,140.2 193.7,140.1 193.6,140.1 193.6,140 193.5,140 193.4,140 193.3,139.9 193.2,139.9 193.1,139.8 
						193,139.8 192.8,139.7 192.5,139.6 192.3,139.6 192.1,139.5 191.8,139.5 191.6,139.4 191.3,139.4 191.1,139.3 190.8,139.3 
						190.5,139.2 190.2,139.2 189.9,139.2 189.3,139.2 188.6,139.2 181.3,139.2 					"/>
					<line class="st3" x1="181.3" y1="139.2" x2="176" y2="159.4"/>
					<path class="st3" d="M175,133.8h16.4c1.9,0,3.8,0.2,5.7,0.7"/>
					<line class="st3" x1="166.9" y1="164.8" x2="175" y2="133.8"/>
					<polyline class="st3" points="197.1,134.4 197.3,134.5 197.5,134.6 197.8,134.7 198,134.7 198.2,134.8 198.4,134.9 198.6,135 
						198.8,135.1 199,135.2 199.2,135.3 199.4,135.4 199.6,135.5 199.8,135.6 199.9,135.7 200.1,135.8 200.3,136 200.5,136.1 
						200.6,136.2 200.8,136.3 200.9,136.5 201.1,136.6 201.2,136.8 201.4,136.9 201.5,137.1 201.7,137.2 201.8,137.4 201.9,137.5 
						202.1,137.7 202.2,137.9 202.3,138 202.4,138.2 202.5,138.4 202.7,138.7 202.8,139 203,139.3 203.1,139.6 203.3,139.9 
						203.4,140.2 203.5,140.5 203.6,140.8 203.6,141.1 203.7,141.4 203.8,141.7 203.8,142.1 203.9,142.4 203.9,142.7 203.9,143 
						203.9,143.4 203.9,144.1 203.9,144.7 203.8,145.4 203.8,146 203.7,146.7 203.6,147.3 203.5,147.9 203.3,148.5 203.1,149.3 
						202.9,150 202.6,150.8 202.3,151.5 202.1,152.2 201.7,152.9 201.4,153.6 201.1,154.2 200.7,154.9 200.3,155.5 199.9,156.1 
						199.5,156.7 199,157.3 198.5,157.9 198.1,158.5 197.5,159 197.2,159.4 196.8,159.7 196.5,160 196.1,160.4 195.7,160.7 
						195.3,161 194.9,161.3 194.5,161.5 194.1,161.8 193.7,162 193.3,162.3 192.9,162.5 192.5,162.7 192.1,163 191.6,163.1 
						191.2,163.3 190.7,163.5 190.3,163.7 189.8,163.8 189.4,164 188.9,164.1 188.4,164.2 187.9,164.3 187.4,164.4 186.9,164.5 
						186.4,164.6 185.9,164.6 185.4,164.7 184.9,164.7 184.4,164.8 183.9,164.8 183.3,164.8 166.9,164.8 					"/>
					<line class="st3" x1="205.1" y1="164.8" x2="213.1" y2="133.8"/>
					<line class="st3" x1="231.8" y1="164.8" x2="205.1" y2="164.8"/>
					<line class="st3" x1="233.3" y1="159.2" x2="231.8" y2="164.8"/>
					<line class="st3" x1="214.4" y1="159.2" x2="233.3" y2="159.2"/>
					<line class="st3" x1="221.1" y1="133.8" x2="214.4" y2="159.2"/>
					<line class="st3" x1="213.1" y1="133.8" x2="221.1" y2="133.8"/>
					<line class="st3" x1="273.5" y1="133.8" x2="272" y2="139.3"/>
					<line class="st3" x1="245.6" y1="133.8" x2="273.5" y2="133.8"/>
					<line class="st3" x1="237.5" y1="164.8" x2="245.6" y2="133.8"/>
					<line class="st3" x1="266.3" y1="164.8" x2="237.5" y2="164.8"/>
					<line class="st3" x1="267.8" y1="159.2" x2="266.3" y2="164.8"/>
					<line class="st3" x1="246.7" y1="159.2" x2="267.8" y2="159.2"/>
					<line class="st3" x1="248.8" y1="151.2" x2="246.7" y2="159.2"/>
					<line class="st3" x1="267.3" y1="151.2" x2="248.8" y2="151.2"/>
					<line class="st3" x1="268.7" y1="145.8" x2="267.3" y2="151.2"/>
					<line class="st3" x1="250.2" y1="145.8" x2="268.7" y2="145.8"/>
					<line class="st3" x1="251.9" y1="139.3" x2="250.2" y2="145.8"/>
					<line class="st3" x1="272" y1="139.3" x2="251.9" y2="139.3"/>
					<line class="st3" x1="326.1" y1="143.4" x2="318.3" y2="143.4"/>
					<path class="st3" d="M291.3,161.3c-2.6-2.9-3.3-6.8-2-11.7c1.3-5,4-9,8.2-12.1c4.2-3,9-4.6,14.6-4.6c4.8,0,8.4,1,10.9,3
						c2.4,2,3.4,4.5,3.1,7.5"/>
					<path class="st3" d="M315.6,160.9c-0.1,0.1-0.1,0.1-0.2,0.2c-1.8,1.4-3.4,2.4-4.7,3c-2.4,1.1-5.1,1.6-8.1,1.6
						c-5,0-8.8-1.4-11.3-4.3"/>
					<line class="st3" x1="315.4" y1="164.8" x2="315.6" y2="160.9"/>
					<line class="st3" x1="315.4" y1="164.8" x2="315.4" y2="161.1"/>
					<line class="st3" x1="320.7" y1="164.8" x2="315.4" y2="164.8"/>
					<line class="st3" x1="325" y1="148.1" x2="320.7" y2="164.8"/>
					<line class="st3" x1="309.2" y1="148.1" x2="325" y2="148.1"/>
					<line class="st3" x1="307.8" y1="153.3" x2="309.2" y2="148.1"/>
					<line class="st3" x1="316.6" y1="153.3" x2="307.8" y2="153.3"/>
					<path class="st3" d="M318.3,143.4c-0.1-2.1-1.1-3.6-3.2-4.4c-1.2-0.5-2.6-0.7-4.2-0.7c-3.1,0-5.8,0.9-8.3,2.8s-4.2,4.7-5.2,8.5
						s-0.6,6.5,1.1,8.1s3.9,2.4,6.6,2.4s5-0.6,7.1-1.9c2-1.3,3.5-2.9,4.4-4.9"/>
					<polyline class="st3" points="340.7,147.5 349.7,147.5 350.3,147.5 350.9,147.5 351.5,147.4 351.8,147.4 352,147.4 
						352.3,147.3 352.5,147.3 352.8,147.3 353,147.2 353.2,147.2 353.4,147.1 353.6,147 353.8,147 354,146.9 354.1,146.9 
						354.3,146.8 354.4,146.7 354.6,146.7 354.7,146.6 354.9,146.5 355,146.4 355.1,146.3 355.2,146.3 355.4,146.2 355.5,146.1 
						355.6,146 355.7,145.9 355.8,145.8 355.9,145.7 356,145.6 356.1,145.4 356.2,145.3 356.3,145.2 356.4,145.1 356.5,145 
						356.6,144.8 356.6,144.7 356.7,144.5 356.8,144.4 356.8,144.3 356.9,144.1 357,144 357,143.8 357.1,143.6 357.1,143.5 
						357.1,143.3 357.2,143.1 357.2,143 357.2,142.8 357.3,142.7 357.3,142.5 357.3,142.3 357.3,142.3 357.3,142.2 357.3,142.1 
						357.3,142.1 357.3,142 357.3,141.9 357.3,141.8 357.3,141.8 357.3,141.7 357.3,141.6 357.2,141.6 357.2,141.5 357.2,141.4 
						357.2,141.4 357.2,141.3 357.2,141.3 357.2,141.2 357.1,141.1 357.1,141.1 357.1,141 357.1,141 357,140.9 357,140.8 357,140.8 
						357,140.7 356.9,140.7 356.9,140.6 356.9,140.6 356.8,140.5 356.8,140.5 356.8,140.4 356.7,140.4 356.7,140.3 356.6,140.3 
						356.6,140.3 356.5,140.2 356.5,140.2 356.5,140.1 356.4,140.1 356.4,140 356.3,140 356.3,140 356.2,139.9 356.1,139.9 
						356.1,139.9 356,139.8 356,139.8 355.9,139.8 355.9,139.7 355.8,139.7 355.7,139.7 355.6,139.6 355.6,139.6 355.5,139.6 
						355.4,139.5 355.3,139.5 355.2,139.5 355.1,139.5 354.9,139.4 354.7,139.4 354.5,139.3 354.3,139.3 354,139.3 353.8,139.2 
						353.5,139.2 353.3,139.2 352.7,139.2 352.1,139.2 342.8,139.2 					"/>
					<line class="st3" x1="342.8" y1="139.2" x2="340.7" y2="147.5"/>
					<path class="st3" d="M355.1,133.8c2.6,0,4.6,0.3,5.9,0.8s2.3,1.2,3.1,2.2"/>
					<line class="st3" x1="336.5" y1="133.8" x2="355.1" y2="133.8"/>
					<line class="st3" x1="328.4" y1="164.8" x2="336.5" y2="133.8"/>
					<line class="st3" x1="336.2" y1="164.8" x2="328.4" y2="164.8"/>
					<line class="st3" x1="339.3" y1="152.6" x2="336.2" y2="164.8"/>
					<path class="st3" d="M351.4,164.8l-0.1-1.7c0-0.9,0.1-1.8,0.4-2.7l0.7-2.9l0.1-0.4l0.1-0.3l0.1-0.3v-0.2v-0.2v-0.2v-0.1v-0.2
						v-0.1v-0.1v-0.1v-0.1v-0.1V155v-0.1v-0.1v-0.1v-0.1v-0.1v-0.1v-0.1v-0.1l0,0v-0.1l0,0l0,0V154l0,0l0,0l0,0l0,0l0,0l0,0l0,0l0,0
						l0,0l0,0l0,0l0,0l0,0l0,0l0,0l0,0l0,0l0,0l0,0l0,0l0,0l0,0l0,0l0,0l0,0l0,0l0,0l0,0h-0.1l-0.1-0.1h-0.1h-0.1h-0.1h-0.1H352
						h-0.1h-0.1h-0.1h-0.1h-0.1l-0.3-0.1h-0.3h-0.4h-0.4h-0.4h-0.4h-0.4h-8.2"/>
					<line class="st3" x1="360.1" y1="164.8" x2="351.4" y2="164.8"/>
					<line class="st3" x1="360.3" y1="164" x2="360.1" y2="164.8"/>
					<polyline class="st3" points="357.5,150 357.8,150.1 358.1,150.2 358.2,150.3 358.3,150.3 358.5,150.4 358.6,150.4 
						358.7,150.5 358.8,150.6 358.9,150.6 359,150.7 359.2,150.8 359.3,150.9 359.4,150.9 359.5,151 359.5,151.1 359.6,151.2 
						359.7,151.2 359.8,151.3 359.9,151.4 360,151.5 360,151.6 360.1,151.7 360.2,151.8 360.3,151.9 360.3,151.9 360.4,152 
						360.4,152.1 360.5,152.2 360.5,152.3 360.6,152.4 360.6,152.5 360.6,152.5 360.6,152.6 360.6,152.6 360.7,152.7 360.7,152.8 
						360.7,153 360.8,153.1 360.8,153.2 360.8,153.3 360.8,153.4 360.8,153.6 360.9,153.7 360.9,153.9 360.9,154 360.9,154.1 
						360.9,154.3 360.9,154.4 360.9,154.6 360.8,154.7 360.8,155.1 360.8,155.4 360.7,155.7 360.7,156.1 360.6,156.5 360.5,156.9 
						360.4,157.3 359.9,159.4 359.6,160.3 359.5,160.8 359.5,161.1 359.4,161.5 359.4,161.6 359.4,161.8 359.3,161.9 359.3,162 
						359.3,162.1 359.3,162.2 359.3,162.2 359.3,162.3 359.3,162.4 359.3,162.5 359.3,162.5 359.3,162.6 359.4,162.7 359.4,162.7 
						359.4,162.8 359.4,162.9 359.4,162.9 359.4,163 359.5,163 359.5,163.1 359.5,163.1 359.5,163.2 359.5,163.2 359.5,163.2 
						359.5,163.3 359.6,163.3 359.6,163.3 359.6,163.3 359.6,163.4 359.6,163.4 359.6,163.4 359.7,163.4 359.7,163.5 359.7,163.5 
						359.7,163.5 359.7,163.5 359.8,163.6 359.8,163.6 359.8,163.6 359.8,163.6 359.9,163.7 359.9,163.7 360,163.8 360,163.8 
						360.1,163.9 360.1,163.9 360.2,163.9 360.2,164 360.3,164 					"/>
					<path class="st3" d="M364.1,136.7c0.6,0.8,1,1.7,1.3,2.6c0.2,1,0.2,2-0.1,3.3c-0.4,1.5-1.2,2.9-2.5,4.3s-3,2.4-5.3,3"/>
					<line class="st3" x1="381.7" y1="133.8" x2="373.6" y2="164.8"/>
					<line class="st3" x1="373.8" y1="133.8" x2="381.7" y2="133.8"/>
					<line class="st3" x1="365.7" y1="164.8" x2="373.8" y2="133.8"/>
					<line class="st3" x1="373.6" y1="164.8" x2="365.7" y2="164.8"/>
					<polyline class="st3" points="390.1,159.4 397.4,159.4 397.8,159.4 398.1,159.4 398.5,159.4 398.8,159.3 399.1,159.3 
						399.5,159.2 399.8,159.2 400.1,159.1 400.4,159 400.7,159 401,158.9 401.3,158.8 401.6,158.7 401.9,158.5 402.2,158.4 
						402.5,158.3 402.8,158.1 403.1,158 403.3,157.8 403.6,157.6 403.9,157.4 404.1,157.3 404.4,157.1 404.6,156.9 404.9,156.6 
						405.1,156.4 405.3,156.2 405.6,155.9 405.8,155.7 406,155.4 406.2,155.2 406.5,154.9 406.7,154.6 406.9,154.2 407.1,153.9 
						407.3,153.6 407.5,153.2 407.7,152.9 407.9,152.5 408.1,152.1 408.2,151.8 408.4,151.4 408.6,151 408.7,150.6 408.8,150.2 
						409,149.8 409.1,149.4 409.2,149 409.3,148.4 409.5,147.8 409.6,147.3 409.7,146.7 409.7,146.2 409.8,145.7 409.8,145.5 
						409.8,145.2 409.8,145 409.8,144.8 409.8,144.5 409.8,144.3 409.8,144.1 409.8,143.9 409.8,143.7 409.8,143.5 409.7,143.3 
						409.7,143.1 409.7,142.9 409.6,142.7 409.6,142.5 409.5,142.4 409.5,142.2 409.4,142 409.3,141.9 409.3,141.7 409.2,141.6 
						409.2,141.5 409.1,141.5 409.1,141.4 409.1,141.3 409,141.2 409,141.2 408.9,141.1 408.9,141 408.8,141 408.7,140.9 
						408.7,140.8 408.6,140.8 408.6,140.7 408.5,140.6 408.4,140.6 408.4,140.5 408.3,140.5 408.2,140.4 408.1,140.4 408,140.3 
						408,140.2 407.9,140.2 407.8,140.1 407.7,140.1 407.6,140 407.5,140 407.4,140 407.3,139.9 407.2,139.9 407.1,139.8 407,139.8 
						406.8,139.7 406.6,139.6 406.4,139.6 406.2,139.5 405.9,139.5 405.7,139.4 405.4,139.4 405.1,139.3 404.9,139.3 404.6,139.2 
						404.3,139.2 404,139.2 403.4,139.2 402.7,139.2 395.4,139.2 					"/>
					<line class="st3" x1="395.4" y1="139.2" x2="390.1" y2="159.4"/>
					<path class="st3" d="M389.1,133.8h16.4c1.9,0,3.8,0.2,5.7,0.7"/>
					<line class="st3" x1="381" y1="164.8" x2="389.1" y2="133.8"/>
					<polyline class="st3" points="411.1,134.4 411.4,134.5 411.6,134.6 411.8,134.7 412,134.7 412.3,134.8 412.5,134.9 412.7,135 
						412.9,135.1 413.1,135.2 413.3,135.3 413.5,135.4 413.7,135.5 413.8,135.6 414,135.7 414.2,135.8 414.4,136 414.5,136.1 
						414.7,136.2 414.9,136.3 415,136.5 415.2,136.6 415.3,136.8 415.5,136.9 415.6,137.1 415.7,137.2 415.9,137.4 416,137.5 
						416.1,137.7 416.2,137.9 416.4,138 416.5,138.2 416.6,138.4 416.8,138.7 416.9,139 417.1,139.3 417.2,139.6 417.3,139.9 
						417.4,140.2 417.5,140.5 417.6,140.8 417.7,141.1 417.8,141.4 417.8,141.7 417.9,142.1 417.9,142.4 418,142.7 418,143 
						418,143.4 418,144.1 418,144.7 417.9,145.4 417.8,146 417.8,146.7 417.7,147.3 417.5,147.9 417.4,148.5 417.2,149.3 416.9,150 
						416.7,150.8 416.4,151.5 416.1,152.2 415.8,152.9 415.5,153.6 415.1,154.2 414.8,154.9 414.4,155.5 414,156.1 413.5,156.7 
						413.1,157.3 412.6,157.9 412.1,158.5 411.6,159 411.3,159.4 410.9,159.7 410.5,160 410.2,160.4 409.8,160.7 409.4,161 
						409,161.3 408.6,161.5 408.2,161.8 407.8,162 407.4,162.3 407,162.5 406.6,162.7 406.1,163 405.7,163.1 405.2,163.3 
						404.8,163.5 404.3,163.7 403.9,163.8 403.4,164 402.9,164.1 402.5,164.2 402,164.3 401.5,164.4 401,164.5 400.5,164.6 
						400,164.6 399.5,164.7 399,164.7 398.4,164.8 397.9,164.8 397.4,164.8 381,164.8 					"/>
					<line class="st3" x1="545.6" y1="182.2" x2="537.8" y2="182.2"/>
					<path class="st3" d="M510.8,200.1c-2.6-2.9-3.2-6.8-2-11.7c1.3-5,4-9,8.2-12.1c4.2-3,9-4.5,14.6-4.5c4.8,0,8.4,1,10.9,3
						c2.4,2,3.4,4.5,3.1,7.5"/>
					<path class="st3" d="M535.1,199.6c-0.1,0.1-0.1,0.1-0.2,0.2c-1.8,1.4-3.4,2.4-4.7,3c-2.4,1.1-5.1,1.6-8.1,1.6
						c-5,0-8.8-1.4-11.3-4.3"/>
					<line class="st3" x1="534.9" y1="203.5" x2="535.1" y2="199.6"/>
					<line class="st3" x1="534.9" y1="203.5" x2="534.9" y2="199.8"/>
					<line class="st3" x1="540.2" y1="203.5" x2="534.9" y2="203.5"/>
					<line class="st3" x1="544.5" y1="186.9" x2="540.2" y2="203.5"/>
					<line class="st3" x1="528.7" y1="186.9" x2="544.5" y2="186.9"/>
					<line class="st3" x1="527.3" y1="192" x2="528.7" y2="186.9"/>
					<line class="st3" x1="536.1" y1="192" x2="527.3" y2="192"/>
					<path class="st3" d="M537.8,182.2c-0.1-2.1-1.1-3.6-3.2-4.4c-1.2-0.5-2.6-0.7-4.2-0.7c-3.1,0-5.8,0.9-8.3,2.8
						c-2.5,1.9-4.2,4.7-5.2,8.5s-0.6,6.5,1.1,8.1c1.7,1.6,3.9,2.4,6.6,2.4c2.7,0,5-0.6,7-1.9s3.5-2.9,4.4-4.9"/>
					<path class="st3" d="M496.8,188c0.9-3.5,0.7-6.2-0.7-8.1c-1.4-1.9-3.6-2.9-6.7-2.9s-5.9,0.9-8.3,2.8c-2.4,1.9-4,4.6-4.9,8.1
						s-0.7,6.2,0.7,8.1c1.4,1.9,3.6,2.8,6.8,2.8s5.9-0.9,8.2-2.8C494.2,194.2,495.9,191.5,496.8,188z"/>
					<path class="st3" d="M502.3,175.2c3.1,2.8,3.9,7.1,2.4,12.8c-1.5,5.6-4.5,9.8-9.1,12.8"/>
					<path class="st3" d="M477.4,175.2c3.5-2.4,7.9-3.6,13.4-3.6c5.4,0,9.3,1.2,11.5,3.6"/>
					<path class="st3" d="M470.7,200.8c-3.1-3-3.9-7.2-2.4-12.8c1.5-5.7,4.5-9.9,9.1-12.8"/>
					<path class="st3" d="M495.6,200.8c-3.5,2.4-7.9,3.6-13.4,3.6c-5.4,0-9.3-1.2-11.5-3.6"/>
					<line class="st3" x1="433.4" y1="203.5" x2="441.5" y2="172.5"/>
					<line class="st3" x1="460.2" y1="203.5" x2="433.4" y2="203.5"/>
					<line class="st3" x1="461.6" y1="197.9" x2="460.2" y2="203.5"/>
					<line class="st3" x1="442.8" y1="197.9" x2="461.6" y2="197.9"/>
					<line class="st3" x1="449.4" y1="172.5" x2="442.8" y2="197.9"/>
					<line class="st3" x1="441.5" y1="172.5" x2="449.4" y2="172.5"/>
					<line class="st3" x1="416.8" y1="179.6" x2="408.7" y2="191.8"/>
					<line class="st3" x1="418.4" y1="191.8" x2="416.8" y2="179.6"/>
					<line class="st3" x1="408.7" y1="191.8" x2="418.4" y2="191.8"/>
					<line class="st3" x1="392.6" y1="203.5" x2="414.2" y2="172.5"/>
					<line class="st3" x1="400.9" y1="203.5" x2="392.6" y2="203.5"/>
					<line class="st3" x1="405.2" y1="197.1" x2="400.9" y2="203.5"/>
					<line class="st3" x1="419.2" y1="197.1" x2="405.2" y2="197.1"/>
					<line class="st3" x1="420" y1="203.5" x2="419.2" y2="197.1"/>
					<line class="st3" x1="428.6" y1="203.5" x2="420" y2="203.5"/>
					<line class="st3" x1="423.2" y1="172.5" x2="428.6" y2="203.5"/>
					<line class="st3" x1="414.2" y1="172.5" x2="423.2" y2="172.5"/>
					<line class="st3" x1="368" y1="172.5" x2="398.7" y2="172.5"/>
					<line class="st3" x1="366.5" y1="178" x2="368" y2="172.5"/>
					<line class="st3" x1="377.9" y1="178" x2="366.5" y2="178"/>
					<line class="st3" x1="371.3" y1="203.5" x2="377.9" y2="178"/>
					<line class="st3" x1="379.3" y1="203.5" x2="371.3" y2="203.5"/>
					<line class="st3" x1="385.9" y1="178" x2="379.3" y2="203.5"/>
					<line class="st3" x1="397.3" y1="178" x2="385.9" y2="178"/>
					<line class="st3" x1="398.7" y1="172.5" x2="397.3" y2="178"/>
					<line class="st3" x1="346.4" y1="179.6" x2="338.4" y2="191.8"/>
					<line class="st3" x1="348" y1="191.8" x2="346.4" y2="179.6"/>
					<line class="st3" x1="338.4" y1="191.8" x2="348" y2="191.8"/>
					<line class="st3" x1="322.3" y1="203.5" x2="343.9" y2="172.5"/>
					<line class="st3" x1="330.6" y1="203.5" x2="322.3" y2="203.5"/>
					<line class="st3" x1="334.8" y1="197.1" x2="330.6" y2="203.5"/>
					<line class="st3" x1="348.8" y1="197.1" x2="334.8" y2="197.1"/>
					<line class="st3" x1="349.6" y1="203.5" x2="348.8" y2="197.1"/>
					<line class="st3" x1="358.2" y1="203.5" x2="349.6" y2="203.5"/>
					<line class="st3" x1="352.8" y1="172.5" x2="358.2" y2="203.5"/>
					<line class="st3" x1="343.9" y1="172.5" x2="352.8" y2="172.5"/>
					<path class="st3" d="M321.6,192.9c-1.6,3.4-4,6.1-7.4,8.3c-3.4,2.2-7.3,3.2-11.7,3.2c-5.5,0-9.4-1.4-11.8-4.3
						c-2.4-2.9-2.9-6.8-1.6-11.8c1.4-5.4,4.3-9.6,8.6-12.5"/>
					<line class="st3" x1="313.8" y1="192.9" x2="321.6" y2="192.9"/>
					<path class="st3" d="M316.4,182.8c-0.1-1.5-0.5-2.6-1.1-3.4c-1.1-1.3-3-2-5.9-2s-5.4,0.9-7.6,2.9c-2.2,1.9-3.7,4.6-4.6,8.1
						s-0.7,6.1,0.6,7.8c1.3,1.7,3.3,2.6,6,2.6c2.8,0,5.1-0.8,7-2.2c1-0.8,2-2,2.9-3.6"/>
					<line class="st3" x1="324.3" y1="182.8" x2="316.4" y2="182.8"/>
					<path class="st3" d="M297.7,175.7c3.8-2.5,8-3.8,12.8-3.8c6.4,0,10.6,1.7,12.7,5.1c1.1,1.9,1.5,3.8,1.1,5.8"/>
				</g>
			</g>
		</g>
	</g>
</g>
<g id="_x32_S2">
	<g id="WHITEOUT">
		<polygon class="st2" points="545.7,0 49.6,0 49.6,66.8 		"/>
	</g>
	<g id="S_x27_s">
		<path class="st4" d="M517.8,45.7c0.4,0.7,0.9,1.3,1.5,1.8c0.6,0.5,1.4,0.8,2.3,1c0.9,0.2,1.8,0.3,2.7,0.3c0.6,0,1.3-0.1,2-0.2
			c0.7-0.1,1.4-0.3,2-0.6c0.6-0.3,1.1-0.7,1.6-1.2c0.4-0.5,0.6-1.2,0.6-2c0-0.9-0.3-1.6-0.8-2.1c-0.6-0.5-1.3-1-2.2-1.3
			c-0.9-0.4-1.9-0.7-3-0.9c-1.1-0.3-2.3-0.6-3.4-0.9c-1.2-0.3-2.4-0.7-3.5-1.1c-1.1-0.4-2.1-1-3-1.7c-0.9-0.7-1.6-1.5-2.2-2.6
			c-0.6-1-0.8-2.3-0.8-3.7c0-1.6,0.3-3.1,1-4.3c0.7-1.2,1.6-2.2,2.7-3c1.1-0.8,2.4-1.4,3.8-1.8c1.4-0.4,2.9-0.6,4.3-0.6
			c1.7,0,3.3,0.2,4.8,0.6c1.5,0.4,2.9,1,4.1,1.8c1.2,0.8,2.1,1.9,2.8,3.2c0.7,1.3,1,2.9,1,4.7h-6.8c-0.1-1-0.3-1.7-0.6-2.4
			c-0.3-0.6-0.8-1.1-1.4-1.5c-0.6-0.4-1.2-0.6-1.9-0.8c-0.7-0.1-1.5-0.2-2.4-0.2c-0.6,0-1.1,0.1-1.7,0.2c-0.6,0.1-1.1,0.3-1.5,0.6
			c-0.5,0.3-0.8,0.7-1.1,1.1c-0.3,0.4-0.4,1-0.4,1.7c0,0.6,0.1,1.1,0.4,1.5c0.2,0.4,0.7,0.7,1.4,1.1c0.7,0.3,1.7,0.7,2.9,1
			c1.2,0.3,2.9,0.7,4.9,1.3c0.6,0.1,1.4,0.3,2.5,0.6c1.1,0.3,2.1,0.8,3.2,1.5c1,0.7,1.9,1.6,2.7,2.8c0.8,1.1,1.1,2.6,1.1,4.4
			c0,1.5-0.3,2.8-0.8,4.1c-0.6,1.2-1.4,2.3-2.5,3.2c-1.1,0.9-2.5,1.6-4.2,2.1c-1.7,0.5-3.6,0.8-5.7,0.8c-1.8,0-3.5-0.2-5.1-0.7
			c-1.7-0.4-3.1-1.1-4.4-2c-1.3-0.9-2.3-2.1-3-3.5c-0.7-1.4-1.1-3.1-1.1-5.1h6.8C517.2,44,517.4,45,517.8,45.7z"/>
		<path class="st5" d="M65.3,45.7c0.4,0.7,0.9,1.3,1.5,1.8c0.6,0.5,1.4,0.8,2.3,1c0.9,0.2,1.8,0.3,2.7,0.3c0.6,0,1.3-0.1,2-0.2
			c0.7-0.1,1.4-0.3,2-0.6c0.6-0.3,1.1-0.7,1.6-1.2c0.4-0.5,0.6-1.2,0.6-2c0-0.9-0.3-1.6-0.8-2.1c-0.6-0.5-1.3-1-2.2-1.3
			c-0.9-0.4-1.9-0.7-3-0.9c-1.1-0.3-2.3-0.6-3.4-0.9c-1.2-0.3-2.4-0.7-3.5-1.1c-1.1-0.4-2.1-1-3-1.7c-0.9-0.7-1.6-1.5-2.2-2.6
			c-0.6-1-0.8-2.3-0.8-3.7c0-1.6,0.3-3.1,1-4.3c0.7-1.2,1.6-2.2,2.8-3c1.1-0.8,2.4-1.4,3.8-1.8c1.4-0.4,2.9-0.6,4.3-0.6
			c1.7,0,3.3,0.2,4.8,0.6c1.5,0.4,2.9,1,4.1,1.8c1.2,0.8,2.1,1.9,2.8,3.2c0.7,1.3,1,2.9,1,4.7h-6.8c-0.1-1-0.3-1.7-0.6-2.4
			c-0.3-0.6-0.8-1.1-1.4-1.5c-0.6-0.4-1.2-0.6-1.9-0.8c-0.7-0.1-1.5-0.2-2.4-0.2c-0.6,0-1.1,0.1-1.7,0.2c-0.6,0.1-1.1,0.3-1.5,0.6
			c-0.5,0.3-0.8,0.7-1.1,1.1c-0.3,0.4-0.4,1-0.4,1.7c0,0.6,0.1,1.1,0.4,1.5c0.2,0.4,0.7,0.7,1.4,1.1c0.7,0.3,1.7,0.7,2.9,1
			c1.2,0.3,2.9,0.7,4.9,1.3c0.6,0.1,1.4,0.3,2.5,0.6c1.1,0.3,2.1,0.8,3.2,1.5c1,0.7,1.9,1.6,2.7,2.8c0.8,1.1,1.1,2.6,1.1,4.4
			c0,1.5-0.3,2.8-0.8,4.1c-0.6,1.3-1.4,2.3-2.5,3.2c-1.1,0.9-2.5,1.6-4.2,2.1c-1.7,0.5-3.6,0.8-5.7,0.8c-1.8,0-3.5-0.2-5.1-0.7
			c-1.7-0.4-3.1-1.1-4.4-2c-1.3-0.9-2.3-2.1-3-3.5c-0.7-1.4-1.1-3.1-1.1-5.1h6.8C64.7,44,64.9,45,65.3,45.7z"/>
	</g>
	<g id="_x32_">
		<path class="st6" d="M287,14c4.1-3.8,9.4-5.7,16-5.7c2.6,0,5.1,0.3,7.4,1c2.3,0.7,4.3,1.7,6.1,3.2c1.7,1.4,3.1,3.2,4.1,5.4
			c1,2.2,1.5,4.8,1.5,7.7c0,2.8-0.6,5.3-1.8,7.5c-1.2,2.2-2.8,4.2-4.7,6c-1.9,1.8-4.1,3.4-6.5,4.9c-2.4,1.5-4.8,2.9-7.3,4.3
			c-2.4,1.4-4.7,2.8-6.9,4.1c-2.2,1.4-4,2.8-5.5,4.4h28.2l-2.3,10h-42.4c0.2-3.6,1-6.6,2.4-9.3c1.4-2.6,3.1-4.9,5.2-6.9
			c2.1-2,4.5-3.8,7.2-5.4c2.7-1.6,5.4-3.1,8.2-4.6c1.4-0.8,3-1.7,4.6-2.5c1.7-0.9,3.2-1.9,4.7-3c1.4-1.1,2.7-2.4,3.6-3.8
			c1-1.4,1.5-3.1,1.5-5c0-2.9-0.9-5-2.6-6.2c-1.7-1.2-3.8-1.8-6.3-1.8c-1.6,0-3,0.3-4.3,0.9c-1.3,0.6-2.4,1.5-3.3,2.6
			c-0.9,1.1-1.6,2.3-2.1,3.8c-0.5,1.4-0.8,2.9-0.9,4.5h-11.1C280.6,23.2,282.9,17.8,287,14z"/>
	</g>
</g>
</svg>
