<?xml version="1.0" encoding="utf-8"?>
<!-- Generator: Adobe Illustrator 26.2.1, SVG Export Plug-In . SVG Version: 6.00 Build 0)  -->
<svg version="1.1" id="BANNER" xmlns="http://www.w3.org/2000/svg" xmlns:xlink="http://www.w3.org/1999/xlink" x="0px" y="0px"
	 viewBox="0 0 595.3 140" style="enable-background:new 0 0 595.3 140;" xml:space="preserve">
<style type="text/css">
	.st0{display:none;fill:#0000FF;}
	.st1{fill:none;stroke:#FEFEFF;stroke-width:0.5;stroke-dasharray:1.5909,1.5909;}
	.st2{fill:#FFFFFF;}
	.st3{fill:none;stroke:#FEFEFF;stroke-width:0.7955;stroke-miterlimit:10;}
</style>
<rect x="-44.9" y="-26.9" class="st0" width="688" height="536"/>
<g id="BANNER_DASHED_1_">
	<g id="LINE_97_">
		<line class="st1" x1="418" y1="34.8" x2="418" y2="56.6"/>
	</g>
	<g id="LINE_96_">
		<line class="st1" x1="508.2" y1="106.1" x2="508.2" y2="84.2"/>
	</g>
	<g id="LINE_95_">
		<line class="st1" x1="545.7" y1="72.3" x2="545.7" y2="94.3"/>
	</g>
	<g id="LINE_94_">
		<line class="st1" x1="505.4" y1="74.2" x2="505.4" y2="96"/>
	</g>
	<g id="LINE_93_">
		<line class="st1" x1="467.6" y1="106.1" x2="467.6" y2="84.2"/>
	</g>
	<g id="POLYLINE_3_">
		<path class="st1" d="M389.1,25h16.4c1.9,0,3.8,0.2,5.7,0.7"/>
	</g>
	<g id="ARC_9_">
		<path class="st1" d="M418,34.8c0.1-4.2-2.7-8-6.8-9.1"/>
	</g>
	<g id="LINE_92_">
		<line class="st1" x1="544.5" y1="100.1" x2="544.5" y2="95.4"/>
	</g>
	<g id="LINE_91_">
		<line class="st1" x1="528.7" y1="100.1" x2="528.7" y2="90.3"/>
	</g>
	<g id="LINE_90_">
		<line class="st1" x1="527.3" y1="105.2" x2="527.3" y2="90.6"/>
	</g>
	<g id="SPLINE_9_">
		<path class="st1" d="M508.2,84.2c0-1.4,0.2-2.9,0.6-4.6c1.3-5,4-9,8.2-12.1c4.2-3,9-4.5,14.6-4.5c4.8,0,8.4,1,10.9,3
			c2.1,1.8,3.2,3.9,3.2,6.4"/>
	</g>
	<g id="ARC_8_">
		<path class="st1" d="M505.4,74.2c0.1-2.9-1-5.7-3.1-7.7"/>
	</g>
	<g id="SPLINE_8_">
		<path class="st1" d="M477.4,66.4c3.5-2.4,7.9-3.6,13.4-3.6c5.4,0,9.3,1.2,11.5,3.6"/>
	</g>
	<g id="SPLINE_7_">
		<path class="st1" d="M467.6,84.2c0-1.5,0.2-3.2,0.7-5c1.5-5.7,4.5-9.9,9.1-12.8"/>
	</g>
	<g id="LINE_89_">
		<line class="st1" x1="433.4" y1="116.7" x2="433.4" y2="94.8"/>
	</g>
	<g id="LINE_88_">
		<line class="st1" x1="461.6" y1="111.1" x2="461.6" y2="89.2"/>
	</g>
	<g id="LINE_87_">
		<line class="st1" x1="449.4" y1="85.7" x2="449.4" y2="63.8"/>
	</g>
	<g id="LINE_86_">
		<line class="st1" x1="441.5" y1="63.8" x2="441.5" y2="85.7"/>
	</g>
	<g id="LINE_85_">
		<line class="st1" x1="433.4" y1="94.8" x2="441.5" y2="63.8"/>
	</g>
	<g id="LINE_84_">
		<line class="st1" x1="448.5" y1="89.2" x2="461.6" y2="89.2"/>
	</g>
	<g id="LINE_83_">
		<line class="st1" x1="441.5" y1="63.8" x2="449.4" y2="63.8"/>
	</g>
	<g id="LINE_82_">
		<line class="st1" x1="392.6" y1="116.7" x2="392.6" y2="94.8"/>
	</g>
	<g id="LINE_81_">
		<line class="st1" x1="428.6" y1="116.7" x2="428.6" y2="94.8"/>
	</g>
	<g id="LINE_80_">
		<line class="st1" x1="423.2" y1="85.7" x2="423.2" y2="63.8"/>
	</g>
	<g id="LINE_79_">
		<line class="st1" x1="414.2" y1="68.9" x2="414.2" y2="85.7"/>
	</g>
	<g id="LINE_78_">
		<line class="st1" x1="398.6" y1="86.2" x2="405.4" y2="76.5"/>
	</g>
	<g id="LINE_77_">
		<line class="st1" x1="392.6" y1="94.8" x2="395.1" y2="91.2"/>
	</g>
	<g id="LINE_76_">
		<line class="st1" x1="423.2" y1="63.8" x2="428.6" y2="94.8"/>
	</g>
	<g id="LINE_75_">
		<line class="st1" x1="416.8" y1="63.8" x2="423.2" y2="63.8"/>
	</g>
	<g id="LINE_74_">
		<line class="st1" x1="368" y1="85.7" x2="368" y2="78"/>
	</g>
	<g id="LINE_73_">
		<line class="st1" x1="366.5" y1="91.2" x2="366.5" y2="78"/>
	</g>
	<g id="LINE_72_">
		<line class="st1" x1="371.3" y1="116.7" x2="371.3" y2="94.8"/>
	</g>
	<g id="LINE_71_">
		<line class="st1" x1="398.7" y1="78" x2="398.7" y2="85.7"/>
	</g>
	<g id="LINE_70_">
		<line class="st1" x1="371.3" y1="94.8" x2="372.2" y2="91.2"/>
	</g>
	<g id="LINE_69_">
		<line class="st1" x1="322.3" y1="116.7" x2="322.3" y2="96"/>
	</g>
	<g id="LINE_68_">
		<line class="st1" x1="358.2" y1="116.7" x2="358.2" y2="94.8"/>
	</g>
	<g id="LINE_67_">
		<line class="st1" x1="352.9" y1="85.7" x2="352.9" y2="78"/>
	</g>
	<g id="LINE_66_">
		<line class="st1" x1="343.9" y1="65.8" x2="343.9" y2="85.7"/>
	</g>
	<g id="LINE_65_">
		<line class="st1" x1="337.5" y1="73" x2="342.4" y2="65.8"/>
	</g>
	<g id="LINE_64_">
		<line class="st1" x1="324.5" y1="91.6" x2="334" y2="78"/>
	</g>
	<g id="LINE_63_">
		<line class="st1" x1="355.3" y1="78" x2="358.2" y2="94.8"/>
	</g>
	<g id="LINE_62_">
		<line class="st1" x1="321.6" y1="106.2" x2="321.6" y2="96"/>
	</g>
	<g id="LINE_61_">
		<line class="st1" x1="313.8" y1="106.2" x2="313.8" y2="91.5"/>
	</g>
	<g id="LINE_60_">
		<line class="st1" x1="365.6" y1="31.9" x2="365.6" y2="53.8"/>
	</g>
	<g id="SPLINE_6_">
		<path class="st1" d="M355.1,25c2.6,0,4.6,0.3,5.9,0.8s2.3,1.2,3.1,2.2"/>
	</g>
	<g id="LINE_59_">
		<line class="st1" x1="336.5" y1="25" x2="355.1" y2="25"/>
	</g>
	<g id="LINE_58_">
		<line class="st1" x1="381.7" y1="47" x2="381.7" y2="25"/>
	</g>
	<g id="LINE_57_">
		<line class="st1" x1="373.8" y1="47" x2="373.8" y2="25"/>
	</g>
	<g id="LINE_56_">
		<line class="st1" x1="365.7" y1="78" x2="365.7" y2="56.1"/>
	</g>
	<g id="LINE_55_">
		<line class="st1" x1="373.8" y1="25" x2="381.7" y2="25"/>
	</g>
	<g id="LINE_54_">
		<line class="st1" x1="365.7" y1="56.1" x2="373.8" y2="25"/>
	</g>
	<g id="LINE_53_">
		<line class="st1" x1="389.1" y1="47" x2="389.1" y2="25"/>
	</g>
	<g id="LINE_52_">
		<line class="st1" x1="381" y1="78" x2="381" y2="56.1"/>
	</g>
	<g id="LINE_51_">
		<line class="st1" x1="381" y1="56.1" x2="389.1" y2="25"/>
	</g>
	<g id="LINE_50_">
		<line class="st1" x1="377.3" y1="63.8" x2="381" y2="63.8"/>
	</g>
	<g id="LINE_49_">
		<line class="st1" x1="127.5" y1="35.4" x2="127.5" y2="57.3"/>
	</g>
	<g id="LINE_48_">
		<line class="st1" x1="89.7" y1="67.4" x2="89.7" y2="45.5"/>
	</g>
	<g id="LINE_47_">
		<line class="st1" x1="165.8" y1="34.8" x2="165.8" y2="56.6"/>
	</g>
	<g id="LINE_46_">
		<line class="st1" x1="203.9" y1="34.8" x2="203.9" y2="56.6"/>
	</g>
	<g id="LINE_45_">
		<line class="st1" x1="288.7" y1="67.3" x2="288.7" y2="45.5"/>
	</g>
	<g id="LINE_44_">
		<line class="st1" x1="326.1" y1="33.6" x2="326.1" y2="55.6"/>
	</g>
	<g id="LINE_43_">
		<line class="st1" x1="351.3" y1="66.3" x2="351.3" y2="76.3"/>
	</g>
	<g id="LINE_42_">
		<line class="st1" x1="360.9" y1="61.8" x2="360.9" y2="67.3"/>
	</g>
	<g id="LINE_41_">
		<line class="st1" x1="288.4" y1="106.3" x2="288.4" y2="84.5"/>
	</g>
	<g id="LINE_40_">
		<line class="st1" x1="324.5" y1="72.6" x2="324.5" y2="94.5"/>
	</g>
	<g id="LINE_39_">
		<line class="st1" x1="72.3" y1="78" x2="72.3" y2="64.1"/>
	</g>
	<g id="LINE_38_">
		<line class="st1" x1="88.3" y1="47" x2="88.3" y2="25"/>
	</g>
	<g id="LINE_37_">
		<line class="st1" x1="80.4" y1="47" x2="80.4" y2="25"/>
	</g>
	<g id="LINE_36_">
		<line class="st1" x1="77.3" y1="58.8" x2="77.3" y2="36.9"/>
	</g>
	<g id="LINE_35_">
		<line class="st1" x1="65.5" y1="47" x2="65.5" y2="25"/>
	</g>
	<g id="LINE_34_">
		<line class="st1" x1="57.7" y1="47" x2="57.7" y2="25"/>
	</g>
	<g id="LINE_33_">
		<line class="st1" x1="49.6" y1="56.1" x2="49.6" y2="78"/>
	</g>
	<g id="LINE_32_">
		<line class="st1" x1="80.4" y1="25" x2="88.3" y2="25"/>
	</g>
	<g id="LINE_31_">
		<line class="st1" x1="77.3" y1="36.9" x2="80.4" y2="25"/>
	</g>
	<g id="LINE_30_">
		<line class="st1" x1="65.5" y1="36.9" x2="77.3" y2="36.9"/>
	</g>
	<g id="LINE_29_">
		<line class="st1" x1="57.7" y1="25" x2="65.5" y2="25"/>
	</g>
	<g id="LINE_28_">
		<line class="st1" x1="49.6" y1="56.1" x2="57.7" y2="25"/>
	</g>
	<g id="ARC_7_">
		<path class="st1" d="M127.5,35.4c0.1-2.9-1-5.7-3.1-7.7"/>
	</g>
	<g id="SPLINE_5_">
		<path class="st1" d="M99.5,27.7c3.5-2.4,7.9-3.6,13.4-3.6s9.3,1.2,11.5,3.6"/>
	</g>
	<g id="SPLINE_4_">
		<path class="st1" d="M89.7,45.5c0-1.5,0.2-3.2,0.7-5c1.5-5.7,4.5-9.9,9.1-12.8"/>
	</g>
	<g id="LINE_27_">
		<line class="st1" x1="136.9" y1="47" x2="136.9" y2="25"/>
	</g>
	<g id="LINE_26_">
		<line class="st1" x1="128.8" y1="78" x2="128.8" y2="56.1"/>
	</g>
	<g id="POLYLINE_2_">
		<path class="st1" d="M136.9,25h16.4c1.9,0,3.8,0.2,5.7,0.7"/>
	</g>
	<g id="LINE_25_">
		<line class="st1" x1="128.8" y1="56.1" x2="136.9" y2="25"/>
	</g>
	<g id="ARC_6_">
		<path class="st1" d="M165.8,34.8c0.1-4.2-2.7-8-6.8-9.1"/>
	</g>
	<g id="LINE_24_">
		<line class="st1" x1="175" y1="47" x2="175" y2="25"/>
	</g>
	<g id="LINE_23_">
		<line class="st1" x1="167" y1="78" x2="167" y2="56.1"/>
	</g>
	<g id="POLYLINE_1_">
		<path class="st1" d="M175,25h16.4c1.9,0,3.8,0.2,5.7,0.7"/>
	</g>
	<g id="LINE_22_">
		<line class="st1" x1="167" y1="56.1" x2="175" y2="25"/>
	</g>
	<g id="ARC_5_">
		<path class="st1" d="M203.9,34.8c0.1-4.2-2.7-8-6.8-9.1"/>
	</g>
	<g id="LINE_21_">
		<line class="st1" x1="205.1" y1="78" x2="205.1" y2="56.1"/>
	</g>
	<g id="LINE_20_">
		<line class="st1" x1="233.3" y1="72.4" x2="233.3" y2="50.5"/>
	</g>
	<g id="LINE_19_">
		<line class="st1" x1="221.1" y1="47" x2="221.1" y2="25"/>
	</g>
	<g id="LINE_18_">
		<line class="st1" x1="213.1" y1="25" x2="213.1" y2="47"/>
	</g>
	<g id="LINE_17_">
		<line class="st1" x1="205.1" y1="56.1" x2="213.1" y2="25"/>
	</g>
	<g id="LINE_16_">
		<line class="st1" x1="220.2" y1="50.5" x2="233.3" y2="50.5"/>
	</g>
	<g id="LINE_15_">
		<line class="st1" x1="213.1" y1="25" x2="221.1" y2="25"/>
	</g>
	<g id="LINE_14_">
		<line class="st1" x1="273.5" y1="47" x2="273.5" y2="25"/>
	</g>
	<g id="LINE_13_">
		<line class="st1" x1="245.6" y1="47" x2="245.6" y2="25"/>
	</g>
	<g id="LINE_12_">
		<line class="st1" x1="237.5" y1="78" x2="237.5" y2="56.1"/>
	</g>
	<g id="LINE_11_">
		<line class="st1" x1="267.8" y1="72.4" x2="267.8" y2="62.5"/>
	</g>
	<g id="LINE_10_">
		<line class="st1" x1="268.7" y1="59" x2="268.7" y2="52.5"/>
	</g>
	<g id="LINE_9_">
		<line class="st1" x1="245.6" y1="25" x2="273.5" y2="25"/>
	</g>
	<g id="LINE_8_">
		<line class="st1" x1="237.5" y1="56.1" x2="245.6" y2="25"/>
	</g>
	<g id="LINE_7_">
		<line class="st1" x1="325" y1="61.3" x2="325" y2="56.6"/>
	</g>
	<g id="LINE_6_">
		<line class="st1" x1="309.2" y1="61.3" x2="309.2" y2="51.6"/>
	</g>
	<g id="LINE_5_">
		<line class="st1" x1="307.8" y1="66.5" x2="307.8" y2="51.8"/>
	</g>
	<g id="SPLINE_3_">
		<path class="st1" d="M288.7,45.5c0-1.4,0.2-2.9,0.6-4.6c1.3-5,4-9,8.2-12.1c4.2-3,9-4.5,14.6-4.5c4.8,0,8.4,1,10.9,3
			c2.1,1.7,3.2,3.9,3.2,6.4"/>
	</g>
	<g id="LINE_4_">
		<line class="st1" x1="336.5" y1="47" x2="336.5" y2="25"/>
	</g>
	<g id="LINE_3_">
		<line class="st1" x1="328.4" y1="78" x2="328.4" y2="56.1"/>
	</g>
	<g id="LINE_2_">
		<line class="st1" x1="360.3" y1="77.2" x2="360.3" y2="70.9"/>
	</g>
	<g id="LINE_1_">
		<line class="st1" x1="328.4" y1="56.1" x2="336.5" y2="25"/>
	</g>
	<g id="ARC_4_">
		<path class="st1" d="M365.6,31.9c0-1.4-0.5-2.8-1.4-3.9"/>
	</g>
	<g id="ARC_2_">
		<path class="st1" d="M291.1,74.4c-1.6,3.1-2.6,6.6-2.7,10.1"/>
	</g>
	<g id="ARC_1_">
		<path class="st1" d="M324.5,72.6c0-1.5-0.5-3-1.3-4.3"/>
	</g>
</g>
<g id="BANNER_1_">
	<g id="SPLINE_2_">
		<g id="XMLID_2_">
			<g>
				<path class="st2" d="M542.5,87.9c2.4,2,3.4,4.5,3.1,7.5h-7.8c-0.1-2.1-1.1-3.6-3.2-4.4c-1.2-0.5-2.6-0.7-4.2-0.7
					c-3.1,0-5.8,0.9-8.3,2.8s-4.2,4.7-5.2,8.5s-0.6,6.5,1.1,8.1c1.7,1.6,3.9,2.4,6.6,2.4c2.7,0,5-0.6,7-1.9s3.5-2.9,4.4-4.9h-8.8
					l1.4-5.2h15.8l-4.3,16.6h-5.3l0.2-3.9c-0.1,0.1-0.1,0.1-0.2,0.2c-1.8,1.4-3.4,2.4-4.7,3c-2.4,1.1-5.1,1.6-8.1,1.6
					c-5,0-8.8-1.4-11.3-4.3c-2.6-2.9-3.2-6.8-2-11.7c1.3-5,4-9,8.2-12.1c4.2-3,9-4.5,14.6-4.5C536.5,84.9,540.1,85.9,542.5,87.9z"/>
				<path class="st2" d="M502.3,88.4c3.1,2.8,3.9,7.1,2.4,12.8c-1.5,5.6-4.5,9.8-9.1,12.8c-3.5,2.4-7.9,3.6-13.4,3.6
					c-5.4,0-9.3-1.2-11.5-3.6c-3.1-3-3.9-7.2-2.4-12.8c1.5-5.7,4.5-9.9,9.1-12.8c3.5-2.4,7.9-3.6,13.4-3.6
					C496.2,84.7,500,86,502.3,88.4z M496.8,101.2c0.9-3.5,0.7-6.2-0.7-8.1c-1.4-1.9-3.6-2.9-6.7-2.9s-5.9,0.9-8.3,2.8
					s-4,4.6-4.9,8.1s-0.7,6.2,0.7,8.1c1.4,1.9,3.6,2.8,6.8,2.8s5.9-0.9,8.2-2.8C494.2,107.4,495.9,104.7,496.8,101.2z"/>
				<polygon class="st2" points="461.6,111.1 460.2,116.7 433.4,116.7 441.5,85.7 449.4,85.7 442.8,111.1 				"/>
				<path class="st2" d="M423.2,85.7l5.4,31H420l-0.8-6.4h-14l-4.3,6.4h-8.3l21.6-31H423.2z M418.4,105l-1.6-12.2l-8.1,12.2H418.4z"
					/>
				<path class="st2" d="M418,56.2v0.3v0.7v0.7v0.7l-0.1,0.6l-0.1,0.6l-0.1,0.6l-0.1,0.6l-0.1,0.6l-0.2,0.8l-0.2,0.8l-0.2,0.7
					l-0.3,0.7l-0.3,0.7L416,66l-0.3,0.7l-0.4,0.7l-0.4,0.6l-0.4,0.6l-0.4,0.6l-0.4,0.6l-0.5,0.6l-0.5,0.6l-0.5,0.6l-0.5,0.5
					l-0.4,0.4l-0.4,0.3l-0.4,0.3l-0.4,0.3l-0.4,0.3l-0.4,0.3l-0.4,0.3l-0.4,0.3l-0.4,0.3l-0.4,0.3l-0.4,0.2l-0.4,0.2l-0.4,0.2
					l-0.4,0.2l-0.4,0.2l-0.4,0.2l-0.4,0.2l-0.4,0.2L404,77l-0.5,0.1l-0.5,0.1l-0.5,0.1l-0.5,0.1l-0.5,0.1l-0.5,0.1l-0.5,0.1
					l-0.5,0.1l-0.5,0.1H399h-0.5H398h-0.5H381l8.1-31h16.4c1.9,0,3.8,0.2,5.7,0.7l0.2,0.1l0.2,0.1l0.2,0.1L412,48l0.2,0.1l0.2,0.1
					l0.2,0.1l0.2,0.1l0.2,0.1l0.2,0.1l0.2,0.1l0.2,0.1l0.2,0.1L414,49l0.2,0.1l0.2,0.1l0.2,0.1l0.2,0.1l0.2,0.1l0.2,0.1l0.1,0.1
					l0.1,0.1l0.1,0.1l0.1,0.2l0.1,0.2l0.1,0.2l0.1,0.2l0.1,0.2l0.1,0.2l0.1,0.2l0.1,0.2l0.1,0.2l0.2,0.3l0.2,0.3l0.1,0.3l0.1,0.3
					l0.1,0.3l0.1,0.3l0.1,0.3l0.1,0.3l0.1,0.3l0.1,0.3l0.1,0.3l0.1,0.3v0.3v0.3L418,56.2z M409.8,58v-0.2v-0.2v-0.2v-0.2V57v-0.2
					v-0.2v-0.2v-0.2V56v-0.2v-0.2l-0.1-0.2l-0.1-0.2l-0.1-0.2l-0.1-0.2v-0.1v-0.1v-0.1v-0.1v-0.1l-0.4,0.1v-0.1l-0.1-0.1l-0.1-0.1
					l-0.1-0.1l-0.1-0.1l-0.1-0.1l-0.1-0.1l-0.1-0.1l-0.1-0.1l-0.1-0.1l-0.1-0.1l-0.1-0.1l-0.1-0.1l-0.1-0.1h-0.1l0.4,0.4l-0.1-0.1
					h-0.1l-0.1-0.1h-0.1h-0.1h-0.1h-0.1h-0.1h-0.1H407l-0.2-0.1l-0.2-0.1l-0.2-0.1l-0.2-0.1l-0.2-0.1h-0.2h-0.3h-0.3h-0.3h-0.3h-0.3
					H404h-0.6h-0.7h-7.3l-5.3,20.2h7.3h0.4h0.4h0.3h0.3h0.3h0.3l0.3-0.1l0.3-0.1l0.3-0.1l0.3-0.1l0.3-0.1l0.3-0.1l0.3-0.1l0.3-0.1
					l0.3-0.1l0.3-0.1l0.3-0.1l0.3-0.2l0.3-0.2l0.3-0.2l0.3-0.2l0.3-0.2l0.3-0.2l0.2-0.2l0.2-0.2l0.2-0.2l0.2-0.2l0.2-0.2l0.2-0.2
					l0.2-0.3l0.2-0.3l0.2-0.3l0.2-0.3l0.2-0.3l0.2-0.3l0.2-0.3l0.2-0.3l0.2-0.4l0.2-0.4l0.2-0.4l0.2-0.4l0.2-0.4l0.2-0.4l0.1-0.4
					l0.1-0.4l0.1-0.4l0.1-0.4l0.1-0.4l0.1-0.6l0.1-0.6l0.1-0.5l0.1-0.5l0.1-0.5l0.1-0.5v-0.2V59v-0.2L409.8,58z"/>
				<polygon class="st2" points="398.7,85.7 397.3,91.2 385.9,91.2 379.3,116.7 371.3,116.7 377.9,91.2 366.5,91.2 368,85.7 				"/>
				<polygon class="st2" points="381.7,47 373.6,78 365.7,78 373.8,47 				"/>
				<path class="st2" d="M365.4,52.5c0.2,1,0.2,2-0.1,3.3c-0.4,1.5-1.2,2.9-2.5,4.3c-1.3,1.4-3,2.4-5.3,3l0.3,0.1l0.3,0.1l0.1,0.1
					l0.1,0.1l0.1,0.1l0.1,0.1l0.1,0.1l0.1,0.1l0.1,0.1l0.1,0.1l0.1,0.1l0.1,0.1l0.1,0.1l0.1,0.1l0.1,0.1l0.1,0.1l0.1,0.1l0.1,0.1
					l0.1,0.1l0.1,0.1l0.1,0.1l0.1,0.1l0.1,0.1l0.1,0.1l0.1,0.1l0.1,0.1l0.1,0.1l0.1,0.1V66v0.1l0,0v0.1v0.1v0.1v0.1v0.1v0.1v0.1v0.1
					V67v0.1v0.1v0.1v0.1v0.1v0.1v0.1v0.2v0.2v0.2v0.3v0.3l-0.1,0.3l-0.1,0.4l-0.1,0.4l-0.1,0.4l-0.1,0.4l-0.5,2.1l-0.2,1l-0.1,0.4
					l-0.1,0.4l-0.1,0.3v0.2v0.2v0.1v0.1v0.1v-0.3l0,0v0.1v0.1v0.1v0.1v0.1V76v0.1v0.1v0.1v0.1v0.1v0.1v0.1l0,0l0,0l0,0l0,0l0,0l0,0
					l0,0l0,0l0,0l0,0l0,0l0,0l0,0l0,0l0,0l0,0l0,0l0,0l0,0l0,0l0,0l0,0l0,0h0.1h0.1h0.1h0.1h0.1h0.1l-0.2,0.8h-8.7l-0.1-1.7
					c0-0.9,0.1-1.8,0.4-2.7l0.7-2.9v-0.4l0.1-0.3l0.1-0.3V69v-0.2v-0.2v-0.1v-0.2v-0.1v-0.1V68v-0.1v-0.1v-0.1v-0.1v-0.1v-0.1v-0.1
					v-0.1v-0.1V67v-0.1l0,0v-0.1l0,0l0,0v-0.1l0,0l0,0l0,0l0,0l0,0l0,0l0,0l0,0l0,0l0,0l0,0l0,0l0,0l0,0l0,0l0,0l0,0l0,0l0,0l0,0
					l0,0l0,0l0,0l0,0l0,0l0,0l0,0l0,0H352l-0.1-0.1h-0.1h-0.1h-0.1h-0.1h-0.1h-0.1h-0.1h-0.1H351h-0.1l-0.3-0.1h-0.3h-0.4h-0.4h-0.4
					h-0.4h-0.4h-8.2L337,78.7h-7.8l8.1-31h18.6c2.6,0,4.6,0.3,5.9,0.8s2.3,1.2,3.1,2.2C364.8,50.7,365.2,51.6,365.4,52.5z
					 M357.3,55.5L357.3,55.5L357.3,55.5v-0.2v-0.1v-0.1V55v-0.1v-0.1v-0.1v-0.1v-0.1v-0.1v-0.1v-0.1v-0.1V54v-0.1v-0.1v-0.1v-0.1
					v-0.1v-0.1l0,0v-0.1l0,0v-0.1l0,0l0,0l0,0l0,0l0,0l0,0l0,0l0,0l0,0l0,0h-0.1l0,0h-0.1l0,0H357h-0.1h-0.1h-0.1h-0.1h-0.1h-0.1
					h-0.1h-0.1h-0.1H356h-0.1h-0.1h-0.1h-0.1h-0.1h-0.1h-0.2H355h-0.2h-0.2h-0.2h-0.2h-0.3h-0.3H353h-0.6h-9.2l-2.2,8.3h9h0.6h0.6
					h0.6h0.3h0.3h0.3h0.2h0.2h0.2l0.2-0.1l0.2-0.1l0.2-0.1l0.2-0.1l0.2-0.1l0.2-0.1l0.1-0.1l0.1-0.1l0.1-0.1l0.1-0.1l0.1-0.1
					l0.1-0.1l0.1-0.1l0.1-0.1l0.1-0.1l0.1-0.1l0.1-0.1l0.1-0.1l0.1-0.1l0.1-0.1l0.1-0.1l0.1-0.1l0.1-0.1l0.1-0.1l0.1-0.1l0.1-0.1
					l0.1-0.1l0.1-0.1l0.1-0.1l0.1-0.1l0.1-0.1l0.1-0.2l0.1-0.2l0.1-0.2l0.1-0.2v-0.2v-0.2V57v-0.2v-0.2v-0.2v-0.2L357.3,55.5
					L357.3,55.5z"/>
				<path class="st2" d="M352.8,85.7l5.4,31h-8.6l-0.8-6.4h-14l-4.3,6.4h-8.3l21.6-31H352.8z M348,105l-1.6-12.2l-8.1,12.2H348z"/>
				<path class="st2" d="M323,49.2c2.4,2,3.4,4.5,3.1,7.5h-7.8c-0.1-2.1-1.1-3.6-3.2-4.4c-1.2-0.5-2.6-0.7-4.2-0.7
					c-3.1,0-5.8,0.9-8.3,2.8c-2.5,1.9-4.2,4.7-5.2,8.5c-1,3.8-0.6,6.5,1.1,8.1s3.9,2.4,6.6,2.4s5-0.6,7.1-1.9c2-1.3,3.5-2.9,4.4-4.9
					h-8.8l1.4-5.2H325L320.7,78h-5.3l0.2-3.9c-0.1,0.1-0.1,0.1-0.2,0.2c-1.8,1.4-3.4,2.4-4.7,3c-2.4,1.1-5.1,1.6-8.1,1.6
					c-5,0-8.8-1.4-11.3-4.3c-2.6-2.9-3.3-6.8-2-11.7c1.3-5,4-9,8.2-12.1c4.2-3,9-4.6,14.6-4.6C317,46.2,320.6,47.2,323,49.2z"/>
				<path class="st2" d="M323.2,90.2c1.1,1.9,1.5,3.8,1.1,5.8h-7.9c-0.1-1.5-0.5-2.6-1.1-3.4c-1.1-1.3-3-2-5.9-2s-5.4,0.9-7.6,2.9
					c-2.2,1.9-3.7,4.6-4.6,8.1s-0.7,6.1,0.6,7.8c1.3,1.7,3.3,2.6,6,2.6c2.8,0,5.1-0.8,7-2.2c1-0.8,2-2,2.9-3.6h7.9
					c-1.6,3.4-4,6.1-7.4,8.3s-7.3,3.2-11.7,3.2c-5.5,0-9.4-1.4-11.8-4.3s-2.9-6.8-1.6-11.8c1.4-5.4,4.3-9.6,8.6-12.5
					c3.8-2.5,8-3.8,12.8-3.8C316.9,85.1,321.1,86.8,323.2,90.2z"/>
				<polygon class="st2" points="273.5,47 272,52.5 251.9,52.5 250.2,59 268.7,59 267.3,64.4 248.8,64.4 246.7,72.4 267.8,72.4 
					266.3,78 237.5,78 245.6,47 				"/>
				<polygon class="st2" points="233.3,72.4 231.8,78 205.1,78 213.1,47 221.1,47 214.4,72.4 				"/>
				<path class="st2" d="M203.9,56.2v0.3v0.7v0.7l-0.1,0.7l-0.1,0.6l-0.1,0.6l-0.1,0.6l-0.1,0.6l-0.1,0.6l-0.2,0.8l-0.2,0.8
					l-0.2,0.7l-0.3,0.7l-0.3,0.7l-0.3,0.7l-0.3,0.7l-0.4,0.7l-0.4,0.6l-0.4,0.6l-0.4,0.6l-0.4,0.6l-0.4,0.6l-0.5,0.6l-0.5,0.6
					l-0.5,0.5l-0.4,0.4l-0.4,0.3l-0.4,0.3l-0.4,0.3l-0.4,0.3l-0.4,0.3l-0.4,0.3l-0.4,0.3l-0.4,0.3l-0.4,0.3l-0.4,0.2l-0.4,0.2
					l-0.4,0.2L192,76l-0.4,0.2l-0.4,0.2l-0.4,0.2l-0.5,0.2l-0.5,0.2l-0.5,0.1l-0.5,0.1l-0.5,0.1l-0.5,0.1l-0.5,0.1l-0.5,0.1
					l-0.5,0.1l-0.5,0.1l-0.5,0.1h-0.5h-0.5h-0.5h-0.5h-16.4l8.1-31h16.4c1.9,0,3.8,0.2,5.7,0.7l0.2,0.1l0.2,0.1l0.2,0.1l0.2,0.1
					l0.2,0.1l0.2,0.1l0.2,0.1l0.2,0.1l0.3,0l0.2,0.1l0.2,0.1l0.2,0.1l0.2,0.1l0.2,0.1l0.2,0.1l0.2,0.1l0.2,0.1l0.2,0.1l0.2,0.1
					l0.2,0.1l0.1,0.1l0.1,0.1l0.1,0.1l0.1,0.2l0.1,0.2l0.1,0.2l0.1,0.2l0.1,0.2l0.1,0.2l0.1,0.2l0.1,0.2l0.1,0.2l0.2,0.3l0.2,0.3
					l0.1,0.3l0.1,0.3l0.1,0.3l0.1,0.3l0.1,0.3l0.1,0.3l0.1,0.3l0.1,0.3l0.1,0.3l0.1,0.3v0.3v0.3L203.9,56.2z M195.8,58v-0.2v-0.2
					v-0.2v-0.2V57v-0.2v-0.2v-0.2v-0.2V56v-0.2l-0.1-0.2l-0.1-0.2l-0.1-0.2l-0.1-0.2l-0.1-0.2v-0.1v-0.1v-0.1v-0.1v-0.1v-0.1
					l-0.1-0.1l-0.1-0.1l-0.1-0.1l-0.1-0.1l-0.1-0.1l-0.1-0.1l-0.1-0.1l-0.1-0.1l-0.1-0.1l-0.1-0.1l-0.1-0.1l-0.1-0.1l-0.1-0.1
					l-0.1-0.1h-0.1l-0.1-0.1l-0.1-0.1h-0.1l-0.1-0.1h-0.1h-0.1h-0.1H193h-0.1h-0.1h-0.1l-0.2-0.1l-0.2-0.1l-0.2-0.1l-0.2-0.1
					l-0.2-0.1h-0.3h-0.3h-0.3h-0.3h-0.3h-0.3h-0.3H189h-0.7H181l-5,20.6h7.3h0.4h0.3h0.3h0.3h0.3h0.3l0.3-0.1l0.3-0.1l0.3-0.1
					l0.3-0.1l0.3-0.1L187,72l0.3-0.1l0.3-0.1l0.3-0.1l0.3-0.1l0.3-0.1l0.3-0.2l0.3-0.2l0.3-0.2l0.3-0.2l0.3-0.2l0.3-0.2l0.2-0.2
					l0.2-0.2l0.2-0.2l0.2-0.2l0.2-0.2l0.2-0.2l0.2-0.3l0.2-0.3l0.2-0.3l0.2-0.3l0.2-0.3l0.2-0.3l0.2-0.3l0.2-0.3l0.2-0.4l0.2-0.4
					l0.2-0.4l0.2-0.4l0.2-0.4l0.1-0.4l0.1-0.4l0.1-0.4l0.1-0.4l0.1-0.4l0.1-0.4l0.1-0.6l0.1-0.6l0.1-0.5l0.1-0.5l0.1-0.5l0.1-0.5
					v-0.2v-0.2v-0.2L195.8,58z"/>
				<path class="st2" d="M165.8,56.2v0.3v0.7v0.7v0.7l-0.1,0.6l-0.1,0.6l-0.1,0.6l-0.1,0.6l-0.1,0.6l-0.2,0.8l-0.2,0.8l-0.3,0.7
					l-0.3,0.7l-0.3,0.7l-0.3,0.7l-0.3,0.7l-0.4,0.7l-0.4,0.6l-0.4,0.6l-0.4,0.6l-0.4,0.6l-0.4,0.6l-0.5,0.6l-0.5,0.6l-0.5,0.5
					l-0.4,0.4l-0.4,0.3l-0.4,0.3l-0.4,0.3l-0.4,0.3l-0.4,0.3l-0.4,0.3l-0.4,0.3l-0.4,0.3l-0.4,0.3l-0.4,0.2l-0.4,0.2l-0.4,0.2
					l-0.4,0.2l-0.4,0.2l-0.4,0.2l-0.4,0.2l-0.5,0.2l-0.5,0.2l-0.5,0.1l-0.5,0.1l-0.5,0.1l-0.5,0.1l-0.5,0.1l-0.5,0.1l-0.5,0.1
					l-0.5,0.1l-0.5,0.1h-0.5h-0.5h-0.5h-0.5h-16.4l8.1-31h16.4c1.9,0,3.8,0.2,5.7,0.7l0.2,0.1l0.2,0.1l0.2,0.1l0.2,0.1l0.2,0.1
					l0.2,0.1l0.2,0.1l0.2,0.1l0.2,0.1l0.2,0.1l0.2,0.1l0.2,0.1l0.2,0.1l0.2,0.1l0.2,0.1l0.2,0.1l0.2,0.1l0.2,0.1l0.2,0.1l0.2,0.1
					l0.2,0.1l0.1,0.1l0.1,0.1l0.1,0.2l0.1,0.2l0.1,0.2l0.1,0.2l0.1,0.2l0.1,0.2l0.1,0.2l0.1,0.2l0.1,0.2l0.2,0.3l0.2,0.3l0.1,0.3
					l0.1,0.3l0.1,0.3l0.1,0.3l0.1,0.3l0.1,0.3l0.1,0.3l0.1,0.3l0.1,0.3v0.3v0.3v0.3L165.8,56.2z M157.6,58v-0.2v-0.2v-0.2v-0.2V57
					v-0.2v-0.2v-0.2v-0.2V56l-0.1-0.2l-0.1-0.2l-0.1-0.2l-0.1-0.2l-0.1-0.2l-0.1-0.2v-0.1v-0.1v-0.1v-0.1v-0.1l-0.1-0.1v-0.1
					l-0.1-0.1l-0.1-0.1l-0.1-0.1l-0.1-0.1l-0.1-0.1l-0.1-0.1l-0.1-0.1l-0.1-0.1l-0.1-0.1l-0.1-0.1l-0.1-0.1l-0.1-0.1l-0.1-0.1h-0.1
					l-0.1-0.1l-0.1-0.1h-0.1l-0.1-0.1H155h-0.1h-0.1h-0.1h-0.1h-0.1h-0.1l-0.2-0.1l-0.2-0.1l-0.2-0.1l-0.2-0.1l-0.2-0.1h-0.2h-0.3
					h-0.3h-0.3H152h-0.3h-0.3h-0.6h-0.7h-7.3l-5.3,20.2h7.3h0.4h0.3h0.3h0.3h0.3h0.3l0.3-0.1l0.3-0.1l0.3-0.1l0.3-0.1l0.3-0.1
					l0.3-0.1l0.3-0.1l0.3-0.1l0.3-0.1l0.3-0.1l0.3-0.1l0.3-0.2l0.3-0.2l0.3-0.2l0.3-0.2l0.3-0.2l0.3-0.2l0.2-0.2l0.2-0.2l0.2-0.2
					l0.2-0.2l0.2-0.2l0.2-0.2l0.2-0.3l0.2-0.3l0.2-0.3l0.2-0.3l0.2-0.3l0.2-0.3l0.2-0.3l0.2-0.3l0.2-0.4l0.2-0.4l0.2-0.4l0.2-0.4
					l0.2-0.4l0.2-0.4l0.1-0.4l0.1-0.4l0.1-0.4l0.1-0.4l0.1-0.4l0.1-0.6l0.1-0.6l0.1-0.5l0.1-0.5l0.1-0.5l0.1-0.5v-0.2v-0.2v-0.2
					L157.6,58L157.6,58z"/>
				<path class="st2" d="M124.4,49.6c3.1,2.9,3.9,7.1,2.4,12.8c-1.5,5.6-4.5,9.8-9.1,12.8c-3.5,2.4-7.9,3.6-13.4,3.6
					c-5.4,0-9.3-1.2-11.5-3.6c-3.1-3-3.9-7.2-2.4-12.8c1.5-5.7,4.5-9.9,9.1-12.8c3.5-2.4,7.9-3.6,13.4-3.6
					C118.3,46,122.1,47.2,124.4,49.6z M118.9,62.4c0.9-3.5,0.7-6.2-0.7-8.1c-1.4-1.9-3.6-2.9-6.7-2.9s-5.9,1-8.3,2.8
					c-2.4,1.9-4,4.6-4.9,8.1c-0.9,3.5-0.7,6.2,0.7,8.1c1.4,1.9,3.6,2.8,6.8,2.8s5.9-0.9,8.2-2.8C116.3,68.6,118,65.9,118.9,62.4z"/>
				<polygon class="st2" points="88.3,47 80.2,78 72.3,78 75.9,64.1 61,64.1 57.5,78 49.6,78 57.7,47 65.5,47 62.4,58.8 77.3,58.8 
					80.4,47 				"/>
			</g>
			<g>
				<line class="st3" x1="57.5" y1="78" x2="49.6" y2="78"/>
				<line class="st3" x1="61" y1="64.1" x2="57.5" y2="78"/>
				<line class="st3" x1="75.9" y1="64.1" x2="61" y2="64.1"/>
				<line class="st3" x1="72.3" y1="78" x2="75.9" y2="64.1"/>
				<line class="st3" x1="80.2" y1="78" x2="72.3" y2="78"/>
				<line class="st3" x1="88.3" y1="47" x2="80.2" y2="78"/>
				<line class="st3" x1="80.4" y1="47" x2="88.3" y2="47"/>
				<line class="st3" x1="77.3" y1="58.8" x2="80.4" y2="47"/>
				<line class="st3" x1="62.4" y1="58.8" x2="77.3" y2="58.8"/>
				<line class="st3" x1="65.5" y1="47" x2="62.4" y2="58.8"/>
				<line class="st3" x1="57.7" y1="47" x2="65.5" y2="47"/>
				<line class="st3" x1="49.6" y1="78" x2="57.7" y2="47"/>
				<path class="st3" d="M118.9,62.4c0.9-3.5,0.7-6.2-0.7-8.1c-1.4-1.9-3.6-2.9-6.7-2.9s-5.9,1-8.3,2.8c-2.4,1.9-4,4.6-4.9,8.1
					c-0.9,3.5-0.7,6.2,0.7,8.1c1.4,1.9,3.6,2.8,6.8,2.8s5.9-0.9,8.2-2.8C116.3,68.6,118,65.9,118.9,62.4z"/>
				<path class="st3" d="M124.4,49.6c3.1,2.9,3.9,7.1,2.4,12.8c-1.5,5.6-4.5,9.8-9.1,12.8"/>
				<path class="st3" d="M99.5,49.6c3.5-2.4,7.9-3.6,13.4-3.6c5.4,0,9.3,1.2,11.5,3.6"/>
				<path class="st3" d="M92.8,75.2c-3.1-3-3.9-7.2-2.4-12.8c1.5-5.7,4.5-9.9,9.1-12.8"/>
				<path class="st3" d="M117.7,75.2c-3.5,2.4-7.9,3.6-13.4,3.6c-5.4,0-9.3-1.2-11.5-3.6"/>
				<polyline class="st3" points="137.9,72.6 145.2,72.6 145.6,72.6 145.9,72.6 146.3,72.6 146.6,72.5 146.9,72.5 147.3,72.4 
					147.6,72.4 147.9,72.3 148.2,72.2 148.5,72.2 148.8,72.1 149.2,72 149.4,71.9 149.7,71.7 150,71.6 150.3,71.5 150.6,71.3 
					150.9,71.2 151.1,71 151.4,70.8 151.7,70.6 151.9,70.5 152.2,70.3 152.4,70.1 152.7,69.8 152.9,69.6 153.1,69.4 153.4,69.1 
					153.6,68.9 153.8,68.6 154.1,68.4 154.3,68.1 154.5,67.8 154.7,67.4 154.9,67.1 155.1,66.8 155.3,66.4 155.5,66.1 155.7,65.7 
					155.9,65.3 156,65 156.2,64.6 156.4,64.2 156.5,63.8 156.6,63.4 156.8,63 156.9,62.6 157,62.2 157.1,61.6 157.3,61 157.4,60.5 
					157.5,59.9 157.5,59.4 157.6,58.9 157.6,58.7 157.6,58.4 157.6,58.2 157.6,58 157.6,57.7 157.6,57.5 157.6,57.3 157.6,57.1 
					157.6,56.9 157.6,56.7 157.5,56.5 157.5,56.3 157.5,56.1 157.4,55.9 157.4,55.7 157.3,55.6 157.3,55.4 157.2,55.2 157.1,55.1 
					157.1,54.9 157,54.8 157,54.7 157,54.7 156.9,54.6 156.9,54.5 156.8,54.4 156.8,54.4 156.7,54.3 156.7,54.2 156.6,54.2 
					156.6,54.1 156.5,54 156.4,54 156.4,53.9 156.3,53.8 156.2,53.8 156.2,53.7 156.1,53.7 156,53.6 155.9,53.6 155.9,53.5 
					155.8,53.4 155.7,53.4 155.6,53.3 155.5,53.3 155.4,53.2 155.3,53.2 155.2,53.2 155.2,53.1 155.1,53.1 155,53 154.9,53 
					154.6,52.9 154.4,52.8 154.2,52.8 154,52.7 153.7,52.7 153.5,52.6 153.2,52.6 152.9,52.5 152.7,52.5 152.4,52.4 152.1,52.4 
					151.8,52.4 151.2,52.4 150.5,52.4 143.2,52.4 				"/>
				<line class="st3" x1="143.2" y1="52.4" x2="137.9" y2="72.6"/>
				<path class="st3" d="M136.9,47h16.4c1.9,0,3.8,0.2,5.7,0.7"/>
				<line class="st3" x1="128.8" y1="78" x2="136.9" y2="47"/>
				<polyline class="st3" points="159,47.6 159.2,47.7 159.4,47.8 159.6,47.9 159.9,47.9 160.1,48 160.3,48.1 160.5,48.2 
					160.7,48.3 160.9,48.4 161.1,48.5 161.3,48.6 161.5,48.7 161.6,48.8 161.8,48.9 162,49 162.2,49.2 162.3,49.3 162.5,49.4 
					162.7,49.5 162.8,49.7 163,49.8 163.1,50 163.3,50.1 163.4,50.3 163.5,50.4 163.7,50.6 163.8,50.7 163.9,50.9 164.1,51.1 
					164.2,51.2 164.3,51.4 164.4,51.6 164.6,51.9 164.7,52.2 164.9,52.5 165,52.8 165.1,53.1 165.2,53.4 165.4,53.7 165.4,54 
					165.5,54.3 165.6,54.6 165.7,54.9 165.7,55.3 165.8,55.6 165.8,55.9 165.8,56.2 165.8,56.6 165.8,57.3 165.8,57.9 165.7,58.6 
					165.7,59.2 165.6,59.9 165.5,60.5 165.3,61.1 165.2,61.7 165,62.5 164.8,63.2 164.5,64 164.2,64.7 163.9,65.4 163.6,66.1 
					163.3,66.8 162.9,67.4 162.6,68.1 162.2,68.7 161.8,69.3 161.3,69.9 160.9,70.5 160.4,71.1 159.9,71.7 159.4,72.2 159.1,72.6 
					158.7,72.9 158.3,73.2 158,73.6 157.6,73.9 157.2,74.2 156.8,74.5 156.4,74.7 156,75 155.6,75.2 155.2,75.5 154.8,75.7 
					154.4,75.9 153.9,76.2 153.5,76.3 153.1,76.5 152.6,76.7 152.2,76.9 151.7,77 151.2,77.2 150.8,77.3 150.3,77.4 149.8,77.5 
					149.3,77.6 148.8,77.7 148.3,77.8 147.8,77.8 147.3,77.9 146.8,77.9 146.3,78 145.7,78 145.2,78 128.8,78 				"/>
				<polyline class="st3" points="176,72.6 183.4,72.6 183.7,72.6 184.1,72.6 184.4,72.6 184.7,72.5 185.1,72.5 185.4,72.4 
					185.7,72.4 186,72.3 186.4,72.2 186.7,72.2 187,72.1 187.3,72 187.6,71.9 187.9,71.7 188.1,71.6 188.4,71.5 188.7,71.3 
					189,71.2 189.3,71 189.5,70.8 189.8,70.6 190,70.5 190.3,70.3 190.5,70.1 190.8,69.8 191,69.6 191.3,69.4 191.5,69.1 
					191.7,68.9 192,68.6 192.2,68.4 192.4,68.1 192.6,67.8 192.8,67.4 193,67.1 193.3,66.8 193.5,66.4 193.6,66.1 193.8,65.7 
					194,65.3 194.2,65 194.3,64.6 194.5,64.2 194.6,63.8 194.8,63.4 194.9,63 195,62.6 195.1,62.2 195.3,61.6 195.4,61 195.5,60.5 
					195.6,59.9 195.7,59.4 195.7,58.9 195.7,58.7 195.7,58.4 195.8,58.2 195.8,58 195.8,57.7 195.8,57.5 195.7,57.3 195.7,57.1 
					195.7,56.9 195.7,56.7 195.7,56.5 195.6,56.3 195.6,56.1 195.5,55.9 195.5,55.7 195.4,55.6 195.4,55.4 195.3,55.2 195.3,55.1 
					195.2,54.9 195.2,54.8 195.1,54.7 195.1,54.7 195,54.6 195,54.5 194.9,54.4 194.9,54.4 194.8,54.3 194.8,54.2 194.7,54.2 
					194.7,54.1 194.6,54 194.5,54 194.5,53.9 194.4,53.8 194.4,53.8 194.3,53.7 194.2,53.7 194.1,53.6 194.1,53.6 194,53.5 
					193.9,53.4 193.8,53.4 193.7,53.3 193.6,53.3 193.6,53.2 193.5,53.2 193.4,53.2 193.3,53.1 193.2,53.1 193.1,53 193,53 
					192.8,52.9 192.5,52.8 192.3,52.8 192.1,52.7 191.8,52.7 191.6,52.6 191.3,52.6 191.1,52.5 190.8,52.5 190.5,52.4 190.2,52.4 
					189.9,52.4 189.3,52.4 188.6,52.4 181.3,52.4 				"/>
				<line class="st3" x1="181.3" y1="52.4" x2="176" y2="72.6"/>
				<path class="st3" d="M175,47h16.4c1.9,0,3.8,0.2,5.7,0.7"/>
				<line class="st3" x1="166.9" y1="78" x2="175" y2="47"/>
				<polyline class="st3" points="197.1,47.6 197.3,47.7 197.5,47.8 197.8,47.9 198,47.9 198.2,48 198.4,48.1 198.6,48.2 
					198.8,48.3 199,48.4 199.2,48.5 199.4,48.6 199.6,48.7 199.8,48.8 199.9,48.9 200.1,49 200.3,49.2 200.5,49.3 200.6,49.4 
					200.8,49.5 200.9,49.7 201.1,49.8 201.2,50 201.4,50.1 201.5,50.3 201.7,50.4 201.8,50.6 201.9,50.7 202.1,50.9 202.2,51.1 
					202.3,51.2 202.4,51.4 202.5,51.6 202.7,51.9 202.8,52.2 203,52.5 203.1,52.8 203.3,53.1 203.4,53.4 203.5,53.7 203.6,54 
					203.6,54.3 203.7,54.6 203.8,54.9 203.8,55.3 203.9,55.6 203.9,55.9 203.9,56.2 203.9,56.6 203.9,57.3 203.9,57.9 203.8,58.6 
					203.8,59.2 203.7,59.9 203.6,60.5 203.5,61.1 203.3,61.7 203.1,62.5 202.9,63.2 202.6,64 202.3,64.7 202.1,65.4 201.7,66.1 
					201.4,66.8 201.1,67.4 200.7,68.1 200.3,68.7 199.9,69.3 199.5,69.9 199,70.5 198.5,71.1 198.1,71.7 197.5,72.2 197.2,72.6 
					196.8,72.9 196.5,73.2 196.1,73.6 195.7,73.9 195.3,74.2 194.9,74.5 194.5,74.7 194.1,75 193.7,75.2 193.3,75.5 192.9,75.7 
					192.5,75.9 192.1,76.2 191.6,76.3 191.2,76.5 190.7,76.7 190.3,76.9 189.8,77 189.4,77.2 188.9,77.3 188.4,77.4 187.9,77.5 
					187.4,77.6 186.9,77.7 186.4,77.8 185.9,77.8 185.4,77.9 184.9,77.9 184.4,78 183.9,78 183.3,78 166.9,78 				"/>
				<line class="st3" x1="205.1" y1="78" x2="213.1" y2="47"/>
				<line class="st3" x1="231.8" y1="78" x2="205.1" y2="78"/>
				<line class="st3" x1="233.3" y1="72.4" x2="231.8" y2="78"/>
				<line class="st3" x1="214.4" y1="72.4" x2="233.3" y2="72.4"/>
				<line class="st3" x1="221.1" y1="47" x2="214.4" y2="72.4"/>
				<line class="st3" x1="213.1" y1="47" x2="221.1" y2="47"/>
				<line class="st3" x1="273.5" y1="47" x2="272" y2="52.5"/>
				<line class="st3" x1="245.6" y1="47" x2="273.5" y2="47"/>
				<line class="st3" x1="237.5" y1="78" x2="245.6" y2="47"/>
				<line class="st3" x1="266.3" y1="78" x2="237.5" y2="78"/>
				<line class="st3" x1="267.8" y1="72.4" x2="266.3" y2="78"/>
				<line class="st3" x1="246.7" y1="72.4" x2="267.8" y2="72.4"/>
				<line class="st3" x1="248.8" y1="64.4" x2="246.7" y2="72.4"/>
				<line class="st3" x1="267.3" y1="64.4" x2="248.8" y2="64.4"/>
				<line class="st3" x1="268.7" y1="59" x2="267.3" y2="64.4"/>
				<line class="st3" x1="250.2" y1="59" x2="268.7" y2="59"/>
				<line class="st3" x1="251.9" y1="52.5" x2="250.2" y2="59"/>
				<line class="st3" x1="272" y1="52.5" x2="251.9" y2="52.5"/>
				<line class="st3" x1="326.1" y1="56.6" x2="318.3" y2="56.6"/>
				<path class="st3" d="M291.3,74.5c-2.6-2.9-3.3-6.8-2-11.7c1.3-5,4-9,8.2-12.1c4.2-3,9-4.6,14.6-4.6c4.8,0,8.4,1,10.9,3
					c2.4,2,3.4,4.5,3.1,7.5"/>
				<path class="st3" d="M315.6,74.1c-0.1,0.1-0.1,0.1-0.2,0.2c-1.8,1.4-3.4,2.4-4.7,3c-2.4,1.1-5.1,1.6-8.1,1.6
					c-5,0-8.8-1.4-11.3-4.3"/>
				<line class="st3" x1="315.4" y1="78" x2="315.6" y2="74.1"/>
				<line class="st3" x1="315.4" y1="78" x2="315.4" y2="74.3"/>
				<line class="st3" x1="320.7" y1="78" x2="315.4" y2="78"/>
				<line class="st3" x1="325" y1="61.3" x2="320.7" y2="78"/>
				<line class="st3" x1="309.2" y1="61.3" x2="325" y2="61.3"/>
				<line class="st3" x1="307.8" y1="66.5" x2="309.2" y2="61.3"/>
				<line class="st3" x1="316.6" y1="66.5" x2="307.8" y2="66.5"/>
				<path class="st3" d="M318.3,56.6c-0.1-2.1-1.1-3.6-3.2-4.4c-1.2-0.5-2.6-0.7-4.2-0.7c-3.1,0-5.8,0.9-8.3,2.8
					c-2.5,1.9-4.2,4.7-5.2,8.5c-1,3.8-0.6,6.5,1.1,8.1c1.7,1.6,3.9,2.4,6.6,2.4s5-0.6,7.1-1.9c2-1.3,3.5-2.9,4.4-4.9"/>
				<polyline class="st3" points="340.7,60.7 349.7,60.7 350.3,60.7 350.9,60.7 351.5,60.6 351.8,60.6 352,60.6 352.3,60.5 
					352.5,60.5 352.8,60.5 353,60.4 353.2,60.4 353.4,60.3 353.6,60.2 353.8,60.2 354,60.1 354.1,60.1 354.3,60 354.4,59.9 
					354.6,59.9 354.7,59.8 354.9,59.7 355,59.6 355.1,59.5 355.2,59.5 355.4,59.4 355.5,59.3 355.6,59.2 355.7,59.1 355.8,59 
					355.9,58.9 356,58.8 356.1,58.6 356.2,58.5 356.3,58.4 356.4,58.3 356.5,58.2 356.6,58 356.6,57.9 356.7,57.7 356.8,57.6 
					356.8,57.5 356.9,57.3 357,57.2 357,57 357.1,56.8 357.1,56.7 357.1,56.5 357.2,56.3 357.2,56.2 357.2,56 357.3,55.9 
					357.3,55.7 357.3,55.5 357.3,55.5 357.3,55.4 357.3,55.3 357.3,55.3 357.3,55.2 357.3,55.1 357.3,55 357.3,55 357.3,54.9 
					357.3,54.8 357.2,54.8 357.2,54.7 357.2,54.6 357.2,54.6 357.2,54.5 357.2,54.5 357.2,54.4 357.1,54.3 357.1,54.3 357.1,54.2 
					357.1,54.2 357,54.1 357,54 357,54 357,53.9 356.9,53.9 356.9,53.8 356.9,53.8 356.8,53.7 356.8,53.7 356.8,53.6 356.7,53.6 
					356.7,53.5 356.6,53.5 356.6,53.5 356.5,53.4 356.5,53.4 356.5,53.3 356.4,53.3 356.4,53.2 356.3,53.2 356.3,53.2 356.2,53.1 
					356.1,53.1 356.1,53.1 356,53 356,53 355.9,53 355.9,52.9 355.8,52.9 355.7,52.9 355.6,52.8 355.6,52.8 355.5,52.8 355.4,52.7 
					355.3,52.7 355.2,52.7 355.1,52.7 354.9,52.6 354.7,52.6 354.5,52.5 354.3,52.5 354,52.5 353.8,52.4 353.5,52.4 353.3,52.4 
					352.7,52.4 352.1,52.4 342.8,52.4 				"/>
				<line class="st3" x1="342.8" y1="52.4" x2="340.7" y2="60.7"/>
				<path class="st3" d="M355.1,47c2.6,0,4.6,0.3,5.9,0.8s2.3,1.2,3.1,2.2"/>
				<line class="st3" x1="336.5" y1="47" x2="355.1" y2="47"/>
				<line class="st3" x1="328.4" y1="78" x2="336.5" y2="47"/>
				<line class="st3" x1="336.2" y1="78" x2="328.4" y2="78"/>
				<line class="st3" x1="339.3" y1="65.8" x2="336.2" y2="78"/>
				<path class="st3" d="M351.4,78l-0.1-1.7c0-0.9,0.1-1.8,0.4-2.7l0.7-2.9l0.1-0.4l0.1-0.3l0.1-0.3v-0.2v-0.2v-0.2V69v-0.2v-0.1
					v-0.1v-0.1v-0.1v-0.1v-0.1v-0.1V68v-0.1v-0.1v-0.1v-0.1v-0.1v-0.1l0,0v-0.1l0,0l0,0v-0.1l0,0l0,0l0,0l0,0l0,0l0,0l0,0l0,0l0,0
					l0,0l0,0l0,0l0,0l0,0l0,0l0,0l0,0l0,0l0,0l0,0l0,0l0,0l0,0l0,0l0,0l0,0l0,0l0,0h-0.1l-0.1-0.1h-0.1h-0.1h-0.1h-0.1H352h-0.1
					h-0.1h-0.1h-0.1h-0.1l-0.3-0.1h-0.3h-0.4h-0.4h-0.4h-0.4h-0.4h-8.2"/>
				<line class="st3" x1="360.1" y1="78" x2="351.4" y2="78"/>
				<line class="st3" x1="360.3" y1="77.2" x2="360.1" y2="78"/>
				<polyline class="st3" points="357.5,63.2 357.8,63.3 358.1,63.4 358.2,63.5 358.3,63.5 358.5,63.6 358.6,63.6 358.7,63.7 
					358.8,63.8 358.9,63.8 359,63.9 359.2,64 359.3,64.1 359.4,64.1 359.5,64.2 359.5,64.3 359.6,64.4 359.7,64.4 359.8,64.5 
					359.9,64.6 360,64.7 360,64.8 360.1,64.9 360.2,65 360.3,65.1 360.3,65.1 360.4,65.2 360.4,65.3 360.5,65.4 360.5,65.5 
					360.6,65.6 360.6,65.7 360.6,65.7 360.6,65.8 360.6,65.8 360.7,65.9 360.7,66 360.7,66.2 360.8,66.3 360.8,66.4 360.8,66.5 
					360.8,66.6 360.8,66.8 360.9,66.9 360.9,67.1 360.9,67.2 360.9,67.3 360.9,67.5 360.9,67.6 360.9,67.8 360.8,67.9 360.8,68.3 
					360.8,68.6 360.7,68.9 360.7,69.3 360.6,69.7 360.5,70.1 360.4,70.5 359.9,72.6 359.6,73.5 359.5,74 359.5,74.3 359.4,74.7 
					359.4,74.8 359.4,75 359.3,75.1 359.3,75.2 359.3,75.3 359.3,75.4 359.3,75.4 359.3,75.5 359.3,75.6 359.3,75.7 359.3,75.7 
					359.3,75.8 359.4,75.9 359.4,75.9 359.4,76 359.4,76.1 359.4,76.1 359.4,76.2 359.5,76.2 359.5,76.3 359.5,76.3 359.5,76.4 
					359.5,76.4 359.5,76.4 359.5,76.5 359.6,76.5 359.6,76.5 359.6,76.5 359.6,76.6 359.6,76.6 359.6,76.6 359.7,76.6 359.7,76.7 
					359.7,76.7 359.7,76.7 359.7,76.7 359.8,76.8 359.8,76.8 359.8,76.8 359.8,76.8 359.9,76.9 359.9,76.9 360,77 360,77 
					360.1,77.1 360.1,77.1 360.2,77.1 360.2,77.2 360.3,77.2 				"/>
				<path class="st3" d="M364.1,49.9c0.6,0.8,1,1.7,1.3,2.6c0.2,1,0.2,2-0.1,3.3c-0.4,1.5-1.2,2.9-2.5,4.3c-1.3,1.4-3,2.4-5.3,3"/>
				<line class="st3" x1="381.7" y1="47" x2="373.6" y2="78"/>
				<line class="st3" x1="373.8" y1="47" x2="381.7" y2="47"/>
				<line class="st3" x1="365.7" y1="78" x2="373.8" y2="47"/>
				<line class="st3" x1="373.6" y1="78" x2="365.7" y2="78"/>
				<polyline class="st3" points="390.1,72.6 397.4,72.6 397.8,72.6 398.1,72.6 398.5,72.6 398.8,72.5 399.1,72.5 399.5,72.4 
					399.8,72.4 400.1,72.3 400.4,72.2 400.7,72.2 401,72.1 401.3,72 401.6,71.9 401.9,71.7 402.2,71.6 402.5,71.5 402.8,71.3 
					403.1,71.2 403.3,71 403.6,70.8 403.9,70.6 404.1,70.5 404.4,70.3 404.6,70.1 404.9,69.8 405.1,69.6 405.3,69.4 405.6,69.1 
					405.8,68.9 406,68.6 406.2,68.4 406.5,68.1 406.7,67.8 406.9,67.4 407.1,67.1 407.3,66.8 407.5,66.4 407.7,66.1 407.9,65.7 
					408.1,65.3 408.2,65 408.4,64.6 408.6,64.2 408.7,63.8 408.8,63.4 409,63 409.1,62.6 409.2,62.2 409.3,61.6 409.5,61 
					409.6,60.5 409.7,59.9 409.7,59.4 409.8,58.9 409.8,58.7 409.8,58.4 409.8,58.2 409.8,58 409.8,57.7 409.8,57.5 409.8,57.3 
					409.8,57.1 409.8,56.9 409.8,56.7 409.7,56.5 409.7,56.3 409.7,56.1 409.6,55.9 409.6,55.7 409.5,55.6 409.5,55.4 409.4,55.2 
					409.3,55.1 409.3,54.9 409.2,54.8 409.2,54.7 409.1,54.7 409.1,54.6 409.1,54.5 409,54.4 409,54.4 408.9,54.3 408.9,54.2 
					408.8,54.2 408.7,54.1 408.7,54 408.6,54 408.6,53.9 408.5,53.8 408.4,53.8 408.4,53.7 408.3,53.7 408.2,53.6 408.1,53.6 
					408,53.5 408,53.4 407.9,53.4 407.8,53.3 407.7,53.3 407.6,53.2 407.5,53.2 407.4,53.2 407.3,53.1 407.2,53.1 407.1,53 407,53 
					406.8,52.9 406.6,52.8 406.4,52.8 406.2,52.7 405.9,52.7 405.7,52.6 405.4,52.6 405.1,52.5 404.9,52.5 404.6,52.4 404.3,52.4 
					404,52.4 403.4,52.4 402.7,52.4 395.4,52.4 				"/>
				<line class="st3" x1="395.4" y1="52.4" x2="390.1" y2="72.6"/>
				<path class="st3" d="M389.1,47h16.4c1.9,0,3.8,0.2,5.7,0.7"/>
				<line class="st3" x1="381" y1="78" x2="389.1" y2="47"/>
				<polyline class="st3" points="411.1,47.6 411.4,47.7 411.6,47.8 411.8,47.9 412,47.9 412.3,48 412.5,48.1 412.7,48.2 
					412.9,48.3 413.1,48.4 413.3,48.5 413.5,48.6 413.7,48.7 413.8,48.8 414,48.9 414.2,49 414.4,49.2 414.5,49.3 414.7,49.4 
					414.9,49.5 415,49.7 415.2,49.8 415.3,50 415.5,50.1 415.6,50.3 415.7,50.4 415.9,50.6 416,50.7 416.1,50.9 416.2,51.1 
					416.4,51.2 416.5,51.4 416.6,51.6 416.8,51.9 416.9,52.2 417.1,52.5 417.2,52.8 417.3,53.1 417.4,53.4 417.5,53.7 417.6,54 
					417.7,54.3 417.8,54.6 417.8,54.9 417.9,55.3 417.9,55.6 418,55.9 418,56.2 418,56.6 418,57.3 418,57.9 417.9,58.6 417.8,59.2 
					417.8,59.9 417.7,60.5 417.5,61.1 417.4,61.7 417.2,62.5 416.9,63.2 416.7,64 416.4,64.7 416.1,65.4 415.8,66.1 415.5,66.8 
					415.1,67.4 414.8,68.1 414.4,68.7 414,69.3 413.5,69.9 413.1,70.5 412.6,71.1 412.1,71.7 411.6,72.2 411.3,72.6 410.9,72.9 
					410.5,73.2 410.2,73.6 409.8,73.9 409.4,74.2 409,74.5 408.6,74.7 408.2,75 407.8,75.2 407.4,75.5 407,75.7 406.6,75.9 
					406.1,76.2 405.7,76.3 405.2,76.5 404.8,76.7 404.3,76.9 403.9,77 403.4,77.2 402.9,77.3 402.5,77.4 402,77.5 401.5,77.6 
					401,77.7 400.5,77.8 400,77.8 399.5,77.9 399,77.9 398.4,78 397.9,78 397.4,78 381,78 				"/>
				<line class="st3" x1="545.6" y1="95.4" x2="537.8" y2="95.4"/>
				<path class="st3" d="M510.8,113.3c-2.6-2.9-3.2-6.8-2-11.7c1.3-5,4-9,8.2-12.1c4.2-3,9-4.5,14.6-4.5c4.8,0,8.4,1,10.9,3
					c2.4,2,3.4,4.5,3.1,7.5"/>
				<path class="st3" d="M535.1,112.8c-0.1,0.1-0.1,0.1-0.2,0.2c-1.8,1.4-3.4,2.4-4.7,3c-2.4,1.1-5.1,1.6-8.1,1.6
					c-5,0-8.8-1.4-11.3-4.3"/>
				<line class="st3" x1="534.9" y1="116.7" x2="535.1" y2="112.8"/>
				<line class="st3" x1="534.9" y1="116.7" x2="534.9" y2="113"/>
				<line class="st3" x1="540.2" y1="116.7" x2="534.9" y2="116.7"/>
				<line class="st3" x1="544.5" y1="100.1" x2="540.2" y2="116.7"/>
				<line class="st3" x1="528.7" y1="100.1" x2="544.5" y2="100.1"/>
				<line class="st3" x1="527.3" y1="105.2" x2="528.7" y2="100.1"/>
				<line class="st3" x1="536.1" y1="105.2" x2="527.3" y2="105.2"/>
				<path class="st3" d="M537.8,95.4c-0.1-2.1-1.1-3.6-3.2-4.4c-1.2-0.5-2.6-0.7-4.2-0.7c-3.1,0-5.8,0.9-8.3,2.8s-4.2,4.7-5.2,8.5
					s-0.6,6.5,1.1,8.1c1.7,1.6,3.9,2.4,6.6,2.4c2.7,0,5-0.6,7-1.9s3.5-2.9,4.4-4.9"/>
				<path class="st3" d="M496.8,101.2c0.9-3.5,0.7-6.2-0.7-8.1c-1.4-1.9-3.6-2.9-6.7-2.9s-5.9,0.9-8.3,2.8s-4,4.6-4.9,8.1
					s-0.7,6.2,0.7,8.1c1.4,1.9,3.6,2.8,6.8,2.8s5.9-0.9,8.2-2.8C494.2,107.4,495.9,104.7,496.8,101.2z"/>
				<path class="st3" d="M502.3,88.4c3.1,2.8,3.9,7.1,2.4,12.8c-1.5,5.6-4.5,9.8-9.1,12.8"/>
				<path class="st3" d="M477.4,88.4c3.5-2.4,7.9-3.6,13.4-3.6c5.4,0,9.3,1.2,11.5,3.6"/>
				<path class="st3" d="M470.7,114c-3.1-3-3.9-7.2-2.4-12.8c1.5-5.7,4.5-9.9,9.1-12.8"/>
				<path class="st3" d="M495.6,114c-3.5,2.4-7.9,3.6-13.4,3.6c-5.4,0-9.3-1.2-11.5-3.6"/>
				<line class="st3" x1="433.4" y1="116.7" x2="441.5" y2="85.7"/>
				<line class="st3" x1="460.2" y1="116.7" x2="433.4" y2="116.7"/>
				<line class="st3" x1="461.6" y1="111.1" x2="460.2" y2="116.7"/>
				<line class="st3" x1="442.8" y1="111.1" x2="461.6" y2="111.1"/>
				<line class="st3" x1="449.4" y1="85.7" x2="442.8" y2="111.1"/>
				<line class="st3" x1="441.5" y1="85.7" x2="449.4" y2="85.7"/>
				<line class="st3" x1="416.8" y1="92.8" x2="408.7" y2="105"/>
				<line class="st3" x1="418.4" y1="105" x2="416.8" y2="92.8"/>
				<line class="st3" x1="408.7" y1="105" x2="418.4" y2="105"/>
				<line class="st3" x1="392.6" y1="116.7" x2="414.2" y2="85.7"/>
				<line class="st3" x1="400.9" y1="116.7" x2="392.6" y2="116.7"/>
				<line class="st3" x1="405.2" y1="110.3" x2="400.9" y2="116.7"/>
				<line class="st3" x1="419.2" y1="110.3" x2="405.2" y2="110.3"/>
				<line class="st3" x1="420" y1="116.7" x2="419.2" y2="110.3"/>
				<line class="st3" x1="428.6" y1="116.7" x2="420" y2="116.7"/>
				<line class="st3" x1="423.2" y1="85.7" x2="428.6" y2="116.7"/>
				<line class="st3" x1="414.2" y1="85.7" x2="423.2" y2="85.7"/>
				<line class="st3" x1="368" y1="85.7" x2="398.7" y2="85.7"/>
				<line class="st3" x1="366.5" y1="91.2" x2="368" y2="85.7"/>
				<line class="st3" x1="377.9" y1="91.2" x2="366.5" y2="91.2"/>
				<line class="st3" x1="371.3" y1="116.7" x2="377.9" y2="91.2"/>
				<line class="st3" x1="379.3" y1="116.7" x2="371.3" y2="116.7"/>
				<line class="st3" x1="385.9" y1="91.2" x2="379.3" y2="116.7"/>
				<line class="st3" x1="397.3" y1="91.2" x2="385.9" y2="91.2"/>
				<line class="st3" x1="398.7" y1="85.7" x2="397.3" y2="91.2"/>
				<line class="st3" x1="346.4" y1="92.8" x2="338.4" y2="105"/>
				<line class="st3" x1="348" y1="105" x2="346.4" y2="92.8"/>
				<line class="st3" x1="338.4" y1="105" x2="348" y2="105"/>
				<line class="st3" x1="322.3" y1="116.7" x2="343.9" y2="85.7"/>
				<line class="st3" x1="330.6" y1="116.7" x2="322.3" y2="116.7"/>
				<line class="st3" x1="334.8" y1="110.3" x2="330.6" y2="116.7"/>
				<line class="st3" x1="348.8" y1="110.3" x2="334.8" y2="110.3"/>
				<line class="st3" x1="349.6" y1="116.7" x2="348.8" y2="110.3"/>
				<line class="st3" x1="358.2" y1="116.7" x2="349.6" y2="116.7"/>
				<line class="st3" x1="352.8" y1="85.7" x2="358.2" y2="116.7"/>
				<line class="st3" x1="343.9" y1="85.7" x2="352.8" y2="85.7"/>
				<path class="st3" d="M321.6,106.1c-1.6,3.4-4,6.1-7.4,8.3s-7.3,3.2-11.7,3.2c-5.5,0-9.4-1.4-11.8-4.3s-2.9-6.8-1.6-11.8
					c1.4-5.4,4.3-9.6,8.6-12.5"/>
				<line class="st3" x1="313.8" y1="106.1" x2="321.6" y2="106.1"/>
				<path class="st3" d="M316.4,96c-0.1-1.5-0.5-2.6-1.1-3.4c-1.1-1.3-3-2-5.9-2s-5.4,0.9-7.6,2.9c-2.2,1.9-3.7,4.6-4.6,8.1
					s-0.7,6.1,0.6,7.8c1.3,1.7,3.3,2.6,6,2.6c2.8,0,5.1-0.8,7-2.2c1-0.8,2-2,2.9-3.6"/>
				<line class="st3" x1="324.3" y1="96" x2="316.4" y2="96"/>
				<path class="st3" d="M297.7,88.9c3.8-2.5,8-3.8,12.8-3.8c6.4,0,10.6,1.7,12.7,5.1c1.1,1.9,1.5,3.8,1.1,5.8"/>
			</g>
		</g>
	</g>
</g>
</svg>
